  0
SECTION
  2
HEADER
  9
$ACADVER
  1
AC1009
  9
$INSBASE
 10
0.0
 20
0.0
 30
0.0
  9
$EXTMIN
 10
-10.1523303532212594
 20
-4.424542189404292
 30
-0.0000000000112498
  9
$EXTMAX
 10
10.0242325069275395
 20
12.9957679793246808
 30
0.0000000000002956
  9
$LIMMIN
 10
0.0
 20
0.0
  9
$LIMMAX
 10
420.0
 20
297.0
  9
$ORTHOMODE
 70
     1
  9
$REGENMODE
 70
     1
  9
$FILLMODE
 70
     1
  9
$QTEXTMODE
 70
     0
  9
$MIRRTEXT
 70
     0
  9
$DRAGMODE
 70
     2
  9
$LTSCALE
 40
1.0
  9
$OSMODE
 70
    37
  9
$ATTMODE
 70
     1
  9
$TEXTSIZE
 40
2.5
  9
$TRACEWID
 40
1.0
  9
$TEXTSTYLE
  7
STANDARD
  9
$CLAYER
  8
0
  9
$CELTYPE
  6
BYLAYER
  9
$CECOLOR
 62
   256
  9
$DIMSCALE
 40
1.0
  9
$DIMASZ
 40
2.5
  9
$DIMEXO
 40
0.625
  9
$DIMDLI
 40
3.75
  9
$DIMRND
 40
0.0
  9
$DIMDLE
 40
0.0
  9
$DIMEXE
 40
1.25
  9
$DIMTP
 40
0.0
  9
$DIMTM
 40
0.0
  9
$DIMTXT
 40
2.5
  9
$DIMCEN
 40
2.5
  9
$DIMTSZ
 40
0.0
  9
$DIMTOL
 70
     0
  9
$DIMLIM
 70
     0
  9
$DIMTIH
 70
     0
  9
$DIMTOH
 70
     0
  9
$DIMSE1
 70
     0
  9
$DIMSE2
 70
     0
  9
$DIMTAD
 70
     1
  9
$DIMZIN
 70
     8
  9
$DIMBLK
  1

  9
$DIMASO
 70
     1
  9
$DIMSHO
 70
     1
  9
$DIMPOST
  1

  9
$DIMAPOST
  1

  9
$DIMALT
 70
     0
  9
$DIMALTD
 70
     3
  9
$DIMALTF
 40
0.03937007874016
  9
$DIMLFAC
 40
1.0
  9
$DIMTOFL
 70
     1
  9
$DIMTVP
 40
0.0
  9
$DIMTIX
 70
     0
  9
$DIMSOXD
 70
     0
  9
$DIMSAH
 70
     0
  9
$DIMBLK1
  1

  9
$DIMBLK2
  1

  9
$DIMSTYLE
  2
ISO-25
  9
$DIMCLRD
 70
     0
  9
$DIMCLRE
 70
     0
  9
$DIMCLRT
 70
     0
  9
$DIMTFAC
 40
1.0
  9
$DIMGAP
 40
0.625
  9
$LUNITS
 70
     2
  9
$LUPREC
 70
     4
  9
$SKETCHINC
 40
1.0
  9
$FILLETRAD
 40
0.0
  9
$AUNITS
 70
     0
  9
$AUPREC
 70
     0
  9
$MENU
  1
.
  9
$ELEVATION
 40
0.0
  9
$PELEVATION
 40
0.0
  9
$THICKNESS
 40
0.0
  9
$LIMCHECK
 70
     0
  9
$BLIPMODE
 70
     0
  9
$CHAMFERA
 40
0.0
  9
$CHAMFERB
 40
0.0
  9
$SKPOLY
 70
     0
  9
$TDCREATE
 40
2460108.6800347222015262
  9
$TDUPDATE
 40
2460108.7499652779661119
  9
$TDINDWG
 40
0.0699305556
  9
$TDUSRTIMER
 40
0.0699305556
  9
$USRTIMER
 70
     1
  9
$ANGBASE
 50
0.0
  9
$ANGDIR
 70
     0
  9
$PDMODE
 70
     0
  9
$PDSIZE
 40
0.0
  9
$PLINEWID
 40
0.0
  9
$COORDS
 70
     1
  9
$SPLFRAME
 70
     0
  9
$SPLINETYPE
 70
     6
  9
$SPLINESEGS
 70
     8
  9
$ATTDIA
 70
     1
  9
$ATTREQ
 70
     1
  9
$HANDLING
 70
     1
  9
$HANDSEED
  5
10C1
  9
$SURFTAB1
 70
     6
  9
$SURFTAB2
 70
     6
  9
$SURFTYPE
 70
     6
  9
$SURFU
 70
     6
  9
$SURFV
 70
     6
  9
$UCSNAME
  2

  9
$UCSORG
 10
0.0
 20
0.0
 30
0.0
  9
$UCSXDIR
 10
1.0
 20
0.0
 30
0.0
  9
$UCSYDIR
 10
0.0
 20
1.0
 30
0.0
  9
$PUCSNAME
  2

  9
$PUCSORG
 10
0.0
 20
0.0
 30
0.0
  9
$PUCSXDIR
 10
1.0
 20
0.0
 30
0.0
  9
$PUCSYDIR
 10
0.0
 20
1.0
 30
0.0
  9
$USERI1
 70
     0
  9
$USERI2
 70
     0
  9
$USERI3
 70
     0
  9
$USERI4
 70
     0
  9
$USERI5
 70
     0
  9
$USERR1
 40
0.0
  9
$USERR2
 40
0.0
  9
$USERR3
 40
0.0
  9
$USERR4
 40
0.0
  9
$USERR5
 40
0.0
  9
$WORLDVIEW
 70
     1
  9
$SHADEDGE
 70
     3
  9
$SHADEDIF
 70
    70
  9
$TILEMODE
 70
     1
  9
$MAXACTVP
 70
    64
  9
$PLIMCHECK
 70
     0
  9
$PEXTMIN
 10
0.0
 20
0.0
 30
0.0
  9
$PEXTMAX
 10
0.0
 20
0.0
 30
0.0
  9
$PLIMMIN
 10
0.0
 20
0.0
  9
$PLIMMAX
 10
12.0
 20
9.0
  9
$UNITMODE
 70
     0
  9
$VISRETAIN
 70
     1
  9
$PLINEGEN
 70
     0
  9
$PSLTSCALE
 70
     1
  0
ENDSEC
  0
SECTION
  2
TABLES
  0
TABLE
  2
VPORT
 70
     1
  0
VPORT
  2
*ACTIVE
 70
     0
 10
0.0
 20
0.0
 11
1.0
 21
1.0
 12
-0.0640489231468582
 22
4.2856128949601962
 13
0.0
 23
0.0
 14
10.0
 24
10.0
 15
10.0
 25
10.0
 16
0.0
 26
0.0
 36
1.0
 17
0.0
 27
0.0
 37
0.0
 40
17.5634908002527688
 41
2.6323731138545949
 42
50.0
 43
0.0
 44
0.0
 50
0.0
 51
0.0
 71
     0
 72
  1000
 73
     1
 74
     3
 75
     0
 76
     1
 77
     0
 78
     0
  0
ENDTAB
  0
TABLE
  2
LTYPE
 70
     2
  0
LTYPE
  2
CONTINUOUS
 70
     0
  3
Solid line
 72
    65
 73
     0
 40
0.0
  0
ENDTAB
  0
TABLE
  2
LAYER
 70
     1
  0
LAYER
  2
0
 70
     0
 62
     7
  6
CONTINUOUS
  0
ENDTAB
  0
TABLE
  2
STYLE
 70
     2
  0
STYLE
  2
STANDARD
 70
     0
 40
0.0
 41
1.0
 50
0.0
 71
     0
 42
2.5
  3
txt
  4

  0
STYLE
  2
ANNOTATIVE
 70
     0
 40
0.0
 41
1.0
 50
0.0
 71
     0
 42
2.5
  3
txt
  4

  0
ENDTAB
  0
TABLE
  2
VIEW
 70
     0
  0
ENDTAB
  0
TABLE
  2
UCS
 70
     0
  0
ENDTAB
  0
TABLE
  2
APPID
 70
     9
  0
APPID
  2
ACAD
 70
     0
  0
APPID
  2
ACAD_PSEXT
 70
     0
  0
APPID
  2
ACADANNOPO
 70
     0
  0
APPID
  2
ACADANNOTATIVE
 70
     0
  0
APPID
  2
ACAD_DSTYLE_DIMJAG
 70
     0
  0
APPID
  2
ACAD_DSTYLE_DIMTALN
 70
     0
  0
APPID
  2
ACAD_MLEADERVER
 70
     0
  0
APPID
  2
ACAD_NAV_VCDISPLAY
 70
     0
  0
APPID
  2
ACAD_EXEMPT_FROM_CAD_STANDARDS
 70
     0
  0
ENDTAB
  0
TABLE
  2
DIMSTYLE
 70
     4
  0
DIMSTYLE
  2
STANDARD
 70
     0
  3

  4

  5

  6

  7

 40
1.0
 41
0.18
 42
0.0625
 43
0.38
 44
0.18
 45
0.0
 46
0.0
 47
0.0
 48
0.0
140
0.18
141
0.09
142
0.0
143
25.3999999999999986
144
1.0
145
0.0
146
1.0
147
0.09
 71
     0
 72
     0
 73
     1
 74
     1
 75
     0
 76
     0
 77
     0
 78
     0
170
     0
171
     2
172
     0
173
     0
174
     0
175
     0
176
     0
177
     0
178
     0
  0
DIMSTYLE
  2
ANNOTATIVE
 70
     0
  3

  4

  5

  6

  7

 40
0.0
 41
2.5
 42
0.625
 43
3.75
 44
1.25
 45
0.0
 46
0.0
 47
0.0
 48
0.0
140
2.5
141
2.5
142
0.0
143
0.03937007874016
144
1.0
145
0.0
146
1.0
147
0.625
 71
     0
 72
     0
 73
     0
 74
     0
 75
     0
 76
     0
 77
     1
 78
     8
170
     0
171
     3
172
     1
173
     0
174
     0
175
     0
176
     0
177
     0
178
     0
  0
DIMSTYLE
  2
ISO-25
 70
     0
  3

  4

  5

  6

  7

 40
1.0
 41
2.5
 42
0.625
 43
3.75
 44
1.25
 45
0.0
 46
0.0
 47
0.0
 48
0.0
140
2.5
141
2.5
142
0.0
143
0.03937007874016
144
1.0
145
0.0
146
1.0
147
0.625
 71
     0
 72
     0
 73
     0
 74
     0
 75
     0
 76
     0
 77
     1
 78
     8
170
     0
171
     3
172
     1
173
     0
174
     0
175
     0
176
     0
177
     0
178
     0
  0
ENDTAB
  0
ENDSEC
  0
SECTION
  2
BLOCKS
  0
BLOCK
  8
0
  2
$MODEL_SPACE
 70
     0
 10
0.0
 20
0.0
 30
0.0
  3
$MODEL_SPACE
  1

  0
ENDBLK
  5
21
  8
0
  0
BLOCK
 67
     1
  8
0
  2
$PAPER_SPACE
 70
     0
 10
0.0
 20
0.0
 30
0.0
  3
$PAPER_SPACE
  1

  0
ENDBLK
  5
D5
 67
     1
  8
0
  0
ENDSEC
  0
SECTION
  2
ENTITIES
  0
LINE
  5
A9A
  8
0
 10
0.0
 20
0.0
 30
0.0
 11
-2.5
 21
-4.3301270189221928
 31
0.0
  0
LINE
  5
B53
  8
0
 10
2.5
 20
0.0000000000000018
 30
0.0
 11
2.4984770675477388
 21
0.0872487417562535
 31
0.0
  0
LINE
  5
B54
  8
0
 10
2.4984770675477388
 20
0.0872487417562535
 30
0.0
 11
2.4939101256495588
 21
0.1743911843603154
 31
0.0
  0
LINE
  5
B55
  8
0
 10
2.4939101256495588
 20
0.1743911843603154
 30
0.0
 11
2.4863047384206811
 21
0.2613211581691353
 31
0.0
  0
LINE
  5
B56
  8
0
 10
2.4863047384206811
 20
0.2613211581691353
 30
0.0
 11
2.475670171853924
 21
0.3479327524001654
 31
0.0
  0
LINE
  5
B57
  8
0
 10
2.475670171853924
 20
0.3479327524001654
 30
0.0
 11
2.4620193825305181
 21
0.434120444167327
 31
0.0
  0
LINE
  5
B58
  8
0
 10
2.4620193825305181
 20
0.434120444167327
 30
0.0
 11
2.445369001834512
 21
0.5197792270444009
 31
0.0
  0
LINE
  5
B59
  8
0
 10
2.445369001834512
 20
0.5197792270444009
 30
0.0
 11
2.4257393156899889
 21
0.6048047389991709
 31
0.0
  0
LINE
  5
B5A
  8
0
 10
2.4257393156899889
 20
0.6048047389991709
 30
0.0
 11
2.4031542398457968
 21
0.6890933895424994
 31
0.0
  0
LINE
  5
B5B
  8
0
 10
2.4031542398457968
 20
0.6890933895424994
 30
0.0
 11
2.3776412907378819
 21
0.77254248593737
 31
0.0
  0
LINE
  5
B5C
  8
0
 10
2.3776412907378819
 20
0.77254248593737
 30
0.0
 11
2.34923155196477
 21
0.8550503583141733
 31
0.0
  0
LINE
  5
B5D
  8
0
 10
2.34923155196477
 20
0.8550503583141733
 30
0.0
 11
2.317959636416969
 21
0.9365164835397816
 31
0.0
  0
LINE
  5
B5E
  8
0
 10
2.317959636416969
 20
0.9365164835397816
 30
0.0
 11
2.2838636441065008
 21
1.016841607689501
 31
0.0
  0
LINE
  5
B5F
  8
0
 10
2.2838636441065008
 20
1.016841607689501
 30
0.0
 11
2.2469851157479162
 21
1.0959278669726951
 31
0.0
  0
LINE
  5
B60
  8
0
 10
2.2469851157479162
 20
1.0959278669726951
 30
0.0
 11
2.207368982147317
 21
1.1736789069647271
 31
0.0
  0
LINE
  5
B61
  8
0
 10
2.207368982147317
 20
1.1736789069647271
 30
0.0
 11
2.165063509461095
 21
1.2500000000000011
 31
0.0
  0
LINE
  5
B62
  8
0
 10
2.165063509461095
 20
1.2500000000000011
 30
0.0
 11
2.1201202403910631
 21
1.324798160583013
 31
0.0
  0
LINE
  5
B63
  8
0
 10
2.1201202403910631
 20
1.324798160583013
 30
0.0
 11
2.0725939313876021
 21
1.3979822586768691
 31
0.0
  0
LINE
  5
B64
  8
0
 10
2.0725939313876021
 20
1.3979822586768691
 30
0.0
 11
2.0225424859373682
 21
1.469463130731183
 31
0.0
  0
LINE
  5
B65
  8
0
 10
2.0225424859373682
 20
1.469463130731183
 30
0.0
 11
1.9700268840168029
 21
1.539153688314147
 31
0.0
  0
LINE
  5
B66
  8
0
 10
1.9700268840168029
 20
1.539153688314147
 30
0.0
 11
1.915111107797443
 21
1.606969024216349
 31
0.0
  0
LINE
  5
B67
  8
0
 10
1.915111107797443
 20
1.606969024216349
 30
0.0
 11
1.8578620636934851
 21
1.6728265158971469
 31
0.0
  0
LINE
  5
B68
  8
0
 10
1.8578620636934851
 20
1.6728265158971469
 30
0.0
 11
1.7983495008466279
 21
1.736645926147494
 31
0.0
  0
LINE
  5
B69
  8
0
 10
1.7983495008466279
 20
1.736645926147494
 30
0.0
 11
1.736645926147492
 21
1.798349500846629
 31
0.0
  0
LINE
  5
B6A
  8
0
 10
1.736645926147492
 20
1.798349500846629
 30
0.0
 11
1.672826515897144
 21
1.8578620636934859
 31
0.0
  0
LINE
  5
B6B
  8
0
 10
1.672826515897144
 20
1.8578620636934859
 30
0.0
 11
1.606969024216347
 21
1.915111107797445
 31
0.0
  0
LINE
  5
B6C
  8
0
 10
1.606969024216347
 20
1.915111107797445
 30
0.0
 11
1.5391536883141439
 21
1.9700268840168069
 31
0.0
  0
LINE
  5
B6D
  8
0
 10
1.5391536883141439
 20
1.9700268840168069
 30
0.0
 11
1.469463130731181
 21
2.0225424859373691
 31
0.0
  0
LINE
  5
B6E
  8
0
 10
1.469463130731181
 20
2.0225424859373691
 30
0.0
 11
1.3979822586768651
 21
2.0725939313876061
 31
0.0
  0
LINE
  5
B6F
  8
0
 10
1.3979822586768651
 20
2.0725939313876061
 30
0.0
 11
1.324798160583011
 21
2.1201202403910648
 31
0.0
  0
LINE
  5
B70
  8
0
 10
1.324798160583011
 20
2.1201202403910648
 30
0.0
 11
1.25
 21
2.1650635094610968
 31
0.0
  0
LINE
  5
B71
  8
0
 10
1.25
 20
2.1650635094610968
 30
0.0
 11
1.173678906964726
 21
2.2073689821473179
 31
0.0
  0
LINE
  5
B72
  8
0
 10
1.173678906964726
 20
2.2073689821473179
 30
0.0
 11
1.095927866972692
 21
2.2469851157479179
 31
0.0
  0
LINE
  5
B73
  8
0
 10
1.095927866972692
 20
2.2469851157479179
 30
0.0
 11
1.016841607689499
 21
2.283863644106503
 31
0.0
  0
LINE
  5
B74
  8
0
 10
1.016841607689499
 20
2.283863644106503
 30
0.0
 11
0.9365164835397781
 21
2.3179596364169699
 31
0.0
  0
LINE
  5
B75
  8
0
 10
0.9365164835397781
 20
2.3179596364169699
 30
0.0
 11
0.8550503583141696
 21
2.3492315519647722
 31
0.0
  0
LINE
  5
B76
  8
0
 10
0.8550503583141696
 20
2.3492315519647722
 30
0.0
 11
0.7725424859373682
 21
2.3776412907378841
 31
0.0
  0
LINE
  5
B77
  8
0
 10
0.7725424859373682
 20
2.3776412907378841
 30
0.0
 11
0.6890933895424958
 21
2.403154239845799
 31
0.0
  0
LINE
  5
B78
  8
0
 10
0.6890933895424958
 20
2.403154239845799
 30
0.0
 11
0.6048047389991674
 21
2.4257393156899911
 31
0.0
  0
LINE
  5
B79
  8
0
 10
0.6048047389991674
 20
2.4257393156899911
 30
0.0
 11
0.5197792270443991
 21
2.4453690018345151
 31
0.0
  0
LINE
  5
B7A
  8
0
 10
0.5197792270443991
 20
2.4453690018345151
 30
0.0
 11
0.4341204441673252
 21
2.4620193825305221
 31
0.0
  0
LINE
  5
B7B
  8
0
 10
0.4341204441673252
 20
2.4620193825305221
 30
0.0
 11
0.3479327524001619
 21
2.4756701718539249
 31
0.0
  0
LINE
  5
B7C
  8
0
 10
0.3479327524001619
 20
2.4756701718539249
 30
0.0
 11
0.2613211581691317
 21
2.4863047384206829
 31
0.0
  0
LINE
  5
B7D
  8
0
 10
0.2613211581691317
 20
2.4863047384206829
 30
0.0
 11
0.1743911843603119
 21
2.493910125649561
 31
0.0
  0
LINE
  5
B7E
  8
0
 10
0.1743911843603119
 20
2.493910125649561
 30
0.0
 11
0.0872487417562518
 21
2.498477067547741
 31
0.0
  0
LINE
  5
B7F
  8
0
 10
0.0872487417562518
 20
2.498477067547741
 30
0.0
 11
-0.0000000000000018
 21
2.5000000000000009
 31
0.0
  0
LINE
  5
B80
  8
0
 10
-2.5
 20
-0.0000000000000018
 30
0.0
 11
-2.4984770675477388
 21
0.08724874175625
 31
0.0
  0
LINE
  5
B81
  8
0
 10
-2.4984770675477388
 20
0.08724874175625
 30
0.0
 11
-2.4939101256495588
 21
0.1743911843603119
 31
0.0
  0
LINE
  5
B82
  8
0
 10
-2.4939101256495588
 20
0.1743911843603119
 30
0.0
 11
-2.486304738420682
 21
0.2613211581691335
 31
0.0
  0
LINE
  5
B83
  8
0
 10
-2.486304738420682
 20
0.2613211581691335
 30
0.0
 11
-2.475670171853924
 21
0.3479327524001636
 31
0.0
  0
LINE
  5
B84
  8
0
 10
-2.475670171853924
 20
0.3479327524001636
 30
0.0
 11
-2.4620193825305181
 21
0.4341204441673252
 31
0.0
  0
LINE
  5
B85
  8
0
 10
-2.4620193825305181
 20
0.4341204441673252
 30
0.0
 11
-2.445369001834512
 21
0.5197792270443973
 31
0.0
  0
LINE
  5
B86
  8
0
 10
-2.445369001834512
 20
0.5197792270443973
 30
0.0
 11
-2.4257393156899889
 21
0.6048047389991691
 31
0.0
  0
LINE
  5
B87
  8
0
 10
-2.4257393156899889
 20
0.6048047389991691
 30
0.0
 11
-2.4031542398457959
 21
0.6890933895424975
 31
0.0
  0
LINE
  5
B88
  8
0
 10
-2.4031542398457959
 20
0.6890933895424975
 30
0.0
 11
-2.3776412907378832
 21
0.7725424859373664
 31
0.0
  0
LINE
  5
B89
  8
0
 10
-2.3776412907378832
 20
0.7725424859373664
 30
0.0
 11
-2.3492315519647708
 21
0.8550503583141715
 31
0.0
  0
LINE
  5
B8A
  8
0
 10
-2.3492315519647708
 20
0.8550503583141715
 30
0.0
 11
-2.317959636416969
 21
0.9365164835397781
 31
0.0
  0
LINE
  5
B8B
  8
0
 10
-2.317959636416969
 20
0.9365164835397781
 30
0.0
 11
-2.2838636441065021
 21
1.0168416076894979
 31
0.0
  0
LINE
  5
B8C
  8
0
 10
-2.2838636441065021
 20
1.0168416076894979
 30
0.0
 11
-2.246985115747917
 21
1.095927866972692
 31
0.0
  0
LINE
  5
B8D
  8
0
 10
-2.246985115747917
 20
1.095927866972692
 30
0.0
 11
-2.207368982147317
 21
1.173678906964726
 31
0.0
  0
LINE
  5
B8E
  8
0
 10
-2.207368982147317
 20
1.173678906964726
 30
0.0
 11
-2.1650635094610959
 21
1.249999999999998
 31
0.0
  0
LINE
  5
B8F
  8
0
 10
-2.1650635094610959
 20
1.249999999999998
 30
0.0
 11
-2.1201202403910648
 21
1.324798160583009
 31
0.0
  0
LINE
  5
B90
  8
0
 10
-2.1201202403910648
 20
1.324798160583009
 30
0.0
 11
-2.072593931387603
 21
1.3979822586768671
 31
0.0
  0
LINE
  5
B91
  8
0
 10
-2.072593931387603
 20
1.3979822586768671
 30
0.0
 11
-2.0225424859373691
 21
1.469463130731179
 31
0.0
  0
LINE
  5
B92
  8
0
 10
-2.0225424859373691
 20
1.469463130731179
 30
0.0
 11
-1.9700268840168049
 21
1.539153688314145
 31
0.0
  0
LINE
  5
B93
  8
0
 10
-1.9700268840168049
 20
1.539153688314145
 30
0.0
 11
-1.9151111077974461
 21
1.606969024216345
 31
0.0
  0
LINE
  5
B94
  8
0
 10
-1.9151111077974461
 20
1.606969024216345
 30
0.0
 11
-1.8578620636934851
 21
1.672826515897144
 31
0.0
  0
LINE
  5
B95
  8
0
 10
-1.8578620636934851
 20
1.672826515897144
 30
0.0
 11
-1.798349500846629
 21
1.73664592614749
 31
0.0
  0
LINE
  5
B96
  8
0
 10
-1.798349500846629
 20
1.73664592614749
 30
0.0
 11
-1.736645926147494
 21
1.7983495008466279
 31
0.0
  0
LINE
  5
B97
  8
0
 10
-1.736645926147494
 20
1.7983495008466279
 30
0.0
 11
-1.672826515897146
 21
1.8578620636934831
 31
0.0
  0
LINE
  5
B98
  8
0
 10
-1.672826515897146
 20
1.8578620636934831
 30
0.0
 11
-1.606969024216349
 21
1.915111107797445
 31
0.0
  0
LINE
  5
B99
  8
0
 10
-1.606969024216349
 20
1.915111107797445
 30
0.0
 11
-1.539153688314145
 21
1.9700268840168049
 31
0.0
  0
LINE
  5
B9A
  8
0
 10
-1.539153688314145
 20
1.9700268840168049
 30
0.0
 11
-1.469463130731183
 21
2.0225424859373691
 31
0.0
  0
LINE
  5
B9B
  8
0
 10
-1.469463130731183
 20
2.0225424859373691
 30
0.0
 11
-1.3979822586768671
 21
2.0725939313876061
 31
0.0
  0
LINE
  5
B9C
  8
0
 10
-1.3979822586768671
 20
2.0725939313876061
 30
0.0
 11
-1.324798160583013
 21
2.1201202403910648
 31
0.0
  0
LINE
  5
B9D
  8
0
 10
-1.324798160583013
 20
2.1201202403910648
 30
0.0
 11
-1.2500000000000011
 21
2.1650635094610968
 31
0.0
  0
LINE
  5
B9E
  8
0
 10
-1.2500000000000011
 20
2.1650635094610968
 30
0.0
 11
-1.1736789069647271
 21
2.207368982147317
 31
0.0
  0
LINE
  5
B9F
  8
0
 10
-1.1736789069647271
 20
2.207368982147317
 30
0.0
 11
-1.095927866972694
 21
2.2469851157479162
 31
0.0
  0
LINE
  5
BA0
  8
0
 10
-1.095927866972694
 20
2.2469851157479162
 30
0.0
 11
-1.016841607689501
 21
2.2838636441065008
 31
0.0
  0
LINE
  5
BA1
  8
0
 10
-1.016841607689501
 20
2.2838636441065008
 30
0.0
 11
-0.9365164835397798
 21
2.3179596364169699
 31
0.0
  0
LINE
  5
BA2
  8
0
 10
-0.9365164835397798
 20
2.3179596364169699
 30
0.0
 11
-0.8550503583141733
 21
2.3492315519647722
 31
0.0
  0
LINE
  5
BA3
  8
0
 10
-0.8550503583141733
 20
2.3492315519647722
 30
0.0
 11
-0.77254248593737
 21
2.3776412907378819
 31
0.0
  0
LINE
  5
BA4
  8
0
 10
-0.77254248593737
 20
2.3776412907378819
 30
0.0
 11
-0.6890933895424994
 21
2.403154239845799
 31
0.0
  0
LINE
  5
BA5
  8
0
 10
-0.6890933895424994
 20
2.403154239845799
 30
0.0
 11
-0.6048047389991709
 21
2.4257393156899889
 31
0.0
  0
LINE
  5
BA6
  8
0
 10
-0.6048047389991709
 20
2.4257393156899889
 30
0.0
 11
-0.5197792270444009
 21
2.4453690018345151
 31
0.0
  0
LINE
  5
BA7
  8
0
 10
-0.5197792270444009
 20
2.4453690018345151
 30
0.0
 11
-0.434120444167327
 21
2.4620193825305221
 31
0.0
  0
LINE
  5
BA8
  8
0
 10
-0.434120444167327
 20
2.4620193825305221
 30
0.0
 11
-0.3479327524001654
 21
2.4756701718539249
 31
0.0
  0
LINE
  5
BA9
  8
0
 10
-0.3479327524001654
 20
2.4756701718539249
 30
0.0
 11
-0.2613211581691353
 21
2.4863047384206829
 31
0.0
  0
LINE
  5
BAA
  8
0
 10
-0.2613211581691353
 20
2.4863047384206829
 30
0.0
 11
-0.1743911843603136
 21
2.493910125649561
 31
0.0
  0
LINE
  5
BAB
  8
0
 10
-0.1743911843603136
 20
2.493910125649561
 30
0.0
 11
-0.0872487417562535
 21
2.498477067547741
 31
0.0
  0
LINE
  5
BAC
  8
0
 10
-0.0872487417562535
 20
2.498477067547741
 30
0.0
 11
0.0
 21
2.5000000000000009
 31
0.0
  0
LINE
  5
BAD
  8
0
 10
2.5
 20
0.0000000000000018
 30
0.0
 11
2.4984770675477388
 21
-0.08724874175625
 31
0.0
  0
LINE
  5
BAE
  8
0
 10
2.4984770675477388
 20
-0.08724874175625
 30
0.0
 11
2.4939101256495588
 21
-0.1743911843603119
 31
0.0
  0
LINE
  5
BAF
  8
0
 10
2.4939101256495588
 20
-0.1743911843603119
 30
0.0
 11
2.4863047384206811
 21
-0.2613211581691317
 31
0.0
  0
LINE
  5
BB0
  8
0
 10
2.4863047384206811
 20
-0.2613211581691317
 30
0.0
 11
2.475670171853924
 21
-0.3479327524001619
 31
0.0
  0
LINE
  5
BB1
  8
0
 10
2.475670171853924
 20
-0.3479327524001619
 30
0.0
 11
2.4620193825305181
 21
-0.4341204441673235
 31
0.0
  0
LINE
  5
BB2
  8
0
 10
2.4620193825305181
 20
-0.4341204441673235
 30
0.0
 11
2.445369001834512
 21
-0.5197792270443973
 31
0.0
  0
LINE
  5
BB3
  8
0
 10
2.445369001834512
 20
-0.5197792270443973
 30
0.0
 11
2.4257393156899889
 21
-0.6048047389991674
 31
0.0
  0
LINE
  5
BB4
  8
0
 10
2.4257393156899889
 20
-0.6048047389991674
 30
0.0
 11
2.4031542398457968
 21
-0.6890933895424958
 31
0.0
  0
LINE
  5
BB5
  8
0
 10
2.4031542398457968
 20
-0.6890933895424958
 30
0.0
 11
2.3776412907378841
 21
-0.7725424859373664
 31
0.0
  0
LINE
  5
BB6
  8
0
 10
2.3776412907378841
 20
-0.7725424859373664
 30
0.0
 11
2.34923155196477
 21
-0.8550503583141696
 31
0.0
  0
LINE
  5
BB7
  8
0
 10
2.34923155196477
 20
-0.8550503583141696
 30
0.0
 11
2.317959636416969
 21
-0.9365164835397781
 31
0.0
  0
LINE
  5
BB8
  8
0
 10
2.317959636416969
 20
-0.9365164835397781
 30
0.0
 11
2.283863644106503
 21
-1.0168416076894979
 31
0.0
  0
LINE
  5
BB9
  8
0
 10
2.283863644106503
 20
-1.0168416076894979
 30
0.0
 11
2.2469851157479179
 21
-1.095927866972692
 31
0.0
  0
LINE
  5
BBA
  8
0
 10
2.2469851157479179
 20
-1.095927866972692
 30
0.0
 11
2.2073689821473179
 21
-1.173678906964724
 31
0.0
  0
LINE
  5
BBB
  8
0
 10
2.2073689821473179
 20
-1.173678906964724
 30
0.0
 11
2.165063509461095
 21
-1.249999999999998
 31
0.0
  0
LINE
  5
BBC
  8
0
 10
2.165063509461095
 20
-1.249999999999998
 30
0.0
 11
2.1201202403910648
 21
-1.324798160583009
 31
0.0
  0
LINE
  5
BBD
  8
0
 10
2.1201202403910648
 20
-1.324798160583009
 30
0.0
 11
2.0725939313876038
 21
-1.3979822586768651
 31
0.0
  0
LINE
  5
BBE
  8
0
 10
2.0725939313876038
 20
-1.3979822586768651
 30
0.0
 11
2.0225424859373682
 21
-1.469463130731179
 31
0.0
  0
LINE
  5
BBF
  8
0
 10
2.0225424859373682
 20
-1.469463130731179
 30
0.0
 11
1.9700268840168049
 21
-1.5391536883141439
 31
0.0
  0
LINE
  5
BC0
  8
0
 10
1.9700268840168049
 20
-1.5391536883141439
 30
0.0
 11
1.9151111077974461
 21
-1.606969024216345
 31
0.0
  0
LINE
  5
BC1
  8
0
 10
1.9151111077974461
 20
-1.606969024216345
 30
0.0
 11
1.8578620636934851
 21
-1.672826515897144
 31
0.0
  0
LINE
  5
BC2
  8
0
 10
1.8578620636934851
 20
-1.672826515897144
 30
0.0
 11
1.798349500846629
 21
-1.73664592614749
 31
0.0
  0
LINE
  5
BC3
  8
0
 10
1.798349500846629
 20
-1.73664592614749
 30
0.0
 11
1.736645926147494
 21
-1.7983495008466259
 31
0.0
  0
LINE
  5
BC4
  8
0
 10
1.736645926147494
 20
-1.7983495008466259
 30
0.0
 11
1.672826515897146
 21
-1.8578620636934831
 31
0.0
  0
LINE
  5
BC5
  8
0
 10
1.672826515897146
 20
-1.8578620636934831
 30
0.0
 11
1.606969024216349
 21
-1.915111107797443
 31
0.0
  0
LINE
  5
BC6
  8
0
 10
1.606969024216349
 20
-1.915111107797443
 30
0.0
 11
1.539153688314145
 21
-1.9700268840168049
 31
0.0
  0
LINE
  5
BC7
  8
0
 10
1.539153688314145
 20
-1.9700268840168049
 30
0.0
 11
1.469463130731183
 21
-2.0225424859373682
 31
0.0
  0
LINE
  5
BC8
  8
0
 10
1.469463130731183
 20
-2.0225424859373682
 30
0.0
 11
1.3979822586768671
 21
-2.0725939313876038
 31
0.0
  0
LINE
  5
BC9
  8
0
 10
1.3979822586768671
 20
-2.0725939313876038
 30
0.0
 11
1.324798160583013
 21
-2.1201202403910631
 31
0.0
  0
LINE
  5
BCA
  8
0
 10
1.324798160583013
 20
-2.1201202403910631
 30
0.0
 11
1.2500000000000011
 21
-2.165063509461095
 31
0.0
  0
LINE
  5
BCB
  8
0
 10
1.2500000000000011
 20
-2.165063509461095
 30
0.0
 11
1.1736789069647271
 21
-2.207368982147317
 31
0.0
  0
LINE
  5
BCC
  8
0
 10
1.1736789069647271
 20
-2.207368982147317
 30
0.0
 11
1.095927866972694
 21
-2.2469851157479162
 31
0.0
  0
LINE
  5
BCD
  8
0
 10
1.095927866972694
 20
-2.2469851157479162
 30
0.0
 11
1.016841607689501
 21
-2.2838636441065008
 31
0.0
  0
LINE
  5
BCE
  8
0
 10
1.016841607689501
 20
-2.2838636441065008
 30
0.0
 11
0.9365164835397798
 21
-2.317959636416969
 31
0.0
  0
LINE
  5
BCF
  8
0
 10
0.9365164835397798
 20
-2.317959636416969
 30
0.0
 11
0.8550503583141733
 21
-2.34923155196477
 31
0.0
  0
LINE
  5
BD0
  8
0
 10
0.8550503583141733
 20
-2.34923155196477
 30
0.0
 11
0.77254248593737
 21
-2.3776412907378819
 31
0.0
  0
LINE
  5
BD1
  8
0
 10
0.77254248593737
 20
-2.3776412907378819
 30
0.0
 11
0.6890933895424994
 21
-2.4031542398457968
 31
0.0
  0
LINE
  5
BD2
  8
0
 10
0.6890933895424994
 20
-2.4031542398457968
 30
0.0
 11
0.6048047389991709
 21
-2.4257393156899889
 31
0.0
  0
LINE
  5
BD3
  8
0
 10
0.6048047389991709
 20
-2.4257393156899889
 30
0.0
 11
0.5197792270444009
 21
-2.4453690018345138
 31
0.0
  0
LINE
  5
BD4
  8
0
 10
0.5197792270444009
 20
-2.4453690018345138
 30
0.0
 11
0.434120444167327
 21
-2.4620193825305199
 31
0.0
  0
LINE
  5
BD5
  8
0
 10
0.434120444167327
 20
-2.4620193825305199
 30
0.0
 11
0.3479327524001654
 21
-2.475670171853924
 31
0.0
  0
LINE
  5
BD6
  8
0
 10
0.3479327524001654
 20
-2.475670171853924
 30
0.0
 11
0.2613211581691353
 21
-2.4863047384206811
 31
0.0
  0
LINE
  5
BD7
  8
0
 10
0.2613211581691353
 20
-2.4863047384206811
 30
0.0
 11
0.1743911843603136
 21
-2.4939101256495588
 31
0.0
  0
LINE
  5
BD8
  8
0
 10
0.1743911843603136
 20
-2.4939101256495588
 30
0.0
 11
0.0872487417562535
 21
-2.4984770675477388
 31
0.0
  0
LINE
  5
BD9
  8
0
 10
0.0872487417562535
 20
-2.4984770675477388
 30
0.0
 11
0.0
 21
-2.5000000000000009
 31
0.0
  0
LINE
  5
BDA
  8
0
 10
-2.5
 20
-0.0000000000000018
 30
0.0
 11
-2.4984770675477388
 21
-0.0872487417562518
 31
0.0
  0
LINE
  5
BDB
  8
0
 10
-2.4984770675477388
 20
-0.0872487417562518
 30
0.0
 11
-2.4939101256495588
 21
-0.1743911843603136
 31
0.0
  0
LINE
  5
BDC
  8
0
 10
-2.4939101256495588
 20
-0.1743911843603136
 30
0.0
 11
-2.486304738420682
 21
-0.2613211581691353
 31
0.0
  0
LINE
  5
BDD
  8
0
 10
-2.486304738420682
 20
-0.2613211581691353
 30
0.0
 11
-2.475670171853924
 21
-0.3479327524001654
 31
0.0
  0
LINE
  5
BDE
  8
0
 10
-2.475670171853924
 20
-0.3479327524001654
 30
0.0
 11
-2.4620193825305181
 21
-0.434120444167327
 31
0.0
  0
LINE
  5
BDF
  8
0
 10
-2.4620193825305181
 20
-0.434120444167327
 30
0.0
 11
-2.445369001834512
 21
-0.5197792270443991
 31
0.0
  0
LINE
  5
BE0
  8
0
 10
-2.445369001834512
 20
-0.5197792270443991
 30
0.0
 11
-2.4257393156899889
 21
-0.6048047389991709
 31
0.0
  0
LINE
  5
BE1
  8
0
 10
-2.4257393156899889
 20
-0.6048047389991709
 30
0.0
 11
-2.403154239845795
 21
-0.6890933895424994
 31
0.0
  0
LINE
  5
BE2
  8
0
 10
-2.403154239845795
 20
-0.6890933895424994
 30
0.0
 11
-2.3776412907378819
 21
-0.7725424859373682
 31
0.0
  0
LINE
  5
BE3
  8
0
 10
-2.3776412907378819
 20
-0.7725424859373682
 30
0.0
 11
-2.34923155196477
 21
-0.8550503583141733
 31
0.0
  0
LINE
  5
BE4
  8
0
 10
-2.34923155196477
 20
-0.8550503583141733
 30
0.0
 11
-2.317959636416969
 21
-0.9365164835397798
 31
0.0
  0
LINE
  5
BE5
  8
0
 10
-2.317959636416969
 20
-0.9365164835397798
 30
0.0
 11
-2.2838636441065008
 21
-1.016841607689499
 31
0.0
  0
LINE
  5
BE6
  8
0
 10
-2.2838636441065008
 20
-1.016841607689499
 30
0.0
 11
-2.2469851157479162
 21
-1.095927866972694
 31
0.0
  0
LINE
  5
BE7
  8
0
 10
-2.2469851157479162
 20
-1.095927866972694
 30
0.0
 11
-2.207368982147317
 21
-1.1736789069647271
 31
0.0
  0
LINE
  5
BE8
  8
0
 10
-2.207368982147317
 20
-1.1736789069647271
 30
0.0
 11
-2.165063509461095
 21
-1.25
 31
0.0
  0
LINE
  5
BE9
  8
0
 10
-2.165063509461095
 20
-1.25
 30
0.0
 11
-2.1201202403910639
 21
-1.324798160583011
 31
0.0
  0
LINE
  5
BEA
  8
0
 10
-2.1201202403910639
 20
-1.324798160583011
 30
0.0
 11
-2.0725939313876021
 21
-1.3979822586768691
 31
0.0
  0
LINE
  5
BEB
  8
0
 10
-2.0725939313876021
 20
-1.3979822586768691
 30
0.0
 11
-2.0225424859373682
 21
-1.469463130731181
 31
0.0
  0
LINE
  5
BEC
  8
0
 10
-2.0225424859373682
 20
-1.469463130731181
 30
0.0
 11
-1.9700268840168029
 21
-1.539153688314147
 31
0.0
  0
LINE
  5
BED
  8
0
 10
-1.9700268840168029
 20
-1.539153688314147
 30
0.0
 11
-1.915111107797445
 21
-1.606969024216347
 31
0.0
  0
LINE
  5
BEE
  8
0
 10
-1.915111107797445
 20
-1.606969024216347
 30
0.0
 11
-1.8578620636934851
 21
-1.672826515897146
 31
0.0
  0
LINE
  5
BEF
  8
0
 10
-1.8578620636934851
 20
-1.672826515897146
 30
0.0
 11
-1.7983495008466279
 21
-1.736645926147492
 31
0.0
  0
LINE
  5
BF0
  8
0
 10
-1.7983495008466279
 20
-1.736645926147492
 30
0.0
 11
-1.736645926147492
 21
-1.798349500846629
 31
0.0
  0
LINE
  5
BF1
  8
0
 10
-1.736645926147492
 20
-1.798349500846629
 30
0.0
 11
-1.672826515897144
 21
-1.8578620636934851
 31
0.0
  0
LINE
  5
BF2
  8
0
 10
-1.672826515897144
 20
-1.8578620636934851
 30
0.0
 11
-1.606969024216347
 21
-1.915111107797445
 31
0.0
  0
LINE
  5
BF3
  8
0
 10
-1.606969024216347
 20
-1.915111107797445
 30
0.0
 11
-1.5391536883141439
 21
-1.9700268840168049
 31
0.0
  0
LINE
  5
BF4
  8
0
 10
-1.5391536883141439
 20
-1.9700268840168049
 30
0.0
 11
-1.469463130731181
 21
-2.0225424859373691
 31
0.0
  0
LINE
  5
BF5
  8
0
 10
-1.469463130731181
 20
-2.0225424859373691
 30
0.0
 11
-1.3979822586768651
 21
-2.0725939313876061
 31
0.0
  0
LINE
  5
BF6
  8
0
 10
-1.3979822586768651
 20
-2.0725939313876061
 30
0.0
 11
-1.324798160583011
 21
-2.1201202403910648
 31
0.0
  0
LINE
  5
BF7
  8
0
 10
-1.324798160583011
 20
-2.1201202403910648
 30
0.0
 11
-1.25
 21
-2.1650635094610968
 31
0.0
  0
LINE
  5
BF8
  8
0
 10
-1.25
 20
-2.1650635094610968
 30
0.0
 11
-1.173678906964726
 21
-2.207368982147317
 31
0.0
  0
LINE
  5
BF9
  8
0
 10
-1.173678906964726
 20
-2.207368982147317
 30
0.0
 11
-1.095927866972692
 21
-2.2469851157479162
 31
0.0
  0
LINE
  5
BFA
  8
0
 10
-1.095927866972692
 20
-2.2469851157479162
 30
0.0
 11
-1.016841607689499
 21
-2.2838636441065008
 31
0.0
  0
LINE
  5
BFB
  8
0
 10
-1.016841607689499
 20
-2.2838636441065008
 30
0.0
 11
-0.9365164835397781
 21
-2.3179596364169699
 31
0.0
  0
LINE
  5
BFC
  8
0
 10
-0.9365164835397781
 20
-2.3179596364169699
 30
0.0
 11
-0.8550503583141696
 21
-2.3492315519647722
 31
0.0
  0
LINE
  5
BFD
  8
0
 10
-0.8550503583141696
 20
-2.3492315519647722
 30
0.0
 11
-0.7725424859373682
 21
-2.3776412907378819
 31
0.0
  0
LINE
  5
BFE
  8
0
 10
-0.7725424859373682
 20
-2.3776412907378819
 30
0.0
 11
-0.6890933895424958
 21
-2.403154239845799
 31
0.0
  0
LINE
  5
BFF
  8
0
 10
-0.6890933895424958
 20
-2.403154239845799
 30
0.0
 11
-0.6048047389991674
 21
-2.4257393156899889
 31
0.0
  0
LINE
  5
C00
  8
0
 10
-0.6048047389991674
 20
-2.4257393156899889
 30
0.0
 11
-0.5197792270443991
 21
-2.4453690018345151
 31
0.0
  0
LINE
  5
C01
  8
0
 10
-0.5197792270443991
 20
-2.4453690018345151
 30
0.0
 11
-0.4341204441673252
 21
-2.4620193825305221
 31
0.0
  0
LINE
  5
C02
  8
0
 10
-0.4341204441673252
 20
-2.4620193825305221
 30
0.0
 11
-0.3479327524001619
 21
-2.4756701718539249
 31
0.0
  0
LINE
  5
C03
  8
0
 10
-0.3479327524001619
 20
-2.4756701718539249
 30
0.0
 11
-0.2613211581691317
 21
-2.4863047384206829
 31
0.0
  0
LINE
  5
C04
  8
0
 10
-0.2613211581691317
 20
-2.4863047384206829
 30
0.0
 11
-0.1743911843603119
 21
-2.493910125649561
 31
0.0
  0
LINE
  5
C05
  8
0
 10
-0.1743911843603119
 20
-2.493910125649561
 30
0.0
 11
-0.0872487417562518
 21
-2.498477067547741
 31
0.0
  0
LINE
  5
C06
  8
0
 10
-0.0872487417562518
 20
-2.498477067547741
 30
0.0
 11
0.0000000000000018
 21
-2.5000000000000009
 31
0.0
  0
LINE
  5
C09
  8
0
 10
0.0
 20
0.0
 30
0.0
 11
2.4999999999999978
 21
0.0
 31
0.0
  0
LINE
  5
C0A
  8
0
 10
0.0
 20
0.0
 30
0.0
 11
-2.4999999999999991
 21
-0.0000000000000018
 31
0.0
  0
LINE
  5
D63
  8
0
 10
-2.5000000000000009
 20
8.6602540378443837
 30
0.0
 11
-2.5015229324522621
 21
8.5730052960881356
 31
0.0
  0
LINE
  5
D64
  8
0
 10
-2.5015229324522621
 20
8.5730052960881356
 30
0.0
 11
-2.5060898743504421
 21
8.4858628534840737
 31
0.0
  0
LINE
  5
D65
  8
0
 10
-2.5060898743504421
 20
8.4858628534840737
 30
0.0
 11
-2.5136952615793189
 21
8.398932879675252
 31
0.0
  0
LINE
  5
D66
  8
0
 10
-2.5136952615793189
 20
8.398932879675252
 30
0.0
 11
-2.524329828146076
 21
8.3123212854442219
 31
0.0
  0
LINE
  5
D67
  8
0
 10
-2.524329828146076
 20
8.3123212854442219
 30
0.0
 11
-2.5379806174694819
 21
8.2261335936770603
 31
0.0
  0
LINE
  5
D68
  8
0
 10
-2.5379806174694819
 20
8.2261335936770603
 30
0.0
 11
-2.5546309981654889
 21
8.1404748107999882
 31
0.0
  0
LINE
  5
D69
  8
0
 10
-2.5546309981654889
 20
8.1404748107999882
 30
0.0
 11
-2.5742606843100111
 21
8.0554492988452164
 31
0.0
  0
LINE
  5
D6A
  8
0
 10
-2.5742606843100111
 20
8.0554492988452164
 30
0.0
 11
-2.596845760154205
 21
7.9711606483018871
 31
0.0
  0
LINE
  5
D6B
  8
0
 10
-2.596845760154205
 20
7.9711606483018871
 30
0.0
 11
-2.622358709262119
 21
7.8877115519070191
 31
0.0
  0
LINE
  5
D6C
  8
0
 10
-2.622358709262119
 20
7.8877115519070191
 30
0.0
 11
-2.6507684480352309
 21
7.8052036795302131
 31
0.0
  0
LINE
  5
D6D
  8
0
 10
-2.6507684480352309
 20
7.8052036795302131
 30
0.0
 11
-2.6820403635830332
 21
7.7237375543046074
 31
0.0
  0
LINE
  5
D6E
  8
0
 10
-2.6820403635830332
 20
7.7237375543046074
 30
0.0
 11
-2.7161363558935001
 21
7.6434124301548829
 31
0.0
  0
LINE
  5
D6F
  8
0
 10
-2.7161363558935001
 20
7.6434124301548829
 30
0.0
 11
-2.7530148842520852
 21
7.5643261708716887
 31
0.0
  0
LINE
  5
D70
  8
0
 10
-2.7530148842520852
 20
7.5643261708716887
 30
0.0
 11
-2.7926310178526839
 21
7.4865751308796593
 31
0.0
  0
LINE
  5
D71
  8
0
 10
-2.7926310178526839
 20
7.4865751308796593
 30
0.0
 11
-2.8349364905389058
 21
7.4102540378443829
 31
0.0
  0
LINE
  5
D72
  8
0
 10
-2.8349364905389058
 20
7.4102540378443829
 30
0.0
 11
-2.8798797596089369
 21
7.3354558772613743
 31
0.0
  0
LINE
  5
D73
  8
0
 10
-2.8798797596089369
 20
7.3354558772613743
 30
0.0
 11
-2.9274060686123979
 21
7.2622717791675182
 31
0.0
  0
LINE
  5
D74
  8
0
 10
-2.9274060686123979
 20
7.2622717791675182
 30
0.0
 11
-2.9774575140626331
 21
7.190790907113203
 31
0.0
  0
LINE
  5
D75
  8
0
 10
-2.9774575140626331
 20
7.190790907113203
 30
0.0
 11
-3.0299731159831969
 21
7.1211003495302387
 31
0.0
  0
LINE
  5
D76
  8
0
 10
-3.0299731159831969
 20
7.1211003495302387
 30
0.0
 11
-3.084888892202557
 21
7.0532850136280381
 31
0.0
  0
LINE
  5
D77
  8
0
 10
-3.084888892202557
 20
7.0532850136280381
 30
0.0
 11
-3.1421379363065172
 21
6.9874275219472386
 31
0.0
  0
LINE
  5
D78
  8
0
 10
-3.1421379363065172
 20
6.9874275219472386
 30
0.0
 11
-3.2016504991533732
 21
6.9236081116968933
 31
0.0
  0
LINE
  5
D79
  8
0
 10
-3.2016504991533732
 20
6.9236081116968933
 30
0.0
 11
-3.2633540738525091
 21
6.8619045369977574
 31
0.0
  0
LINE
  5
D7A
  8
0
 10
-3.2633540738525091
 20
6.8619045369977574
 30
0.0
 11
-3.3271734841028571
 21
6.8023919741508996
 31
0.0
  0
LINE
  5
D7B
  8
0
 10
-3.3271734841028571
 20
6.8023919741508996
 30
0.0
 11
-3.3930309757836539
 21
6.7451429300469421
 31
0.0
  0
LINE
  5
D7C
  8
0
 10
-3.3930309757836539
 20
6.7451429300469421
 30
0.0
 11
-3.4608463116858572
 21
6.6902271538275802
 31
0.0
  0
LINE
  5
D7D
  8
0
 10
-3.4608463116858572
 20
6.6902271538275802
 30
0.0
 11
-3.5305368692688202
 21
6.6377115519070173
 31
0.0
  0
LINE
  5
D7E
  8
0
 10
-3.5305368692688202
 20
6.6377115519070173
 30
0.0
 11
-3.6020177413231349
 21
6.5876601064567799
 31
0.0
  0
LINE
  5
D7F
  8
0
 10
-3.6020177413231349
 20
6.5876601064567799
 30
0.0
 11
-3.6752018394169901
 21
6.540133797453322
 31
0.0
  0
LINE
  5
D80
  8
0
 10
-3.6752018394169901
 20
6.540133797453322
 30
0.0
 11
-3.7500000000000022
 21
6.49519052838329
 31
0.0
  0
LINE
  5
D81
  8
0
 10
-3.7500000000000022
 20
6.49519052838329
 30
0.0
 11
-3.8263210930352751
 21
6.4528850556970676
 31
0.0
  0
LINE
  5
D82
  8
0
 10
-3.8263210930352751
 20
6.4528850556970676
 30
0.0
 11
-3.9040721330273089
 21
6.413268922096468
 31
0.0
  0
LINE
  5
D83
  8
0
 10
-3.9040721330273089
 20
6.413268922096468
 30
0.0
 11
-3.983158392310501
 21
6.376390393737883
 31
0.0
  0
LINE
  5
D84
  8
0
 10
-3.983158392310501
 20
6.376390393737883
 30
0.0
 11
-4.0634835164602228
 21
6.3422944014274156
 31
0.0
  0
LINE
  5
D85
  8
0
 10
-4.0634835164602228
 20
6.3422944014274156
 30
0.0
 11
-4.1449496416858311
 21
6.3110224858796151
 31
0.0
  0
LINE
  5
D86
  8
0
 10
-4.1449496416858311
 20
6.3110224858796151
 30
0.0
 11
-4.2274575140626327
 21
6.2826127471065032
 31
0.0
  0
LINE
  5
D87
  8
0
 10
-4.2274575140626327
 20
6.2826127471065032
 30
0.0
 11
-4.3109066104575051
 21
6.2570997979985883
 31
0.0
  0
LINE
  5
D88
  8
0
 10
-4.3109066104575051
 20
6.2570997979985883
 30
0.0
 11
-4.3951952610008327
 21
6.2345147221543948
 31
0.0
  0
LINE
  5
D89
  8
0
 10
-4.3951952610008327
 20
6.2345147221543948
 30
0.0
 11
-4.4802207729556027
 21
6.2148850360098713
 31
0.0
  0
LINE
  5
D8A
  8
0
 10
-4.4802207729556027
 20
6.2148850360098713
 30
0.0
 11
-4.5658795558326757
 21
6.1982346553138639
 31
0.0
  0
LINE
  5
D8B
  8
0
 10
-4.5658795558326757
 20
6.1982346553138639
 30
0.0
 11
-4.652067247599839
 21
6.1845838659904606
 31
0.0
  0
LINE
  5
D8C
  8
0
 10
-4.652067247599839
 20
6.1845838659904606
 30
0.0
 11
-4.7386788418308692
 21
6.1739492994237031
 31
0.0
  0
LINE
  5
D8D
  8
0
 10
-4.7386788418308692
 20
6.1739492994237031
 30
0.0
 11
-4.825608815639689
 21
6.1663439121948249
 31
0.0
  0
LINE
  5
D8E
  8
0
 10
-4.825608815639689
 20
6.1663439121948249
 30
0.0
 11
-4.91275125824375
 21
6.1617769702966463
 31
0.0
  0
LINE
  5
D8F
  8
0
 10
-4.91275125824375
 20
6.1617769702966463
 30
0.0
 11
-5.0000000000000027
 21
6.1602540378443846
 31
0.0
  0
LINE
  5
D90
  8
0
 10
-7.5000000000000009
 20
8.6602540378443873
 30
0.0
 11
-7.498477067547741
 21
8.5730052960881356
 31
0.0
  0
LINE
  5
D91
  8
0
 10
-7.498477067547741
 20
8.5730052960881356
 30
0.0
 11
-7.4939101256495606
 21
8.4858628534840737
 31
0.0
  0
LINE
  5
D92
  8
0
 10
-7.4939101256495606
 20
8.4858628534840737
 30
0.0
 11
-7.4863047384206842
 21
8.398932879675252
 31
0.0
  0
LINE
  5
D93
  8
0
 10
-7.4863047384206842
 20
8.398932879675252
 30
0.0
 11
-7.4756701718539258
 21
8.3123212854442219
 31
0.0
  0
LINE
  5
D94
  8
0
 10
-7.4756701718539258
 20
8.3123212854442219
 30
0.0
 11
-7.4620193825305199
 21
8.2261335936770639
 31
0.0
  0
LINE
  5
D95
  8
0
 10
-7.4620193825305199
 20
8.2261335936770639
 30
0.0
 11
-7.4453690018345142
 21
8.1404748107999882
 31
0.0
  0
LINE
  5
D96
  8
0
 10
-7.4453690018345142
 20
8.1404748107999882
 30
0.0
 11
-7.4257393156899907
 21
8.0554492988452182
 31
0.0
  0
LINE
  5
D97
  8
0
 10
-7.4257393156899907
 20
8.0554492988452182
 30
0.0
 11
-7.4031542398457981
 21
7.9711606483018906
 31
0.0
  0
LINE
  5
D98
  8
0
 10
-7.4031542398457981
 20
7.9711606483018906
 30
0.0
 11
-7.3776412907378841
 21
7.8877115519070191
 31
0.0
  0
LINE
  5
D99
  8
0
 10
-7.3776412907378841
 20
7.8877115519070191
 30
0.0
 11
-7.3492315519647731
 21
7.8052036795302167
 31
0.0
  0
LINE
  5
D9A
  8
0
 10
-7.3492315519647731
 20
7.8052036795302167
 30
0.0
 11
-7.3179596364169699
 21
7.7237375543046074
 31
0.0
  0
LINE
  5
D9B
  8
0
 10
-7.3179596364169699
 20
7.7237375543046074
 30
0.0
 11
-7.2838636441065043
 21
7.64341243015489
 31
0.0
  0
LINE
  5
D9C
  8
0
 10
-7.2838636441065043
 20
7.64341243015489
 30
0.0
 11
-7.2469851157479193
 21
7.5643261708716958
 31
0.0
  0
LINE
  5
D9D
  8
0
 10
-7.2469851157479193
 20
7.5643261708716958
 30
0.0
 11
-7.2073689821473188
 21
7.4865751308796593
 31
0.0
  0
LINE
  5
D9E
  8
0
 10
-7.2073689821473188
 20
7.4865751308796593
 30
0.0
 11
-7.1650635094610982
 21
7.41025403784439
 31
0.0
  0
LINE
  5
D9F
  8
0
 10
-7.1650635094610982
 20
7.41025403784439
 30
0.0
 11
-7.1201202403910671
 21
7.3354558772613769
 31
0.0
  0
LINE
  5
DA0
  8
0
 10
-7.1201202403910671
 20
7.3354558772613769
 30
0.0
 11
-7.0725939313876047
 21
7.2622717791675191
 31
0.0
  0
LINE
  5
DA1
  8
0
 10
-7.0725939313876047
 20
7.2622717791675191
 30
0.0
 11
-7.02254248593737
 21
7.1907909071132066
 31
0.0
  0
LINE
  5
DA2
  8
0
 10
-7.02254248593737
 20
7.1907909071132066
 30
0.0
 11
-6.9700268840168071
 21
7.1211003495302414
 31
0.0
  0
LINE
  5
DA3
  8
0
 10
-6.9700268840168071
 20
7.1211003495302414
 30
0.0
 11
-6.915111107797447
 21
7.0532850136280407
 31
0.0
  0
LINE
  5
DA4
  8
0
 10
-6.915111107797447
 20
7.0532850136280407
 30
0.0
 11
-6.8578620636934868
 21
6.987427521947243
 31
0.0
  0
LINE
  5
DA5
  8
0
 10
-6.8578620636934868
 20
6.987427521947243
 30
0.0
 11
-6.7983495008466308
 21
6.9236081116968959
 31
0.0
  0
LINE
  5
DA6
  8
0
 10
-6.7983495008466308
 20
6.9236081116968959
 30
0.0
 11
-6.7366459261474949
 21
6.8619045369977592
 31
0.0
  0
LINE
  5
DA7
  8
0
 10
-6.7366459261474949
 20
6.8619045369977592
 30
0.0
 11
-6.6728265158971469
 21
6.802391974150904
 31
0.0
  0
LINE
  5
DA8
  8
0
 10
-6.6728265158971469
 20
6.802391974150904
 30
0.0
 11
-6.606969024216351
 21
6.7451429300469421
 31
0.0
  0
LINE
  5
DA9
  8
0
 10
-6.606969024216351
 20
6.7451429300469421
 30
0.0
 11
-6.5391536883141468
 21
6.690227153827581
 31
0.0
  0
LINE
  5
DAA
  8
0
 10
-6.5391536883141468
 20
6.690227153827581
 30
0.0
 11
-6.4694631307311852
 21
6.6377115519070173
 31
0.0
  0
LINE
  5
DAB
  8
0
 10
-6.4694631307311852
 20
6.6377115519070173
 30
0.0
 11
-6.3979822586768691
 21
6.5876601064567799
 31
0.0
  0
LINE
  5
DAC
  8
0
 10
-6.3979822586768691
 20
6.5876601064567799
 30
0.0
 11
-6.3247981605830139
 21
6.540133797453322
 31
0.0
  0
LINE
  5
DAD
  8
0
 10
-6.3247981605830139
 20
6.540133797453322
 30
0.0
 11
-6.2500000000000027
 21
6.49519052838329
 31
0.0
  0
LINE
  5
DAE
  8
0
 10
-6.2500000000000027
 20
6.49519052838329
 30
0.0
 11
-6.1736789069647289
 21
6.4528850556970703
 31
0.0
  0
LINE
  5
DAF
  8
0
 10
-6.1736789069647289
 20
6.4528850556970703
 30
0.0
 11
-6.0959278669726951
 21
6.4132689220964698
 31
0.0
  0
LINE
  5
DB0
  8
0
 10
-6.0959278669726951
 20
6.4132689220964698
 30
0.0
 11
-6.0168416076895026
 21
6.3763903937378847
 31
0.0
  0
LINE
  5
DB1
  8
0
 10
-6.0168416076895026
 20
6.3763903937378847
 30
0.0
 11
-5.9365164835397817
 21
6.3422944014274156
 31
0.0
  0
LINE
  5
DB2
  8
0
 10
-5.9365164835397817
 20
6.3422944014274156
 30
0.0
 11
-5.8550503583141751
 21
6.3110224858796151
 31
0.0
  0
LINE
  5
DB3
  8
0
 10
-5.8550503583141751
 20
6.3110224858796151
 30
0.0
 11
-5.7725424859373708
 21
6.2826127471065041
 31
0.0
  0
LINE
  5
DB4
  8
0
 10
-5.7725424859373708
 20
6.2826127471065041
 30
0.0
 11
-5.6890933895425011
 21
6.2570997979985883
 31
0.0
  0
LINE
  5
DB5
  8
0
 10
-5.6890933895425011
 20
6.2570997979985883
 30
0.0
 11
-5.6048047389991718
 21
6.2345147221543966
 31
0.0
  0
LINE
  5
DB6
  8
0
 10
-5.6048047389991718
 20
6.2345147221543966
 30
0.0
 11
-5.5197792270444017
 21
6.2148850360098713
 31
0.0
  0
LINE
  5
DB7
  8
0
 10
-5.5197792270444017
 20
6.2148850360098713
 30
0.0
 11
-5.4341204441673279
 21
6.1982346553138639
 31
0.0
  0
LINE
  5
DB8
  8
0
 10
-5.4341204441673279
 20
6.1982346553138639
 30
0.0
 11
-5.3479327524001672
 21
6.1845838659904606
 31
0.0
  0
LINE
  5
DB9
  8
0
 10
-5.3479327524001672
 20
6.1845838659904606
 30
0.0
 11
-5.261321158169137
 21
6.1739492994237031
 31
0.0
  0
LINE
  5
DBA
  8
0
 10
-5.261321158169137
 20
6.1739492994237031
 30
0.0
 11
-5.1743911843603154
 21
6.1663439121948249
 31
0.0
  0
LINE
  5
DBB
  8
0
 10
-5.1743911843603154
 20
6.1663439121948249
 30
0.0
 11
-5.0872487417562553
 21
6.1617769702966463
 31
0.0
  0
LINE
  5
DBC
  8
0
 10
-5.0872487417562553
 20
6.1617769702966463
 30
0.0
 11
-5.0000000000000018
 21
6.1602540378443846
 31
0.0
  0
LINE
  5
DBD
  8
0
 10
-2.5000000000000009
 20
8.6602540378443837
 30
0.0
 11
-2.5015229324522621
 21
8.747502779600639
 31
0.0
  0
LINE
  5
DBE
  8
0
 10
-2.5015229324522621
 20
8.747502779600639
 30
0.0
 11
-2.5060898743504421
 21
8.8346452222046992
 31
0.0
  0
LINE
  5
DBF
  8
0
 10
-2.5060898743504421
 20
8.8346452222046992
 30
0.0
 11
-2.5136952615793189
 21
8.921575196013519
 31
0.0
  0
LINE
  5
DC0
  8
0
 10
-2.5136952615793189
 20
8.921575196013519
 30
0.0
 11
-2.524329828146076
 21
9.0081867902445492
 31
0.0
  0
LINE
  5
DC1
  8
0
 10
-2.524329828146076
 20
9.0081867902445492
 30
0.0
 11
-2.5379806174694819
 21
9.0943744820117107
 31
0.0
  0
LINE
  5
DC2
  8
0
 10
-2.5379806174694819
 20
9.0943744820117107
 30
0.0
 11
-2.5546309981654889
 21
9.1800332648887863
 31
0.0
  0
LINE
  5
DC3
  8
0
 10
-2.5546309981654889
 20
9.1800332648887863
 30
0.0
 11
-2.5742606843100111
 21
9.2650587768435546
 31
0.0
  0
LINE
  5
DC4
  8
0
 10
-2.5742606843100111
 20
9.2650587768435546
 30
0.0
 11
-2.596845760154205
 21
9.3493474273868831
 31
0.0
  0
LINE
  5
DC5
  8
0
 10
-2.596845760154205
 20
9.3493474273868831
 30
0.0
 11
-2.6223587092621181
 21
9.4327965237817555
 31
0.0
  0
LINE
  5
DC6
  8
0
 10
-2.6223587092621181
 20
9.4327965237817555
 30
0.0
 11
-2.65076844803523
 21
9.5153043961585571
 31
0.0
  0
LINE
  5
DC7
  8
0
 10
-2.65076844803523
 20
9.5153043961585571
 30
0.0
 11
-2.6820403635830319
 21
9.5967705213841672
 31
0.0
  0
LINE
  5
DC8
  8
0
 10
-2.6820403635830319
 20
9.5967705213841672
 30
0.0
 11
-2.7161363558934992
 21
9.6770956455338837
 31
0.0
  0
LINE
  5
DC9
  8
0
 10
-2.7161363558934992
 20
9.6770956455338837
 30
0.0
 11
-2.7530148842520838
 21
9.7561819048170761
 31
0.0
  0
LINE
  5
DCA
  8
0
 10
-2.7530148842520838
 20
9.7561819048170761
 30
0.0
 11
-2.792631017852683
 21
9.8339329448091117
 31
0.0
  0
LINE
  5
DCB
  8
0
 10
-2.792631017852683
 20
9.8339329448091117
 30
0.0
 11
-2.834936490538905
 21
9.9102540378443837
 31
0.0
  0
LINE
  5
DCC
  8
0
 10
-2.834936490538905
 20
9.9102540378443837
 30
0.0
 11
-2.8798797596089361
 21
9.9850521984273986
 31
0.0
  0
LINE
  5
DCD
  8
0
 10
-2.8798797596089361
 20
9.9850521984273986
 30
0.0
 11
-2.927406068612397
 21
10.0582362965212493
 31
0.0
  0
LINE
  5
DCE
  8
0
 10
-2.927406068612397
 20
10.0582362965212493
 30
0.0
 11
-2.9774575140626318
 21
10.1297171685755707
 31
0.0
  0
LINE
  5
DCF
  8
0
 10
-2.9774575140626318
 20
10.1297171685755707
 30
0.0
 11
-3.029973115983196
 21
10.1994077261585296
 31
0.0
  0
LINE
  5
DD0
  8
0
 10
-3.029973115983196
 20
10.1994077261585296
 30
0.0
 11
-3.0848888922025548
 21
10.2672230620607294
 31
0.0
  0
LINE
  5
DD1
  8
0
 10
-3.0848888922025548
 20
10.2672230620607294
 30
0.0
 11
-3.1421379363065149
 21
10.3330805537415298
 31
0.0
  0
LINE
  5
DD2
  8
0
 10
-3.1421379363065149
 20
10.3330805537415298
 30
0.0
 11
-3.201650499153371
 21
10.3968999639918795
 31
0.0
  0
LINE
  5
DD3
  8
0
 10
-3.201650499153371
 20
10.3968999639918795
 30
0.0
 11
-3.2633540738525069
 21
10.4586035386910101
 31
0.0
  0
LINE
  5
DD4
  8
0
 10
-3.2633540738525069
 20
10.4586035386910101
 30
0.0
 11
-3.3271734841028549
 21
10.5181161015378706
 31
0.0
  0
LINE
  5
DD5
  8
0
 10
-3.3271734841028549
 20
10.5181161015378706
 30
0.0
 11
-3.3930309757836521
 21
10.5753651456418307
 31
0.0
  0
LINE
  5
DD6
  8
0
 10
-3.3930309757836521
 20
10.5753651456418307
 30
0.0
 11
-3.460846311685855
 21
10.6302809218611891
 31
0.0
  0
LINE
  5
DD7
  8
0
 10
-3.460846311685855
 20
10.6302809218611891
 30
0.0
 11
-3.5305368692688179
 21
10.6827965237817502
 31
0.0
  0
LINE
  5
DD8
  8
0
 10
-3.5305368692688179
 20
10.6827965237817502
 30
0.0
 11
-3.602017741323134
 21
10.7328479692319902
 31
0.0
  0
LINE
  5
DD9
  8
0
 10
-3.602017741323134
 20
10.7328479692319902
 30
0.0
 11
-3.6752018394169879
 21
10.7803742782354508
 31
0.0
  0
LINE
  5
DDA
  8
0
 10
-3.6752018394169879
 20
10.7803742782354508
 30
0.0
 11
-3.75
 21
10.8253175473054792
 31
0.0
  0
LINE
  5
DDB
  8
0
 10
-3.75
 20
10.8253175473054792
 30
0.0
 11
-3.8263210930352729
 21
10.8676230199917008
 31
0.0
  0
LINE
  5
DDC
  8
0
 10
-3.8263210930352729
 20
10.8676230199917008
 30
0.0
 11
-3.9040721330273072
 21
10.9072391535923003
 31
0.0
  0
LINE
  5
DDD
  8
0
 10
-3.9040721330273072
 20
10.9072391535923003
 30
0.0
 11
-3.9831583923104992
 21
10.9441176819508801
 31
0.0
  0
LINE
  5
DDE
  8
0
 10
-3.9831583923104992
 20
10.9441176819508801
 30
0.0
 11
-4.0634835164602201
 21
10.9782136742613492
 31
0.0
  0
LINE
  5
DDF
  8
0
 10
-4.0634835164602201
 20
10.9782136742613492
 30
0.0
 11
-4.1449496416858276
 21
11.0094855898091595
 31
0.0
  0
LINE
  5
DE0
  8
0
 10
-4.1449496416858276
 20
11.0094855898091595
 30
0.0
 11
-4.2274575140626309
 21
11.0378953285822696
 31
0.0
  0
LINE
  5
DE1
  8
0
 10
-4.2274575140626309
 20
11.0378953285822696
 30
0.0
 11
-4.3109066104575016
 21
11.0634082776901792
 31
0.0
  0
LINE
  5
DE2
  8
0
 10
-4.3109066104575016
 20
11.0634082776901792
 30
0.0
 11
-4.39519526100083
 21
11.0859933535343806
 31
0.0
  0
LINE
  5
DE3
  8
0
 10
-4.39519526100083
 20
11.0859933535343806
 30
0.0
 11
-4.4802207729556001
 21
11.1056230396788997
 31
0.0
  0
LINE
  5
DE4
  8
0
 10
-4.4802207729556001
 20
11.1056230396788997
 30
0.0
 11
-4.5658795558326739
 21
11.1222734203749098
 31
0.0
  0
LINE
  5
DE5
  8
0
 10
-4.5658795558326739
 20
11.1222734203749098
 30
0.0
 11
-4.6520672475998364
 21
11.1359242096983095
 31
0.0
  0
LINE
  5
DE6
  8
0
 10
-4.6520672475998364
 20
11.1359242096983095
 30
0.0
 11
-4.7386788418308656
 21
11.1465587762650706
 31
0.0
  0
LINE
  5
DE7
  8
0
 10
-4.7386788418308656
 20
11.1465587762650706
 30
0.0
 11
-4.8256088156396881
 21
11.1541641634939399
 31
0.0
  0
LINE
  5
DE8
  8
0
 10
-4.8256088156396881
 20
11.1541641634939399
 30
0.0
 11
-4.9127512582437483
 21
11.1587311053921301
 31
0.0
  0
LINE
  5
DE9
  8
0
 10
-4.9127512582437483
 20
11.1587311053921301
 30
0.0
 11
-5.0
 21
11.1602540378443909
 31
0.0
  0
LINE
  5
DEA
  8
0
 10
-7.5000000000000009
 20
8.6602540378443873
 30
0.0
 11
-7.498477067547741
 21
8.747502779600639
 31
0.0
  0
LINE
  5
DEB
  8
0
 10
-7.498477067547741
 20
8.747502779600639
 30
0.0
 11
-7.4939101256495606
 21
8.8346452222046992
 31
0.0
  0
LINE
  5
DEC
  8
0
 10
-7.4939101256495606
 20
8.8346452222046992
 30
0.0
 11
-7.4863047384206842
 21
8.9215751960135226
 31
0.0
  0
LINE
  5
DED
  8
0
 10
-7.4863047384206842
 20
8.9215751960135226
 30
0.0
 11
-7.4756701718539258
 21
9.0081867902445527
 31
0.0
  0
LINE
  5
DEE
  8
0
 10
-7.4756701718539258
 20
9.0081867902445527
 30
0.0
 11
-7.4620193825305199
 21
9.0943744820117143
 31
0.0
  0
LINE
  5
DEF
  8
0
 10
-7.4620193825305199
 20
9.0943744820117143
 30
0.0
 11
-7.4453690018345142
 21
9.1800332648887863
 31
0.0
  0
LINE
  5
DF0
  8
0
 10
-7.4453690018345142
 20
9.1800332648887863
 30
0.0
 11
-7.4257393156899907
 21
9.2650587768435582
 31
0.0
  0
LINE
  5
DF1
  8
0
 10
-7.4257393156899907
 20
9.2650587768435582
 30
0.0
 11
-7.4031542398457972
 21
9.3493474273868866
 31
0.0
  0
LINE
  5
DF2
  8
0
 10
-7.4031542398457972
 20
9.3493474273868866
 30
0.0
 11
-7.3776412907378841
 21
9.4327965237817555
 31
0.0
  0
LINE
  5
DF3
  8
0
 10
-7.3776412907378841
 20
9.4327965237817555
 30
0.0
 11
-7.3492315519647722
 21
9.5153043961585606
 31
0.0
  0
LINE
  5
DF4
  8
0
 10
-7.3492315519647722
 20
9.5153043961585606
 30
0.0
 11
-7.3179596364169699
 21
9.5967705213841672
 31
0.0
  0
LINE
  5
DF5
  8
0
 10
-7.3179596364169699
 20
9.5967705213841672
 30
0.0
 11
-7.2838636441065034
 21
9.6770956455338872
 31
0.0
  0
LINE
  5
DF6
  8
0
 10
-7.2838636441065034
 20
9.6770956455338872
 30
0.0
 11
-7.2469851157479184
 21
9.7561819048170815
 31
0.0
  0
LINE
  5
DF7
  8
0
 10
-7.2469851157479184
 20
9.7561819048170815
 30
0.0
 11
-7.2073689821473179
 21
9.8339329448091153
 31
0.0
  0
LINE
  5
DF8
  8
0
 10
-7.2073689821473179
 20
9.8339329448091153
 30
0.0
 11
-7.1650635094610973
 21
9.9102540378443873
 31
0.0
  0
LINE
  5
DF9
  8
0
 10
-7.1650635094610973
 20
9.9102540378443873
 30
0.0
 11
-7.1201202403910662
 21
9.9850521984273986
 31
0.0
  0
LINE
  5
DFA
  8
0
 10
-7.1201202403910662
 20
9.9850521984273986
 30
0.0
 11
-7.0725939313876038
 21
10.0582362965212493
 31
0.0
  0
LINE
  5
DFB
  8
0
 10
-7.0725939313876038
 20
10.0582362965212493
 30
0.0
 11
-7.0225424859373691
 21
10.1297171685755707
 31
0.0
  0
LINE
  5
DFC
  8
0
 10
-7.0225424859373691
 20
10.1297171685755707
 30
0.0
 11
-6.9700268840168054
 21
10.1994077261585296
 31
0.0
  0
LINE
  5
DFD
  8
0
 10
-6.9700268840168054
 20
10.1994077261585296
 30
0.0
 11
-6.9151111077974461
 21
10.2672230620607294
 31
0.0
  0
LINE
  5
DFE
  8
0
 10
-6.9151111077974461
 20
10.2672230620607294
 30
0.0
 11
-6.8578620636934859
 21
10.3330805537415298
 31
0.0
  0
LINE
  5
DFF
  8
0
 10
-6.8578620636934859
 20
10.3330805537415298
 30
0.0
 11
-6.798349500846629
 21
10.3968999639918795
 31
0.0
  0
LINE
  5
E00
  8
0
 10
-6.798349500846629
 20
10.3968999639918795
 30
0.0
 11
-6.736645926147494
 21
10.4586035386910208
 31
0.0
  0
LINE
  5
E01
  8
0
 10
-6.736645926147494
 20
10.4586035386910208
 30
0.0
 11
-6.672826515897146
 21
10.5181161015378706
 31
0.0
  0
LINE
  5
E02
  8
0
 10
-6.672826515897146
 20
10.5181161015378706
 30
0.0
 11
-6.6069690242163492
 21
10.5753651456418307
 31
0.0
  0
LINE
  5
E03
  8
0
 10
-6.6069690242163492
 20
10.5753651456418307
 30
0.0
 11
-6.539153688314145
 21
10.6302809218611891
 31
0.0
  0
LINE
  5
E04
  8
0
 10
-6.539153688314145
 20
10.6302809218611891
 30
0.0
 11
-6.4694631307311834
 21
10.6827965237817502
 31
0.0
  0
LINE
  5
E05
  8
0
 10
-6.4694631307311834
 20
10.6827965237817502
 30
0.0
 11
-6.3979822586768673
 21
10.7328479692319902
 31
0.0
  0
LINE
  5
E06
  8
0
 10
-6.3979822586768673
 20
10.7328479692319902
 30
0.0
 11
-6.324798160583013
 21
10.7803742782354508
 31
0.0
  0
LINE
  5
E07
  8
0
 10
-6.324798160583013
 20
10.7803742782354508
 30
0.0
 11
-6.25
 21
10.8253175473054792
 31
0.0
  0
LINE
  5
E08
  8
0
 10
-6.25
 20
10.8253175473054792
 30
0.0
 11
-6.1736789069647271
 21
10.8676230199917008
 31
0.0
  0
LINE
  5
E09
  8
0
 10
-6.1736789069647271
 20
10.8676230199917008
 30
0.0
 11
-6.0959278669726942
 21
10.9072391535923003
 31
0.0
  0
LINE
  5
E0A
  8
0
 10
-6.0959278669726942
 20
10.9072391535923003
 30
0.0
 11
-6.0168416076895008
 21
10.9441176819508801
 31
0.0
  0
LINE
  5
E0B
  8
0
 10
-6.0168416076895008
 20
10.9441176819508801
 30
0.0
 11
-5.936516483539779
 21
10.9782136742613492
 31
0.0
  0
LINE
  5
E0C
  8
0
 10
-5.936516483539779
 20
10.9782136742613492
 30
0.0
 11
-5.8550503583141724
 21
11.0094855898091595
 31
0.0
  0
LINE
  5
E0D
  8
0
 10
-5.8550503583141724
 20
11.0094855898091595
 30
0.0
 11
-5.7725424859373691
 21
11.0378953285822696
 31
0.0
  0
LINE
  5
E0E
  8
0
 10
-5.7725424859373691
 20
11.0378953285822696
 30
0.0
 11
-5.6890933895424984
 21
11.0634082776901792
 31
0.0
  0
LINE
  5
E0F
  8
0
 10
-5.6890933895424984
 20
11.0634082776901792
 30
0.0
 11
-5.6048047389991691
 21
11.0859933535343806
 31
0.0
  0
LINE
  5
E10
  8
0
 10
-5.6048047389991691
 20
11.0859933535343806
 30
0.0
 11
-5.5197792270443991
 21
11.1056230396788997
 31
0.0
  0
LINE
  5
E11
  8
0
 10
-5.5197792270443991
 20
11.1056230396788997
 30
0.0
 11
-5.4341204441673261
 21
11.1222734203749098
 31
0.0
  0
LINE
  5
E12
  8
0
 10
-5.4341204441673261
 20
11.1222734203749098
 30
0.0
 11
-5.3479327524001636
 21
11.1359242096983095
 31
0.0
  0
LINE
  5
E13
  8
0
 10
-5.3479327524001636
 20
11.1359242096983095
 30
0.0
 11
-5.2613211581691344
 21
11.1465587762650706
 31
0.0
  0
LINE
  5
E14
  8
0
 10
-5.2613211581691344
 20
11.1465587762650706
 30
0.0
 11
-5.1743911843603128
 21
11.1541641634939399
 31
0.0
  0
LINE
  5
E15
  8
0
 10
-5.1743911843603128
 20
11.1541641634939399
 30
0.0
 11
-5.0872487417562526
 21
11.1587311053921301
 31
0.0
  0
LINE
  5
E16
  8
0
 10
-5.0872487417562526
 20
11.1587311053921301
 30
0.0
 11
-5.0
 21
11.1602540378443909
 31
0.0
  0
LINE
  5
E17
  8
0
 10
-5.0000000000000009
 20
8.6602540378443873
 30
0.0
 11
4.9999999999999982
 21
8.6602540378443873
 31
0.0
  0
LINE
  5
E18
  8
0
 10
4.9999999999999982
 20
8.6602540378443873
 30
0.0
 11
0.0
 21
0.0
 31
0.0
  0
LINE
  5
E19
  8
0
 10
0.0
 20
0.0
 30
0.0
 11
-5.0000000000000009
 21
8.6602540378443873
 31
0.0
  0
LINE
  5
E1A
  8
0
 10
-5.0000000000000009
 20
8.6602540378443873
 30
0.0
 11
-6.2500000000000009
 21
6.4951905283832883
 31
0.0
  0
LINE
  5
E1B
  8
0
 10
-5.0000000000000009
 20
8.6602540378443873
 30
0.0
 11
-3.7500000000000009
 21
10.8253175473054792
 31
0.0
  0
LINE
  5
E1C
  8
0
 10
7.4999999999999982
 20
8.6602540378443837
 30
0.0
 11
7.4984770675477366
 21
8.5730052960881356
 31
0.0
  0
LINE
  5
E1D
  8
0
 10
7.4984770675477366
 20
8.5730052960881356
 30
0.0
 11
7.4939101256495571
 21
8.4858628534840737
 31
0.0
  0
LINE
  5
E1E
  8
0
 10
7.4939101256495571
 20
8.4858628534840737
 30
0.0
 11
7.4863047384206789
 21
8.398932879675252
 31
0.0
  0
LINE
  5
E1F
  8
0
 10
7.4863047384206789
 20
8.398932879675252
 30
0.0
 11
7.4756701718539222
 21
8.3123212854442219
 31
0.0
  0
LINE
  5
E20
  8
0
 10
7.4756701718539222
 20
8.3123212854442219
 30
0.0
 11
7.4620193825305172
 21
8.2261335936770603
 31
0.0
  0
LINE
  5
E21
  8
0
 10
7.4620193825305172
 20
8.2261335936770603
 30
0.0
 11
7.4453690018345098
 21
8.1404748107999882
 31
0.0
  0
LINE
  5
E22
  8
0
 10
7.4453690018345098
 20
8.1404748107999882
 30
0.0
 11
7.425739315689988
 21
8.0554492988452164
 31
0.0
  0
LINE
  5
E23
  8
0
 10
7.425739315689988
 20
8.0554492988452164
 30
0.0
 11
7.4031542398457946
 21
7.9711606483018871
 31
0.0
  0
LINE
  5
E24
  8
0
 10
7.4031542398457946
 20
7.9711606483018871
 30
0.0
 11
7.3776412907378797
 21
7.8877115519070191
 31
0.0
  0
LINE
  5
E25
  8
0
 10
7.3776412907378797
 20
7.8877115519070191
 30
0.0
 11
7.3492315519647677
 21
7.8052036795302131
 31
0.0
  0
LINE
  5
E26
  8
0
 10
7.3492315519647677
 20
7.8052036795302131
 30
0.0
 11
7.3179596364169672
 21
7.7237375543046074
 31
0.0
  0
LINE
  5
E27
  8
0
 10
7.3179596364169672
 20
7.7237375543046074
 30
0.0
 11
7.283863644106499
 21
7.6434124301548829
 31
0.0
  0
LINE
  5
E28
  8
0
 10
7.283863644106499
 20
7.6434124301548829
 30
0.0
 11
7.2469851157479139
 21
7.5643261708716887
 31
0.0
  0
LINE
  5
E29
  8
0
 10
7.2469851157479139
 20
7.5643261708716887
 30
0.0
 11
7.2073689821473153
 21
7.4865751308796593
 31
0.0
  0
LINE
  5
E2A
  8
0
 10
7.2073689821473153
 20
7.4865751308796593
 30
0.0
 11
7.1650635094610928
 21
7.4102540378443829
 31
0.0
  0
LINE
  5
E2B
  8
0
 10
7.1650635094610928
 20
7.4102540378443829
 30
0.0
 11
7.1201202403910608
 21
7.3354558772613743
 31
0.0
  0
LINE
  5
E2C
  8
0
 10
7.1201202403910608
 20
7.3354558772613743
 30
0.0
 11
7.0725939313876012
 21
7.2622717791675182
 31
0.0
  0
LINE
  5
E2D
  8
0
 10
7.0725939313876012
 20
7.2622717791675182
 30
0.0
 11
7.0225424859373664
 21
7.190790907113203
 31
0.0
  0
LINE
  5
E2E
  8
0
 10
7.0225424859373664
 20
7.190790907113203
 30
0.0
 11
6.9700268840168009
 21
7.1211003495302387
 31
0.0
  0
LINE
  5
E2F
  8
0
 10
6.9700268840168009
 20
7.1211003495302387
 30
0.0
 11
6.9151111077974408
 21
7.0532850136280381
 31
0.0
  0
LINE
  5
E30
  8
0
 10
6.9151111077974408
 20
7.0532850136280381
 30
0.0
 11
6.8578620636934833
 21
6.9874275219472386
 31
0.0
  0
LINE
  5
E31
  8
0
 10
6.8578620636934833
 20
6.9874275219472386
 30
0.0
 11
6.7983495008466264
 21
6.9236081116968933
 31
0.0
  0
LINE
  5
E32
  8
0
 10
6.7983495008466264
 20
6.9236081116968933
 30
0.0
 11
6.7366459261474896
 21
6.8619045369977574
 31
0.0
  0
LINE
  5
E33
  8
0
 10
6.7366459261474896
 20
6.8619045369977574
 30
0.0
 11
6.6728265158971416
 21
6.8023919741508996
 31
0.0
  0
LINE
  5
E34
  8
0
 10
6.6728265158971416
 20
6.8023919741508996
 30
0.0
 11
6.6069690242163448
 21
6.7451429300469421
 31
0.0
  0
LINE
  5
E35
  8
0
 10
6.6069690242163448
 20
6.7451429300469421
 30
0.0
 11
6.5391536883141423
 21
6.6902271538275802
 31
0.0
  0
LINE
  5
E36
  8
0
 10
6.5391536883141423
 20
6.6902271538275802
 30
0.0
 11
6.469463130731179
 21
6.6377115519070173
 31
0.0
  0
LINE
  5
E37
  8
0
 10
6.469463130731179
 20
6.6377115519070173
 30
0.0
 11
6.3979822586768629
 21
6.5876601064567799
 31
0.0
  0
LINE
  5
E38
  8
0
 10
6.3979822586768629
 20
6.5876601064567799
 30
0.0
 11
6.3247981605830086
 21
6.540133797453322
 31
0.0
  0
LINE
  5
E39
  8
0
 10
6.3247981605830086
 20
6.540133797453322
 30
0.0
 11
6.2499999999999982
 21
6.49519052838329
 31
0.0
  0
LINE
  5
E3A
  8
0
 10
6.2499999999999982
 20
6.49519052838329
 30
0.0
 11
6.1736789069647244
 21
6.4528850556970676
 31
0.0
  0
LINE
  5
E3B
  8
0
 10
6.1736789069647244
 20
6.4528850556970676
 30
0.0
 11
6.0959278669726897
 21
6.413268922096468
 31
0.0
  0
LINE
  5
E3C
  8
0
 10
6.0959278669726897
 20
6.413268922096468
 30
0.0
 11
6.0168416076894982
 21
6.376390393737883
 31
0.0
  0
LINE
  5
E3D
  8
0
 10
6.0168416076894982
 20
6.376390393737883
 30
0.0
 11
5.9365164835397763
 21
6.3422944014274156
 31
0.0
  0
LINE
  5
E3E
  8
0
 10
5.9365164835397763
 20
6.3422944014274156
 30
0.0
 11
5.8550503583141671
 21
6.3110224858796151
 31
0.0
  0
LINE
  5
E3F
  8
0
 10
5.8550503583141671
 20
6.3110224858796151
 30
0.0
 11
5.7725424859373664
 21
6.2826127471065032
 31
0.0
  0
LINE
  5
E40
  8
0
 10
5.7725424859373664
 20
6.2826127471065032
 30
0.0
 11
5.6890933895424931
 21
6.2570997979985883
 31
0.0
  0
LINE
  5
E41
  8
0
 10
5.6890933895424931
 20
6.2570997979985883
 30
0.0
 11
5.6048047389991646
 21
6.2345147221543948
 31
0.0
  0
LINE
  5
E42
  8
0
 10
5.6048047389991646
 20
6.2345147221543948
 30
0.0
 11
5.5197792270443973
 21
6.2148850360098713
 31
0.0
  0
LINE
  5
E43
  8
0
 10
5.5197792270443973
 20
6.2148850360098713
 30
0.0
 11
5.4341204441673234
 21
6.1982346553138639
 31
0.0
  0
LINE
  5
E44
  8
0
 10
5.4341204441673234
 20
6.1982346553138639
 30
0.0
 11
5.3479327524001601
 21
6.1845838659904606
 31
0.0
  0
LINE
  5
E45
  8
0
 10
5.3479327524001601
 20
6.1845838659904606
 30
0.0
 11
5.261321158169129
 21
6.1739492994237031
 31
0.0
  0
LINE
  5
E46
  8
0
 10
5.261321158169129
 20
6.1739492994237031
 30
0.0
 11
5.1743911843603101
 21
6.1663439121948249
 31
0.0
  0
LINE
  5
E47
  8
0
 10
5.1743911843603101
 20
6.1663439121948249
 30
0.0
 11
5.0872487417562491
 21
6.1617769702966463
 31
0.0
  0
LINE
  5
E48
  8
0
 10
5.0872487417562491
 20
6.1617769702966463
 30
0.0
 11
4.9999999999999956
 21
6.1602540378443846
 31
0.0
  0
LINE
  5
E49
  8
0
 10
2.4999999999999978
 20
8.6602540378443873
 30
0.0
 11
2.5015229324522581
 21
8.5730052960881356
 31
0.0
  0
LINE
  5
E4A
  8
0
 10
2.5015229324522581
 20
8.5730052960881356
 30
0.0
 11
2.5060898743504381
 21
8.4858628534840737
 31
0.0
  0
LINE
  5
E4B
  8
0
 10
2.5060898743504381
 20
8.4858628534840737
 30
0.0
 11
2.5136952615793149
 21
8.398932879675252
 31
0.0
  0
LINE
  5
E4C
  8
0
 10
2.5136952615793149
 20
8.398932879675252
 30
0.0
 11
2.5243298281460729
 21
8.3123212854442219
 31
0.0
  0
LINE
  5
E4D
  8
0
 10
2.5243298281460729
 20
8.3123212854442219
 30
0.0
 11
2.5379806174694788
 21
8.2261335936770639
 31
0.0
  0
LINE
  5
E4E
  8
0
 10
2.5379806174694788
 20
8.2261335936770639
 30
0.0
 11
2.5546309981654849
 21
8.1404748107999882
 31
0.0
  0
LINE
  5
E4F
  8
0
 10
2.5546309981654849
 20
8.1404748107999882
 30
0.0
 11
2.574260684310008
 21
8.0554492988452182
 31
0.0
  0
LINE
  5
E50
  8
0
 10
2.574260684310008
 20
8.0554492988452182
 30
0.0
 11
2.596845760154201
 21
7.9711606483018906
 31
0.0
  0
LINE
  5
E51
  8
0
 10
2.596845760154201
 20
7.9711606483018906
 30
0.0
 11
2.622358709262115
 21
7.8877115519070191
 31
0.0
  0
LINE
  5
E52
  8
0
 10
2.622358709262115
 20
7.8877115519070191
 30
0.0
 11
2.650768448035226
 21
7.8052036795302167
 31
0.0
  0
LINE
  5
E53
  8
0
 10
2.650768448035226
 20
7.8052036795302167
 30
0.0
 11
2.6820403635830292
 21
7.7237375543046074
 31
0.0
  0
LINE
  5
E54
  8
0
 10
2.6820403635830292
 20
7.7237375543046074
 30
0.0
 11
2.7161363558934948
 21
7.64341243015489
 31
0.0
  0
LINE
  5
E55
  8
0
 10
2.7161363558934948
 20
7.64341243015489
 30
0.0
 11
2.7530148842520799
 21
7.5643261708716958
 31
0.0
  0
LINE
  5
E56
  8
0
 10
2.7530148842520799
 20
7.5643261708716958
 30
0.0
 11
2.7926310178526799
 21
7.4865751308796593
 31
0.0
  0
LINE
  5
E57
  8
0
 10
2.7926310178526799
 20
7.4865751308796593
 30
0.0
 11
2.834936490538901
 21
7.41025403784439
 31
0.0
  0
LINE
  5
E58
  8
0
 10
2.834936490538901
 20
7.41025403784439
 30
0.0
 11
2.8798797596089321
 21
7.3354558772613769
 31
0.0
  0
LINE
  5
E59
  8
0
 10
2.8798797596089321
 20
7.3354558772613769
 30
0.0
 11
2.9274060686123939
 21
7.2622717791675191
 31
0.0
  0
LINE
  5
E5A
  8
0
 10
2.9274060686123939
 20
7.2622717791675191
 30
0.0
 11
2.9774575140626292
 21
7.1907909071132066
 31
0.0
  0
LINE
  5
E5B
  8
0
 10
2.9774575140626292
 20
7.1907909071132066
 30
0.0
 11
3.029973115983192
 21
7.1211003495302414
 31
0.0
  0
LINE
  5
E5C
  8
0
 10
3.029973115983192
 20
7.1211003495302414
 30
0.0
 11
3.0848888922025508
 21
7.0532850136280407
 31
0.0
  0
LINE
  5
E5D
  8
0
 10
3.0848888922025508
 20
7.0532850136280407
 30
0.0
 11
3.1421379363065132
 21
6.987427521947243
 31
0.0
  0
LINE
  5
E5E
  8
0
 10
3.1421379363065132
 20
6.987427521947243
 30
0.0
 11
3.2016504991533679
 21
6.9236081116968959
 31
0.0
  0
LINE
  5
E5F
  8
0
 10
3.2016504991533679
 20
6.9236081116968959
 30
0.0
 11
3.2633540738525042
 21
6.8619045369977592
 31
0.0
  0
LINE
  5
E60
  8
0
 10
3.2633540738525042
 20
6.8619045369977592
 30
0.0
 11
3.3271734841028522
 21
6.802391974150904
 31
0.0
  0
LINE
  5
E61
  8
0
 10
3.3271734841028522
 20
6.802391974150904
 30
0.0
 11
3.3930309757836481
 21
6.7451429300469421
 31
0.0
  0
LINE
  5
E62
  8
0
 10
3.3930309757836481
 20
6.7451429300469421
 30
0.0
 11
3.4608463116858519
 21
6.690227153827581
 31
0.0
  0
LINE
  5
E63
  8
0
 10
3.4608463116858519
 20
6.690227153827581
 30
0.0
 11
3.5305368692688139
 21
6.6377115519070173
 31
0.0
  0
LINE
  5
E64
  8
0
 10
3.5305368692688139
 20
6.6377115519070173
 30
0.0
 11
3.60201774132313
 21
6.5876601064567799
 31
0.0
  0
LINE
  5
E65
  8
0
 10
3.60201774132313
 20
6.5876601064567799
 30
0.0
 11
3.6752018394169852
 21
6.540133797453322
 31
0.0
  0
LINE
  5
E66
  8
0
 10
3.6752018394169852
 20
6.540133797453322
 30
0.0
 11
3.749999999999996
 21
6.49519052838329
 31
0.0
  0
LINE
  5
E67
  8
0
 10
3.749999999999996
 20
6.49519052838329
 30
0.0
 11
3.8263210930352698
 21
6.4528850556970703
 31
0.0
  0
LINE
  5
E68
  8
0
 10
3.8263210930352698
 20
6.4528850556970703
 30
0.0
 11
3.904072133027304
 21
6.4132689220964698
 31
0.0
  0
LINE
  5
E69
  8
0
 10
3.904072133027304
 20
6.4132689220964698
 30
0.0
 11
3.9831583923104961
 21
6.3763903937378847
 31
0.0
  0
LINE
  5
E6A
  8
0
 10
3.9831583923104961
 20
6.3763903937378847
 30
0.0
 11
4.0634835164602183
 21
6.3422944014274156
 31
0.0
  0
LINE
  5
E6B
  8
0
 10
4.0634835164602183
 20
6.3422944014274156
 30
0.0
 11
4.144949641685824
 21
6.3110224858796151
 31
0.0
  0
LINE
  5
E6C
  8
0
 10
4.144949641685824
 20
6.3110224858796151
 30
0.0
 11
4.2274575140626283
 21
6.2826127471065041
 31
0.0
  0
LINE
  5
E6D
  8
0
 10
4.2274575140626283
 20
6.2826127471065041
 30
0.0
 11
4.310906610457498
 21
6.2570997979985883
 31
0.0
  0
LINE
  5
E6E
  8
0
 10
4.310906610457498
 20
6.2570997979985883
 30
0.0
 11
4.3951952610008274
 21
6.2345147221543966
 31
0.0
  0
LINE
  5
E6F
  8
0
 10
4.3951952610008274
 20
6.2345147221543966
 30
0.0
 11
4.4802207729555974
 21
6.2148850360098713
 31
0.0
  0
LINE
  5
E70
  8
0
 10
4.4802207729555974
 20
6.2148850360098713
 30
0.0
 11
4.5658795558326712
 21
6.1982346553138639
 31
0.0
  0
LINE
  5
E71
  8
0
 10
4.5658795558326712
 20
6.1982346553138639
 30
0.0
 11
4.6520672475998319
 21
6.1845838659904606
 31
0.0
  0
LINE
  5
E72
  8
0
 10
4.6520672475998319
 20
6.1845838659904606
 30
0.0
 11
4.7386788418308621
 21
6.1739492994237031
 31
0.0
  0
LINE
  5
E73
  8
0
 10
4.7386788418308621
 20
6.1739492994237031
 30
0.0
 11
4.8256088156396837
 21
6.1663439121948249
 31
0.0
  0
LINE
  5
E74
  8
0
 10
4.8256088156396837
 20
6.1663439121948249
 30
0.0
 11
4.9127512582437438
 21
6.1617769702966463
 31
0.0
  0
LINE
  5
E75
  8
0
 10
4.9127512582437438
 20
6.1617769702966463
 30
0.0
 11
4.9999999999999982
 21
6.1602540378443846
 31
0.0
  0
LINE
  5
E76
  8
0
 10
7.4999999999999982
 20
8.6602540378443837
 30
0.0
 11
7.4984770675477366
 21
8.747502779600639
 31
0.0
  0
LINE
  5
E77
  8
0
 10
7.4984770675477366
 20
8.747502779600639
 30
0.0
 11
7.4939101256495571
 21
8.8346452222046992
 31
0.0
  0
LINE
  5
E78
  8
0
 10
7.4939101256495571
 20
8.8346452222046992
 30
0.0
 11
7.4863047384206789
 21
8.921575196013519
 31
0.0
  0
LINE
  5
E79
  8
0
 10
7.4863047384206789
 20
8.921575196013519
 30
0.0
 11
7.4756701718539222
 21
9.0081867902445492
 31
0.0
  0
LINE
  5
E7A
  8
0
 10
7.4756701718539222
 20
9.0081867902445492
 30
0.0
 11
7.4620193825305172
 21
9.0943744820117107
 31
0.0
  0
LINE
  5
E7B
  8
0
 10
7.4620193825305172
 20
9.0943744820117107
 30
0.0
 11
7.4453690018345098
 21
9.1800332648887863
 31
0.0
  0
LINE
  5
E7C
  8
0
 10
7.4453690018345098
 20
9.1800332648887863
 30
0.0
 11
7.425739315689988
 21
9.2650587768435546
 31
0.0
  0
LINE
  5
E7D
  8
0
 10
7.425739315689988
 20
9.2650587768435546
 30
0.0
 11
7.4031542398457946
 21
9.3493474273868831
 31
0.0
  0
LINE
  5
E7E
  8
0
 10
7.4031542398457946
 20
9.3493474273868831
 30
0.0
 11
7.3776412907378823
 21
9.4327965237817555
 31
0.0
  0
LINE
  5
E7F
  8
0
 10
7.3776412907378823
 20
9.4327965237817555
 30
0.0
 11
7.3492315519647677
 21
9.5153043961585571
 31
0.0
  0
LINE
  5
E80
  8
0
 10
7.3492315519647677
 20
9.5153043961585571
 30
0.0
 11
7.3179596364169672
 21
9.5967705213841672
 31
0.0
  0
LINE
  5
E81
  8
0
 10
7.3179596364169672
 20
9.5967705213841672
 30
0.0
 11
7.2838636441065008
 21
9.6770956455338837
 31
0.0
  0
LINE
  5
E82
  8
0
 10
7.2838636441065008
 20
9.6770956455338837
 30
0.0
 11
7.2469851157479157
 21
9.7561819048170761
 31
0.0
  0
LINE
  5
E83
  8
0
 10
7.2469851157479157
 20
9.7561819048170761
 30
0.0
 11
7.207368982147317
 21
9.8339329448091117
 31
0.0
  0
LINE
  5
E84
  8
0
 10
7.207368982147317
 20
9.8339329448091117
 30
0.0
 11
7.1650635094610928
 21
9.9102540378443837
 31
0.0
  0
LINE
  5
E85
  8
0
 10
7.1650635094610928
 20
9.9102540378443837
 30
0.0
 11
7.1201202403910626
 21
9.9850521984273986
 31
0.0
  0
LINE
  5
E86
  8
0
 10
7.1201202403910626
 20
9.9850521984273986
 30
0.0
 11
7.0725939313876021
 21
10.0582362965212493
 31
0.0
  0
LINE
  5
E87
  8
0
 10
7.0725939313876021
 20
10.0582362965212493
 30
0.0
 11
7.0225424859373664
 21
10.1297171685755707
 31
0.0
  0
LINE
  5
E88
  8
0
 10
7.0225424859373664
 20
10.1297171685755707
 30
0.0
 11
6.9700268840168027
 21
10.1994077261585296
 31
0.0
  0
LINE
  5
E89
  8
0
 10
6.9700268840168027
 20
10.1994077261585296
 30
0.0
 11
6.9151111077974452
 21
10.2672230620607294
 31
0.0
  0
LINE
  5
E8A
  8
0
 10
6.9151111077974452
 20
10.2672230620607294
 30
0.0
 11
6.8578620636934833
 21
10.3330805537415298
 31
0.0
  0
LINE
  5
E8B
  8
0
 10
6.8578620636934833
 20
10.3330805537415298
 30
0.0
 11
6.7983495008466281
 21
10.3968999639918795
 31
0.0
  0
LINE
  5
E8C
  8
0
 10
6.7983495008466281
 20
10.3968999639918795
 30
0.0
 11
6.7366459261474922
 21
10.4586035386910101
 31
0.0
  0
LINE
  5
E8D
  8
0
 10
6.7366459261474922
 20
10.4586035386910101
 30
0.0
 11
6.6728265158971443
 21
10.5181161015378706
 31
0.0
  0
LINE
  5
E8E
  8
0
 10
6.6728265158971443
 20
10.5181161015378706
 30
0.0
 11
6.6069690242163466
 21
10.5753651456418307
 31
0.0
  0
LINE
  5
E8F
  8
0
 10
6.6069690242163466
 20
10.5753651456418307
 30
0.0
 11
6.5391536883141441
 21
10.6302809218611891
 31
0.0
  0
LINE
  5
E90
  8
0
 10
6.5391536883141441
 20
10.6302809218611891
 30
0.0
 11
6.4694631307311807
 21
10.6827965237817502
 31
0.0
  0
LINE
  5
E91
  8
0
 10
6.4694631307311807
 20
10.6827965237817502
 30
0.0
 11
6.3979822586768647
 21
10.7328479692319902
 31
0.0
  0
LINE
  5
E92
  8
0
 10
6.3979822586768647
 20
10.7328479692319902
 30
0.0
 11
6.3247981605830113
 21
10.7803742782354508
 31
0.0
  0
LINE
  5
E93
  8
0
 10
6.3247981605830113
 20
10.7803742782354508
 30
0.0
 11
6.25
 21
10.8253175473054792
 31
0.0
  0
LINE
  5
E94
  8
0
 10
6.25
 20
10.8253175473054792
 30
0.0
 11
6.1736789069647262
 21
10.8676230199917008
 31
0.0
  0
LINE
  5
E95
  8
0
 10
6.1736789069647262
 20
10.8676230199917008
 30
0.0
 11
6.0959278669726924
 21
10.9072391535923003
 31
0.0
  0
LINE
  5
E96
  8
0
 10
6.0959278669726924
 20
10.9072391535923003
 30
0.0
 11
6.016841607689499
 21
10.9441176819508801
 31
0.0
  0
LINE
  5
E97
  8
0
 10
6.016841607689499
 20
10.9441176819508801
 30
0.0
 11
5.9365164835397781
 21
10.9782136742613492
 31
0.0
  0
LINE
  5
E98
  8
0
 10
5.9365164835397781
 20
10.9782136742613492
 30
0.0
 11
5.8550503583141706
 21
11.0094855898091595
 31
0.0
  0
LINE
  5
E99
  8
0
 10
5.8550503583141706
 20
11.0094855898091595
 30
0.0
 11
5.7725424859373682
 21
11.0378953285822696
 31
0.0
  0
LINE
  5
E9A
  8
0
 10
5.7725424859373682
 20
11.0378953285822696
 30
0.0
 11
5.6890933895424967
 21
11.0634082776901792
 31
0.0
  0
LINE
  5
E9B
  8
0
 10
5.6890933895424967
 20
11.0634082776901792
 30
0.0
 11
5.6048047389991691
 21
11.0859933535343806
 31
0.0
  0
LINE
  5
E9C
  8
0
 10
5.6048047389991691
 20
11.0859933535343806
 30
0.0
 11
5.5197792270443991
 21
11.1056230396788997
 31
0.0
  0
LINE
  5
E9D
  8
0
 10
5.5197792270443991
 20
11.1056230396788997
 30
0.0
 11
5.4341204441673252
 21
11.1222734203749098
 31
0.0
  0
LINE
  5
E9E
  8
0
 10
5.4341204441673252
 20
11.1222734203749098
 30
0.0
 11
5.3479327524001627
 21
11.1359242096983095
 31
0.0
  0
LINE
  5
E9F
  8
0
 10
5.3479327524001627
 20
11.1359242096983095
 30
0.0
 11
5.2613211581691326
 21
11.1465587762650706
 31
0.0
  0
LINE
  5
EA0
  8
0
 10
5.2613211581691326
 20
11.1465587762650706
 30
0.0
 11
5.174391184360311
 21
11.1541641634939399
 31
0.0
  0
LINE
  5
EA1
  8
0
 10
5.174391184360311
 20
11.1541641634939399
 30
0.0
 11
5.0872487417562509
 21
11.1587311053921301
 31
0.0
  0
LINE
  5
EA2
  8
0
 10
5.0872487417562509
 20
11.1587311053921301
 30
0.0
 11
4.9999999999999982
 21
11.1602540378443909
 31
0.0
  0
LINE
  5
EA3
  8
0
 10
2.4999999999999978
 20
8.6602540378443873
 30
0.0
 11
2.5015229324522581
 21
8.747502779600639
 31
0.0
  0
LINE
  5
EA4
  8
0
 10
2.5015229324522581
 20
8.747502779600639
 30
0.0
 11
2.5060898743504381
 21
8.8346452222046992
 31
0.0
  0
LINE
  5
EA5
  8
0
 10
2.5060898743504381
 20
8.8346452222046992
 30
0.0
 11
2.5136952615793149
 21
8.9215751960135226
 31
0.0
  0
LINE
  5
EA6
  8
0
 10
2.5136952615793149
 20
8.9215751960135226
 30
0.0
 11
2.5243298281460729
 21
9.0081867902445527
 31
0.0
  0
LINE
  5
EA7
  8
0
 10
2.5243298281460729
 20
9.0081867902445527
 30
0.0
 11
2.5379806174694788
 21
9.0943744820117143
 31
0.0
  0
LINE
  5
EA8
  8
0
 10
2.5379806174694788
 20
9.0943744820117143
 30
0.0
 11
2.5546309981654849
 21
9.1800332648887863
 31
0.0
  0
LINE
  5
EA9
  8
0
 10
2.5546309981654849
 20
9.1800332648887863
 30
0.0
 11
2.574260684310008
 21
9.2650587768435582
 31
0.0
  0
LINE
  5
EAA
  8
0
 10
2.574260684310008
 20
9.2650587768435582
 30
0.0
 11
2.5968457601542019
 21
9.3493474273868866
 31
0.0
  0
LINE
  5
EAB
  8
0
 10
2.5968457601542019
 20
9.3493474273868866
 30
0.0
 11
2.622358709262115
 21
9.4327965237817555
 31
0.0
  0
LINE
  5
EAC
  8
0
 10
2.622358709262115
 20
9.4327965237817555
 30
0.0
 11
2.6507684480352269
 21
9.5153043961585606
 31
0.0
  0
LINE
  5
EAD
  8
0
 10
2.6507684480352269
 20
9.5153043961585606
 30
0.0
 11
2.6820403635830292
 21
9.5967705213841672
 31
0.0
  0
LINE
  5
EAE
  8
0
 10
2.6820403635830292
 20
9.5967705213841672
 30
0.0
 11
2.7161363558934961
 21
9.6770956455338872
 31
0.0
  0
LINE
  5
EAF
  8
0
 10
2.7161363558934961
 20
9.6770956455338872
 30
0.0
 11
2.7530148842520812
 21
9.7561819048170815
 31
0.0
  0
LINE
  5
EB0
  8
0
 10
2.7530148842520812
 20
9.7561819048170815
 30
0.0
 11
2.7926310178526812
 21
9.8339329448091153
 31
0.0
  0
LINE
  5
EB1
  8
0
 10
2.7926310178526812
 20
9.8339329448091153
 30
0.0
 11
2.8349364905389018
 21
9.9102540378443873
 31
0.0
  0
LINE
  5
EB2
  8
0
 10
2.8349364905389018
 20
9.9102540378443873
 30
0.0
 11
2.8798797596089329
 21
9.9850521984273986
 31
0.0
  0
LINE
  5
EB3
  8
0
 10
2.8798797596089329
 20
9.9850521984273986
 30
0.0
 11
2.9274060686123948
 21
10.0582362965212493
 31
0.0
  0
LINE
  5
EB4
  8
0
 10
2.9274060686123948
 20
10.0582362965212493
 30
0.0
 11
2.97745751406263
 21
10.1297171685755707
 31
0.0
  0
LINE
  5
EB5
  8
0
 10
2.97745751406263
 20
10.1297171685755707
 30
0.0
 11
3.0299731159831942
 21
10.1994077261585296
 31
0.0
  0
LINE
  5
EB6
  8
0
 10
3.0299731159831942
 20
10.1994077261585296
 30
0.0
 11
3.084888892202553
 21
10.2672230620607294
 31
0.0
  0
LINE
  5
EB7
  8
0
 10
3.084888892202553
 20
10.2672230620607294
 30
0.0
 11
3.1421379363065132
 21
10.3330805537415298
 31
0.0
  0
LINE
  5
EB8
  8
0
 10
3.1421379363065132
 20
10.3330805537415298
 30
0.0
 11
3.2016504991533701
 21
10.3968999639918795
 31
0.0
  0
LINE
  5
EB9
  8
0
 10
3.2016504991533701
 20
10.3968999639918795
 30
0.0
 11
3.2633540738525051
 21
10.4586035386910208
 31
0.0
  0
LINE
  5
EBA
  8
0
 10
3.2633540738525051
 20
10.4586035386910208
 30
0.0
 11
3.3271734841028531
 21
10.5181161015378706
 31
0.0
  0
LINE
  5
EBB
  8
0
 10
3.3271734841028531
 20
10.5181161015378706
 30
0.0
 11
3.3930309757836499
 21
10.5753651456418307
 31
0.0
  0
LINE
  5
EBC
  8
0
 10
3.3930309757836499
 20
10.5753651456418307
 30
0.0
 11
3.4608463116858541
 21
10.6302809218611891
 31
0.0
  0
LINE
  5
EBD
  8
0
 10
3.4608463116858541
 20
10.6302809218611891
 30
0.0
 11
3.5305368692688162
 21
10.6827965237817502
 31
0.0
  0
LINE
  5
EBE
  8
0
 10
3.5305368692688162
 20
10.6827965237817502
 30
0.0
 11
3.6020177413231318
 21
10.7328479692319902
 31
0.0
  0
LINE
  5
EBF
  8
0
 10
3.6020177413231318
 20
10.7328479692319902
 30
0.0
 11
3.6752018394169861
 21
10.7803742782354508
 31
0.0
  0
LINE
  5
EC0
  8
0
 10
3.6752018394169861
 20
10.7803742782354508
 30
0.0
 11
3.7499999999999978
 21
10.8253175473054792
 31
0.0
  0
LINE
  5
EC1
  8
0
 10
3.7499999999999978
 20
10.8253175473054792
 30
0.0
 11
3.826321093035272
 21
10.8676230199917008
 31
0.0
  0
LINE
  5
EC2
  8
0
 10
3.826321093035272
 20
10.8676230199917008
 30
0.0
 11
3.9040721330273049
 21
10.9072391535923003
 31
0.0
  0
LINE
  5
EC3
  8
0
 10
3.9040721330273049
 20
10.9072391535923003
 30
0.0
 11
3.9831583923104978
 21
10.9441176819508801
 31
0.0
  0
LINE
  5
EC4
  8
0
 10
3.9831583923104978
 20
10.9441176819508801
 30
0.0
 11
4.0634835164602201
 21
10.9782136742613492
 31
0.0
  0
LINE
  5
EC5
  8
0
 10
4.0634835164602201
 20
10.9782136742613492
 30
0.0
 11
4.1449496416858276
 21
11.0094855898091595
 31
0.0
  0
LINE
  5
EC6
  8
0
 10
4.1449496416858276
 20
11.0094855898091595
 30
0.0
 11
4.22745751406263
 21
11.0378953285822696
 31
0.0
  0
LINE
  5
EC7
  8
0
 10
4.22745751406263
 20
11.0378953285822696
 30
0.0
 11
4.3109066104575016
 21
11.0634082776901792
 31
0.0
  0
LINE
  5
EC8
  8
0
 10
4.3109066104575016
 20
11.0634082776901792
 30
0.0
 11
4.39519526100083
 21
11.0859933535343806
 31
0.0
  0
LINE
  5
EC9
  8
0
 10
4.39519526100083
 20
11.0859933535343806
 30
0.0
 11
4.4802207729555992
 21
11.1056230396788997
 31
0.0
  0
LINE
  5
ECA
  8
0
 10
4.4802207729555992
 20
11.1056230396788997
 30
0.0
 11
4.565879555832673
 21
11.1222734203749098
 31
0.0
  0
LINE
  5
ECB
  8
0
 10
4.565879555832673
 20
11.1222734203749098
 30
0.0
 11
4.6520672475998364
 21
11.1359242096983095
 31
0.0
  0
LINE
  5
ECC
  8
0
 10
4.6520672475998364
 20
11.1359242096983095
 30
0.0
 11
4.7386788418308656
 21
11.1465587762650706
 31
0.0
  0
LINE
  5
ECD
  8
0
 10
4.7386788418308656
 20
11.1465587762650706
 30
0.0
 11
4.8256088156396864
 21
11.1541641634939399
 31
0.0
  0
LINE
  5
ECE
  8
0
 10
4.8256088156396864
 20
11.1541641634939399
 30
0.0
 11
4.9127512582437456
 21
11.1587311053921301
 31
0.0
  0
LINE
  5
ECF
  8
0
 10
4.9127512582437456
 20
11.1587311053921301
 30
0.0
 11
5.0
 21
11.1602540378443909
 31
0.0
  0
LINE
  5
ED0
  8
0
 10
4.9999999999999982
 20
8.6602540378443873
 30
0.0
 11
3.749999999999996
 21
10.8253175473054792
 31
0.0
  0
LINE
  5
ED1
  8
0
 10
4.9999999999999982
 20
8.6602540378443873
 30
0.0
 11
6.2499999999999982
 21
6.4951905283832909
 31
0.0
  0
LINE
  5
ED2
  8
0
 10
7.4999999999999982
 20
12.9903810567665801
 30
0.0
 11
4.9999999999999982
 21
8.6602540378443873
 31
0.0
  0
LINE
  5
ED3
  8
0
 10
4.9999999999999982
 20
8.6602540378443873
 30
0.0
 11
9.9999999999999982
 21
8.6602540378443837
 31
0.0
  0
LINE
  5
ED4
  8
0
 10
-5.0000000000000009
 20
8.6602540378443909
 30
0.0
 11
-7.4999999999999982
 21
12.9903810567665801
 31
0.0
  0
LINE
  5
ED5
  8
0
 10
-10.0
 20
8.6602540378443944
 30
0.0
 11
-5.0000000000000009
 21
8.6602540378443909
 31
0.0
  0
LINE
  5
101F
  8
0
 10
2.5
 20
-4.3301270189221928
 30
0.0
 11
0.0
 21
0.0
 31
0.0
  0
ENDSEC
  0
EOF
