  0
SECTION
  2
HEADER
  9
$ACADVER
  1
AC1009
  9
$INSBASE
 10
0.0
 20
0.0
 30
0.0
  9
$EXTMIN
 10
-2.6261512320515972
 20
-2.5008267759644691
 30
-0.0000000000112498
  9
$EXTMAX
 10
12.5863360375378708
 20
11.1789256444094391
 30
0.0000000000002956
  9
$LIMMIN
 10
0.0
 20
0.0
  9
$LIMMAX
 10
420.0
 20
297.0
  9
$ORTHOMODE
 70
     0
  9
$REGENMODE
 70
     1
  9
$FILLMODE
 70
     1
  9
$QTEXTMODE
 70
     0
  9
$MIRRTEXT
 70
     0
  9
$DRAGMODE
 70
     2
  9
$LTSCALE
 40
1.0
  9
$OSMODE
 70
    37
  9
$ATTMODE
 70
     1
  9
$TEXTSIZE
 40
2.5
  9
$TRACEWID
 40
1.0
  9
$TEXTSTYLE
  7
STANDARD
  9
$CLAYER
  8
0
  9
$CELTYPE
  6
BYLAYER
  9
$CECOLOR
 62
   256
  9
$DIMSCALE
 40
1.0
  9
$DIMASZ
 40
2.5
  9
$DIMEXO
 40
0.625
  9
$DIMDLI
 40
3.75
  9
$DIMRND
 40
0.0
  9
$DIMDLE
 40
0.0
  9
$DIMEXE
 40
1.25
  9
$DIMTP
 40
0.0
  9
$DIMTM
 40
0.0
  9
$DIMTXT
 40
2.5
  9
$DIMCEN
 40
2.5
  9
$DIMTSZ
 40
0.0
  9
$DIMTOL
 70
     0
  9
$DIMLIM
 70
     0
  9
$DIMTIH
 70
     0
  9
$DIMTOH
 70
     0
  9
$DIMSE1
 70
     0
  9
$DIMSE2
 70
     0
  9
$DIMTAD
 70
     1
  9
$DIMZIN
 70
     8
  9
$DIMBLK
  1

  9
$DIMASO
 70
     1
  9
$DIMSHO
 70
     1
  9
$DIMPOST
  1

  9
$DIMAPOST
  1

  9
$DIMALT
 70
     0
  9
$DIMALTD
 70
     3
  9
$DIMALTF
 40
0.03937007874016
  9
$DIMLFAC
 40
1.0
  9
$DIMTOFL
 70
     1
  9
$DIMTVP
 40
0.0
  9
$DIMTIX
 70
     0
  9
$DIMSOXD
 70
     0
  9
$DIMSAH
 70
     0
  9
$DIMBLK1
  1

  9
$DIMBLK2
  1

  9
$DIMSTYLE
  2
ISO-25
  9
$DIMCLRD
 70
     0
  9
$DIMCLRE
 70
     0
  9
$DIMCLRT
 70
     0
  9
$DIMTFAC
 40
1.0
  9
$DIMGAP
 40
0.625
  9
$LUNITS
 70
     2
  9
$LUPREC
 70
     4
  9
$SKETCHINC
 40
1.0
  9
$FILLETRAD
 40
0.0
  9
$AUNITS
 70
     0
  9
$AUPREC
 70
     0
  9
$MENU
  1
.
  9
$ELEVATION
 40
0.0
  9
$PELEVATION
 40
0.0
  9
$THICKNESS
 40
0.0
  9
$LIMCHECK
 70
     0
  9
$BLIPMODE
 70
     0
  9
$CHAMFERA
 40
0.0
  9
$CHAMFERB
 40
0.0
  9
$SKPOLY
 70
     0
  9
$TDCREATE
 40
2460108.6800347222015262
  9
$TDUPDATE
 40
2460108.7440162040293217
  9
$TDINDWG
 40
0.0639814815
  9
$TDUSRTIMER
 40
0.0639814815
  9
$USRTIMER
 70
     1
  9
$ANGBASE
 50
0.0
  9
$ANGDIR
 70
     0
  9
$PDMODE
 70
     0
  9
$PDSIZE
 40
0.0
  9
$PLINEWID
 40
0.0
  9
$COORDS
 70
     1
  9
$SPLFRAME
 70
     0
  9
$SPLINETYPE
 70
     6
  9
$SPLINESEGS
 70
     8
  9
$ATTDIA
 70
     1
  9
$ATTREQ
 70
     1
  9
$HANDLING
 70
     1
  9
$HANDSEED
  5
CAB
  9
$SURFTAB1
 70
     6
  9
$SURFTAB2
 70
     6
  9
$SURFTYPE
 70
     6
  9
$SURFU
 70
     6
  9
$SURFV
 70
     6
  9
$UCSNAME
  2

  9
$UCSORG
 10
0.0
 20
0.0
 30
0.0
  9
$UCSXDIR
 10
1.0
 20
0.0
 30
0.0
  9
$UCSYDIR
 10
0.0
 20
1.0
 30
0.0
  9
$PUCSNAME
  2

  9
$PUCSORG
 10
0.0
 20
0.0
 30
0.0
  9
$PUCSXDIR
 10
1.0
 20
0.0
 30
0.0
  9
$PUCSYDIR
 10
0.0
 20
1.0
 30
0.0
  9
$USERI1
 70
     0
  9
$USERI2
 70
     0
  9
$USERI3
 70
     0
  9
$USERI4
 70
     0
  9
$USERI5
 70
     0
  9
$USERR1
 40
0.0
  9
$USERR2
 40
0.0
  9
$USERR3
 40
0.0
  9
$USERR4
 40
0.0
  9
$USERR5
 40
0.0
  9
$WORLDVIEW
 70
     1
  9
$SHADEDGE
 70
     3
  9
$SHADEDIF
 70
    70
  9
$TILEMODE
 70
     1
  9
$MAXACTVP
 70
    64
  9
$PLIMCHECK
 70
     0
  9
$PEXTMIN
 10
0.0
 20
0.0
 30
0.0
  9
$PEXTMAX
 10
0.0
 20
0.0
 30
0.0
  9
$PLIMMIN
 10
0.0
 20
0.0
  9
$PLIMMAX
 10
12.0
 20
9.0
  9
$UNITMODE
 70
     0
  9
$VISRETAIN
 70
     1
  9
$PLINEGEN
 70
     0
  9
$PSLTSCALE
 70
     1
  0
ENDSEC
  0
SECTION
  2
TABLES
  0
TABLE
  2
VPORT
 70
     1
  0
VPORT
  2
*ACTIVE
 70
     0
 10
0.0
 20
0.0
 11
1.0
 21
1.0
 12
4.980092402743141
 22
4.3390494342224892
 13
0.0
 23
0.0
 14
10.0
 24
10.0
 15
10.0
 25
10.0
 16
0.0
 26
0.0
 36
1.0
 17
0.0
 27
0.0
 37
0.0
 40
13.7921887416372595
 41
2.6323731138545949
 42
50.0
 43
0.0
 44
0.0
 50
0.0
 51
0.0
 71
     0
 72
  1000
 73
     1
 74
     3
 75
     0
 76
     1
 77
     0
 78
     0
  0
ENDTAB
  0
TABLE
  2
LTYPE
 70
     2
  0
LTYPE
  2
CONTINUOUS
 70
     0
  3
Solid line
 72
    65
 73
     0
 40
0.0
  0
ENDTAB
  0
TABLE
  2
LAYER
 70
     1
  0
LAYER
  2
0
 70
     0
 62
     7
  6
CONTINUOUS
  0
ENDTAB
  0
TABLE
  2
STYLE
 70
     2
  0
STYLE
  2
STANDARD
 70
     0
 40
0.0
 41
1.0
 50
0.0
 71
     0
 42
2.5
  3
txt
  4

  0
STYLE
  2
ANNOTATIVE
 70
     0
 40
0.0
 41
1.0
 50
0.0
 71
     0
 42
2.5
  3
txt
  4

  0
ENDTAB
  0
TABLE
  2
VIEW
 70
     0
  0
ENDTAB
  0
TABLE
  2
UCS
 70
     0
  0
ENDTAB
  0
TABLE
  2
APPID
 70
     9
  0
APPID
  2
ACAD
 70
     0
  0
APPID
  2
ACAD_PSEXT
 70
     0
  0
APPID
  2
ACADANNOPO
 70
     0
  0
APPID
  2
ACADANNOTATIVE
 70
     0
  0
APPID
  2
ACAD_DSTYLE_DIMJAG
 70
     0
  0
APPID
  2
ACAD_DSTYLE_DIMTALN
 70
     0
  0
APPID
  2
ACAD_MLEADERVER
 70
     0
  0
APPID
  2
ACAD_NAV_VCDISPLAY
 70
     0
  0
APPID
  2
ACAD_EXEMPT_FROM_CAD_STANDARDS
 70
     0
  0
ENDTAB
  0
TABLE
  2
DIMSTYLE
 70
     4
  0
DIMSTYLE
  2
STANDARD
 70
     0
  3

  4

  5

  6

  7

 40
1.0
 41
0.18
 42
0.0625
 43
0.38
 44
0.18
 45
0.0
 46
0.0
 47
0.0
 48
0.0
140
0.18
141
0.09
142
0.0
143
25.3999999999999986
144
1.0
145
0.0
146
1.0
147
0.09
 71
     0
 72
     0
 73
     1
 74
     1
 75
     0
 76
     0
 77
     0
 78
     0
170
     0
171
     2
172
     0
173
     0
174
     0
175
     0
176
     0
177
     0
178
     0
  0
DIMSTYLE
  2
ANNOTATIVE
 70
     0
  3

  4

  5

  6

  7

 40
0.0
 41
2.5
 42
0.625
 43
3.75
 44
1.25
 45
0.0
 46
0.0
 47
0.0
 48
0.0
140
2.5
141
2.5
142
0.0
143
0.03937007874016
144
1.0
145
0.0
146
1.0
147
0.625
 71
     0
 72
     0
 73
     0
 74
     0
 75
     0
 76
     0
 77
     1
 78
     8
170
     0
171
     3
172
     1
173
     0
174
     0
175
     0
176
     0
177
     0
178
     0
  0
DIMSTYLE
  2
ISO-25
 70
     0
  3

  4

  5

  6

  7

 40
1.0
 41
2.5
 42
0.625
 43
3.75
 44
1.25
 45
0.0
 46
0.0
 47
0.0
 48
0.0
140
2.5
141
2.5
142
0.0
143
0.03937007874016
144
1.0
145
0.0
146
1.0
147
0.625
 71
     0
 72
     0
 73
     0
 74
     0
 75
     0
 76
     0
 77
     1
 78
     8
170
     0
171
     3
172
     1
173
     0
174
     0
175
     0
176
     0
177
     0
178
     0
  0
ENDTAB
  0
ENDSEC
  0
SECTION
  2
BLOCKS
  0
BLOCK
  8
0
  2
$MODEL_SPACE
 70
     0
 10
0.0
 20
0.0
 30
0.0
  3
$MODEL_SPACE
  1

  0
ENDBLK
  5
21
  8
0
  0
BLOCK
 67
     1
  8
0
  2
$PAPER_SPACE
 70
     0
 10
0.0
 20
0.0
 30
0.0
  3
$PAPER_SPACE
  1

  0
ENDBLK
  5
D5
 67
     1
  8
0
  0
ENDSEC
  0
SECTION
  2
ENTITIES
  0
LINE
  5
991
  8
0
 10
2.5
 20
0.0000000000000018
 30
0.0
 11
2.4984770675477388
 21
0.0872487417562535
 31
0.0
  0
LINE
  5
992
  8
0
 10
2.4984770675477388
 20
0.0872487417562535
 30
0.0
 11
2.4939101256495588
 21
0.1743911843603154
 31
0.0
  0
LINE
  5
993
  8
0
 10
2.4939101256495588
 20
0.1743911843603154
 30
0.0
 11
2.486304738420682
 21
0.2613211581691353
 31
0.0
  0
LINE
  5
994
  8
0
 10
2.486304738420682
 20
0.2613211581691353
 30
0.0
 11
2.475670171853924
 21
0.3479327524001654
 31
0.0
  0
LINE
  5
995
  8
0
 10
2.475670171853924
 20
0.3479327524001654
 30
0.0
 11
2.4620193825305181
 21
0.434120444167327
 31
0.0
  0
LINE
  5
996
  8
0
 10
2.4620193825305181
 20
0.434120444167327
 30
0.0
 11
2.445369001834512
 21
0.5197792270444009
 31
0.0
  0
LINE
  5
997
  8
0
 10
2.445369001834512
 20
0.5197792270444009
 30
0.0
 11
2.4257393156899889
 21
0.6048047389991709
 31
0.0
  0
LINE
  5
998
  8
0
 10
2.4257393156899889
 20
0.6048047389991709
 30
0.0
 11
2.4031542398457959
 21
0.6890933895424994
 31
0.0
  0
LINE
  5
999
  8
0
 10
2.4031542398457959
 20
0.6890933895424994
 30
0.0
 11
2.3776412907378819
 21
0.77254248593737
 31
0.0
  0
LINE
  5
99A
  8
0
 10
2.3776412907378819
 20
0.77254248593737
 30
0.0
 11
2.34923155196477
 21
0.8550503583141733
 31
0.0
  0
LINE
  5
99B
  8
0
 10
2.34923155196477
 20
0.8550503583141733
 30
0.0
 11
2.3179596364169681
 21
0.9365164835397816
 31
0.0
  0
LINE
  5
99C
  8
0
 10
2.3179596364169681
 20
0.9365164835397816
 30
0.0
 11
2.2838636441065008
 21
1.016841607689501
 31
0.0
  0
LINE
  5
99D
  8
0
 10
2.2838636441065008
 20
1.016841607689501
 30
0.0
 11
2.2469851157479162
 21
1.0959278669726951
 31
0.0
  0
LINE
  5
99E
  8
0
 10
2.2469851157479162
 20
1.0959278669726951
 30
0.0
 11
2.207368982147317
 21
1.1736789069647271
 31
0.0
  0
LINE
  5
99F
  8
0
 10
2.207368982147317
 20
1.1736789069647271
 30
0.0
 11
2.165063509461095
 21
1.2500000000000011
 31
0.0
  0
LINE
  5
9A0
  8
0
 10
2.165063509461095
 20
1.2500000000000011
 30
0.0
 11
2.1201202403910639
 21
1.324798160583013
 31
0.0
  0
LINE
  5
9A1
  8
0
 10
2.1201202403910639
 20
1.324798160583013
 30
0.0
 11
2.0725939313876021
 21
1.3979822586768691
 31
0.0
  0
LINE
  5
9A2
  8
0
 10
2.0725939313876021
 20
1.3979822586768691
 30
0.0
 11
2.0225424859373682
 21
1.469463130731183
 31
0.0
  0
LINE
  5
9A3
  8
0
 10
2.0225424859373682
 20
1.469463130731183
 30
0.0
 11
1.970026884016804
 21
1.539153688314147
 31
0.0
  0
LINE
  5
9A4
  8
0
 10
1.970026884016804
 20
1.539153688314147
 30
0.0
 11
1.9151111077974441
 21
1.606969024216349
 31
0.0
  0
LINE
  5
9A5
  8
0
 10
1.9151111077974441
 20
1.606969024216349
 30
0.0
 11
1.8578620636934839
 21
1.6728265158971469
 31
0.0
  0
LINE
  5
9A6
  8
0
 10
1.8578620636934839
 20
1.6728265158971469
 30
0.0
 11
1.7983495008466279
 21
1.736645926147494
 31
0.0
  0
LINE
  5
9A7
  8
0
 10
1.7983495008466279
 20
1.736645926147494
 30
0.0
 11
1.736645926147492
 21
1.798349500846629
 31
0.0
  0
LINE
  5
9A8
  8
0
 10
1.736645926147492
 20
1.798349500846629
 30
0.0
 11
1.672826515897144
 21
1.8578620636934859
 31
0.0
  0
LINE
  5
9A9
  8
0
 10
1.672826515897144
 20
1.8578620636934859
 30
0.0
 11
1.606969024216347
 21
1.915111107797445
 31
0.0
  0
LINE
  5
9AA
  8
0
 10
1.606969024216347
 20
1.915111107797445
 30
0.0
 11
1.5391536883141439
 21
1.9700268840168069
 31
0.0
  0
LINE
  5
9AB
  8
0
 10
1.5391536883141439
 20
1.9700268840168069
 30
0.0
 11
1.469463130731181
 21
2.0225424859373691
 31
0.0
  0
LINE
  5
9AC
  8
0
 10
1.469463130731181
 20
2.0225424859373691
 30
0.0
 11
1.3979822586768651
 21
2.0725939313876061
 31
0.0
  0
LINE
  5
9AD
  8
0
 10
1.3979822586768651
 20
2.0725939313876061
 30
0.0
 11
1.324798160583011
 21
2.1201202403910648
 31
0.0
  0
LINE
  5
9AE
  8
0
 10
1.324798160583011
 20
2.1201202403910648
 30
0.0
 11
1.2499999999999989
 21
2.1650635094610968
 31
0.0
  0
LINE
  5
9AF
  8
0
 10
1.2499999999999989
 20
2.1650635094610968
 30
0.0
 11
1.173678906964726
 21
2.2073689821473179
 31
0.0
  0
LINE
  5
9B0
  8
0
 10
1.173678906964726
 20
2.2073689821473179
 30
0.0
 11
1.095927866972692
 21
2.2469851157479179
 31
0.0
  0
LINE
  5
9B1
  8
0
 10
1.095927866972692
 20
2.2469851157479179
 30
0.0
 11
1.016841607689499
 21
2.283863644106503
 31
0.0
  0
LINE
  5
9B2
  8
0
 10
1.016841607689499
 20
2.283863644106503
 30
0.0
 11
0.9365164835397785
 21
2.3179596364169699
 31
0.0
  0
LINE
  5
9B3
  8
0
 10
0.9365164835397785
 20
2.3179596364169699
 30
0.0
 11
0.8550503583141706
 21
2.3492315519647722
 31
0.0
  0
LINE
  5
9B4
  8
0
 10
0.8550503583141706
 20
2.3492315519647722
 30
0.0
 11
0.7725424859373682
 21
2.3776412907378841
 31
0.0
  0
LINE
  5
9B5
  8
0
 10
0.7725424859373682
 20
2.3776412907378841
 30
0.0
 11
0.6890933895424967
 21
2.403154239845799
 31
0.0
  0
LINE
  5
9B6
  8
0
 10
0.6890933895424967
 20
2.403154239845799
 30
0.0
 11
0.6048047389991682
 21
2.4257393156899911
 31
0.0
  0
LINE
  5
9B7
  8
0
 10
0.6048047389991682
 20
2.4257393156899911
 30
0.0
 11
0.5197792270443982
 21
2.4453690018345151
 31
0.0
  0
LINE
  5
9B8
  8
0
 10
0.5197792270443982
 20
2.4453690018345151
 30
0.0
 11
0.4341204441673248
 21
2.4620193825305221
 31
0.0
  0
LINE
  5
9B9
  8
0
 10
0.4341204441673248
 20
2.4620193825305221
 30
0.0
 11
0.3479327524001627
 21
2.4756701718539249
 31
0.0
  0
LINE
  5
9BA
  8
0
 10
0.3479327524001627
 20
2.4756701718539249
 30
0.0
 11
0.2613211581691326
 21
2.4863047384206829
 31
0.0
  0
LINE
  5
9BB
  8
0
 10
0.2613211581691326
 20
2.4863047384206829
 30
0.0
 11
0.1743911843603119
 21
2.493910125649561
 31
0.0
  0
LINE
  5
9BC
  8
0
 10
0.1743911843603119
 20
2.493910125649561
 30
0.0
 11
0.0872487417562513
 21
2.498477067547741
 31
0.0
  0
LINE
  5
9BD
  8
0
 10
0.0872487417562513
 20
2.498477067547741
 30
0.0
 11
-0.0000000000000013
 21
2.5000000000000009
 31
0.0
  0
LINE
  5
9BE
  8
0
 10
-2.5
 20
-0.0000000000000009
 30
0.0
 11
-2.4984770675477388
 21
0.08724874175625
 31
0.0
  0
LINE
  5
9BF
  8
0
 10
-2.4984770675477388
 20
0.08724874175625
 30
0.0
 11
-2.4939101256495588
 21
0.1743911843603119
 31
0.0
  0
LINE
  5
9C0
  8
0
 10
-2.4939101256495588
 20
0.1743911843603119
 30
0.0
 11
-2.486304738420682
 21
0.2613211581691335
 31
0.0
  0
LINE
  5
9C1
  8
0
 10
-2.486304738420682
 20
0.2613211581691335
 30
0.0
 11
-2.475670171853924
 21
0.3479327524001636
 31
0.0
  0
LINE
  5
9C2
  8
0
 10
-2.475670171853924
 20
0.3479327524001636
 30
0.0
 11
-2.4620193825305181
 21
0.4341204441673252
 31
0.0
  0
LINE
  5
9C3
  8
0
 10
-2.4620193825305181
 20
0.4341204441673252
 30
0.0
 11
-2.445369001834512
 21
0.5197792270443973
 31
0.0
  0
LINE
  5
9C4
  8
0
 10
-2.445369001834512
 20
0.5197792270443973
 30
0.0
 11
-2.4257393156899889
 21
0.6048047389991691
 31
0.0
  0
LINE
  5
9C5
  8
0
 10
-2.4257393156899889
 20
0.6048047389991691
 30
0.0
 11
-2.4031542398457959
 21
0.6890933895424975
 31
0.0
  0
LINE
  5
9C6
  8
0
 10
-2.4031542398457959
 20
0.6890933895424975
 30
0.0
 11
-2.3776412907378832
 21
0.7725424859373664
 31
0.0
  0
LINE
  5
9C7
  8
0
 10
-2.3776412907378832
 20
0.7725424859373664
 30
0.0
 11
-2.3492315519647708
 21
0.8550503583141715
 31
0.0
  0
LINE
  5
9C8
  8
0
 10
-2.3492315519647708
 20
0.8550503583141715
 30
0.0
 11
-2.317959636416969
 21
0.9365164835397781
 31
0.0
  0
LINE
  5
9C9
  8
0
 10
-2.317959636416969
 20
0.9365164835397781
 30
0.0
 11
-2.2838636441065021
 21
1.0168416076894979
 31
0.0
  0
LINE
  5
9CA
  8
0
 10
-2.2838636441065021
 20
1.0168416076894979
 30
0.0
 11
-2.246985115747917
 21
1.095927866972692
 31
0.0
  0
LINE
  5
9CB
  8
0
 10
-2.246985115747917
 20
1.095927866972692
 30
0.0
 11
-2.207368982147317
 21
1.173678906964726
 31
0.0
  0
LINE
  5
9CC
  8
0
 10
-2.207368982147317
 20
1.173678906964726
 30
0.0
 11
-2.1650635094610959
 21
1.249999999999998
 31
0.0
  0
LINE
  5
9CD
  8
0
 10
-2.1650635094610959
 20
1.249999999999998
 30
0.0
 11
-2.1201202403910648
 21
1.324798160583009
 31
0.0
  0
LINE
  5
9CE
  8
0
 10
-2.1201202403910648
 20
1.324798160583009
 30
0.0
 11
-2.072593931387603
 21
1.3979822586768671
 31
0.0
  0
LINE
  5
9CF
  8
0
 10
-2.072593931387603
 20
1.3979822586768671
 30
0.0
 11
-2.0225424859373691
 21
1.469463130731179
 31
0.0
  0
LINE
  5
9D0
  8
0
 10
-2.0225424859373691
 20
1.469463130731179
 30
0.0
 11
-1.9700268840168049
 21
1.539153688314145
 31
0.0
  0
LINE
  5
9D1
  8
0
 10
-1.9700268840168049
 20
1.539153688314145
 30
0.0
 11
-1.9151111077974461
 21
1.606969024216345
 31
0.0
  0
LINE
  5
9D2
  8
0
 10
-1.9151111077974461
 20
1.606969024216345
 30
0.0
 11
-1.8578620636934851
 21
1.672826515897144
 31
0.0
  0
LINE
  5
9D3
  8
0
 10
-1.8578620636934851
 20
1.672826515897144
 30
0.0
 11
-1.798349500846629
 21
1.73664592614749
 31
0.0
  0
LINE
  5
9D4
  8
0
 10
-1.798349500846629
 20
1.73664592614749
 30
0.0
 11
-1.736645926147494
 21
1.7983495008466279
 31
0.0
  0
LINE
  5
9D5
  8
0
 10
-1.736645926147494
 20
1.7983495008466279
 30
0.0
 11
-1.672826515897146
 21
1.8578620636934831
 31
0.0
  0
LINE
  5
9D6
  8
0
 10
-1.672826515897146
 20
1.8578620636934831
 30
0.0
 11
-1.606969024216349
 21
1.915111107797445
 31
0.0
  0
LINE
  5
9D7
  8
0
 10
-1.606969024216349
 20
1.915111107797445
 30
0.0
 11
-1.539153688314145
 21
1.9700268840168049
 31
0.0
  0
LINE
  5
9D8
  8
0
 10
-1.539153688314145
 20
1.9700268840168049
 30
0.0
 11
-1.469463130731183
 21
2.0225424859373691
 31
0.0
  0
LINE
  5
9D9
  8
0
 10
-1.469463130731183
 20
2.0225424859373691
 30
0.0
 11
-1.3979822586768671
 21
2.0725939313876061
 31
0.0
  0
LINE
  5
9DA
  8
0
 10
-1.3979822586768671
 20
2.0725939313876061
 30
0.0
 11
-1.324798160583013
 21
2.1201202403910648
 31
0.0
  0
LINE
  5
9DB
  8
0
 10
-1.324798160583013
 20
2.1201202403910648
 30
0.0
 11
-1.2500000000000011
 21
2.1650635094610968
 31
0.0
  0
LINE
  5
9DC
  8
0
 10
-1.2500000000000011
 20
2.1650635094610968
 30
0.0
 11
-1.1736789069647271
 21
2.207368982147317
 31
0.0
  0
LINE
  5
9DD
  8
0
 10
-1.1736789069647271
 20
2.207368982147317
 30
0.0
 11
-1.095927866972694
 21
2.2469851157479162
 31
0.0
  0
LINE
  5
9DE
  8
0
 10
-1.095927866972694
 20
2.2469851157479162
 30
0.0
 11
-1.0168416076895019
 21
2.2838636441065008
 31
0.0
  0
LINE
  5
9DF
  8
0
 10
-1.0168416076895019
 20
2.2838636441065008
 30
0.0
 11
-0.9365164835397807
 21
2.3179596364169699
 31
0.0
  0
LINE
  5
9E0
  8
0
 10
-0.9365164835397807
 20
2.3179596364169699
 30
0.0
 11
-0.8550503583141729
 21
2.3492315519647722
 31
0.0
  0
LINE
  5
9E1
  8
0
 10
-0.8550503583141729
 20
2.3492315519647722
 30
0.0
 11
-0.7725424859373704
 21
2.3776412907378819
 31
0.0
  0
LINE
  5
9E2
  8
0
 10
-0.7725424859373704
 20
2.3776412907378819
 30
0.0
 11
-0.6890933895424989
 21
2.403154239845799
 31
0.0
  0
LINE
  5
9E3
  8
0
 10
-0.6890933895424989
 20
2.403154239845799
 30
0.0
 11
-0.6048047389991705
 21
2.4257393156899889
 31
0.0
  0
LINE
  5
9E4
  8
0
 10
-0.6048047389991705
 20
2.4257393156899889
 30
0.0
 11
-0.5197792270444004
 21
2.4453690018345151
 31
0.0
  0
LINE
  5
9E5
  8
0
 10
-0.5197792270444004
 20
2.4453690018345151
 30
0.0
 11
-0.434120444167327
 21
2.4620193825305221
 31
0.0
  0
LINE
  5
9E6
  8
0
 10
-0.434120444167327
 20
2.4620193825305221
 30
0.0
 11
-0.347932752400165
 21
2.4756701718539249
 31
0.0
  0
LINE
  5
9E7
  8
0
 10
-0.347932752400165
 20
2.4756701718539249
 30
0.0
 11
-0.2613211581691348
 21
2.4863047384206829
 31
0.0
  0
LINE
  5
9E8
  8
0
 10
-0.2613211581691348
 20
2.4863047384206829
 30
0.0
 11
-0.1743911843603141
 21
2.493910125649561
 31
0.0
  0
LINE
  5
9E9
  8
0
 10
-0.1743911843603141
 20
2.493910125649561
 30
0.0
 11
-0.0872487417562535
 21
2.498477067547741
 31
0.0
  0
LINE
  5
9EA
  8
0
 10
-0.0872487417562535
 20
2.498477067547741
 30
0.0
 11
-0.0000000000000009
 21
2.5000000000000009
 31
0.0
  0
LINE
  5
9EB
  8
0
 10
2.5
 20
0.0000000000000018
 30
0.0
 11
2.4984770675477388
 21
-0.08724874175625
 31
0.0
  0
LINE
  5
9EC
  8
0
 10
2.4984770675477388
 20
-0.08724874175625
 30
0.0
 11
2.4939101256495588
 21
-0.1743911843603119
 31
0.0
  0
LINE
  5
9ED
  8
0
 10
2.4939101256495588
 20
-0.1743911843603119
 30
0.0
 11
2.486304738420682
 21
-0.2613211581691317
 31
0.0
  0
LINE
  5
9EE
  8
0
 10
2.486304738420682
 20
-0.2613211581691317
 30
0.0
 11
2.475670171853924
 21
-0.3479327524001619
 31
0.0
  0
LINE
  5
9EF
  8
0
 10
2.475670171853924
 20
-0.3479327524001619
 30
0.0
 11
2.4620193825305181
 21
-0.4341204441673235
 31
0.0
  0
LINE
  5
9F0
  8
0
 10
2.4620193825305181
 20
-0.4341204441673235
 30
0.0
 11
2.445369001834512
 21
-0.5197792270443973
 31
0.0
  0
LINE
  5
9F1
  8
0
 10
2.445369001834512
 20
-0.5197792270443973
 30
0.0
 11
2.4257393156899889
 21
-0.6048047389991674
 31
0.0
  0
LINE
  5
9F2
  8
0
 10
2.4257393156899889
 20
-0.6048047389991674
 30
0.0
 11
2.4031542398457959
 21
-0.6890933895424958
 31
0.0
  0
LINE
  5
9F3
  8
0
 10
2.4031542398457959
 20
-0.6890933895424958
 30
0.0
 11
2.3776412907378832
 21
-0.7725424859373664
 31
0.0
  0
LINE
  5
9F4
  8
0
 10
2.3776412907378832
 20
-0.7725424859373664
 30
0.0
 11
2.3492315519647708
 21
-0.8550503583141696
 31
0.0
  0
LINE
  5
9F5
  8
0
 10
2.3492315519647708
 20
-0.8550503583141696
 30
0.0
 11
2.317959636416969
 21
-0.9365164835397781
 31
0.0
  0
LINE
  5
9F6
  8
0
 10
2.317959636416969
 20
-0.9365164835397781
 30
0.0
 11
2.2838636441065021
 21
-1.0168416076894979
 31
0.0
  0
LINE
  5
9F7
  8
0
 10
2.2838636441065021
 20
-1.0168416076894979
 30
0.0
 11
2.246985115747917
 21
-1.095927866972692
 31
0.0
  0
LINE
  5
9F8
  8
0
 10
2.246985115747917
 20
-1.095927866972692
 30
0.0
 11
2.207368982147317
 21
-1.173678906964724
 31
0.0
  0
LINE
  5
9F9
  8
0
 10
2.207368982147317
 20
-1.173678906964724
 30
0.0
 11
2.1650635094610959
 21
-1.249999999999998
 31
0.0
  0
LINE
  5
9FA
  8
0
 10
2.1650635094610959
 20
-1.249999999999998
 30
0.0
 11
2.1201202403910648
 21
-1.324798160583009
 31
0.0
  0
LINE
  5
9FB
  8
0
 10
2.1201202403910648
 20
-1.324798160583009
 30
0.0
 11
2.072593931387603
 21
-1.3979822586768651
 31
0.0
  0
LINE
  5
9FC
  8
0
 10
2.072593931387603
 20
-1.3979822586768651
 30
0.0
 11
2.0225424859373691
 21
-1.469463130731179
 31
0.0
  0
LINE
  5
9FD
  8
0
 10
2.0225424859373691
 20
-1.469463130731179
 30
0.0
 11
1.9700268840168049
 21
-1.5391536883141439
 31
0.0
  0
LINE
  5
9FE
  8
0
 10
1.9700268840168049
 20
-1.5391536883141439
 30
0.0
 11
1.9151111077974461
 21
-1.606969024216345
 31
0.0
  0
LINE
  5
9FF
  8
0
 10
1.9151111077974461
 20
-1.606969024216345
 30
0.0
 11
1.8578620636934851
 21
-1.672826515897144
 31
0.0
  0
LINE
  5
A00
  8
0
 10
1.8578620636934851
 20
-1.672826515897144
 30
0.0
 11
1.798349500846629
 21
-1.73664592614749
 31
0.0
  0
LINE
  5
A01
  8
0
 10
1.798349500846629
 20
-1.73664592614749
 30
0.0
 11
1.736645926147494
 21
-1.7983495008466259
 31
0.0
  0
LINE
  5
A02
  8
0
 10
1.736645926147494
 20
-1.7983495008466259
 30
0.0
 11
1.672826515897146
 21
-1.8578620636934831
 31
0.0
  0
LINE
  5
A03
  8
0
 10
1.672826515897146
 20
-1.8578620636934831
 30
0.0
 11
1.606969024216349
 21
-1.915111107797443
 31
0.0
  0
LINE
  5
A04
  8
0
 10
1.606969024216349
 20
-1.915111107797443
 30
0.0
 11
1.539153688314145
 21
-1.9700268840168049
 31
0.0
  0
LINE
  5
A05
  8
0
 10
1.539153688314145
 20
-1.9700268840168049
 30
0.0
 11
1.469463130731183
 21
-2.0225424859373682
 31
0.0
  0
LINE
  5
A06
  8
0
 10
1.469463130731183
 20
-2.0225424859373682
 30
0.0
 11
1.3979822586768671
 21
-2.0725939313876038
 31
0.0
  0
LINE
  5
A07
  8
0
 10
1.3979822586768671
 20
-2.0725939313876038
 30
0.0
 11
1.324798160583013
 21
-2.1201202403910631
 31
0.0
  0
LINE
  5
A08
  8
0
 10
1.324798160583013
 20
-2.1201202403910631
 30
0.0
 11
1.2500000000000011
 21
-2.165063509461095
 31
0.0
  0
LINE
  5
A09
  8
0
 10
1.2500000000000011
 20
-2.165063509461095
 30
0.0
 11
1.1736789069647271
 21
-2.207368982147317
 31
0.0
  0
LINE
  5
A0A
  8
0
 10
1.1736789069647271
 20
-2.207368982147317
 30
0.0
 11
1.095927866972694
 21
-2.2469851157479162
 31
0.0
  0
LINE
  5
A0B
  8
0
 10
1.095927866972694
 20
-2.2469851157479162
 30
0.0
 11
1.0168416076895019
 21
-2.2838636441065008
 31
0.0
  0
LINE
  5
A0C
  8
0
 10
1.0168416076895019
 20
-2.2838636441065008
 30
0.0
 11
0.9365164835397807
 21
-2.317959636416969
 31
0.0
  0
LINE
  5
A0D
  8
0
 10
0.9365164835397807
 20
-2.317959636416969
 30
0.0
 11
0.8550503583141729
 21
-2.34923155196477
 31
0.0
  0
LINE
  5
A0E
  8
0
 10
0.8550503583141729
 20
-2.34923155196477
 30
0.0
 11
0.7725424859373704
 21
-2.3776412907378819
 31
0.0
  0
LINE
  5
A0F
  8
0
 10
0.7725424859373704
 20
-2.3776412907378819
 30
0.0
 11
0.6890933895424989
 21
-2.4031542398457968
 31
0.0
  0
LINE
  5
A10
  8
0
 10
0.6890933895424989
 20
-2.4031542398457968
 30
0.0
 11
0.6048047389991705
 21
-2.4257393156899889
 31
0.0
  0
LINE
  5
A11
  8
0
 10
0.6048047389991705
 20
-2.4257393156899889
 30
0.0
 11
0.5197792270444004
 21
-2.4453690018345138
 31
0.0
  0
LINE
  5
A12
  8
0
 10
0.5197792270444004
 20
-2.4453690018345138
 30
0.0
 11
0.434120444167327
 21
-2.4620193825305199
 31
0.0
  0
LINE
  5
A13
  8
0
 10
0.434120444167327
 20
-2.4620193825305199
 30
0.0
 11
0.347932752400165
 21
-2.475670171853924
 31
0.0
  0
LINE
  5
A14
  8
0
 10
0.347932752400165
 20
-2.475670171853924
 30
0.0
 11
0.2613211581691348
 21
-2.4863047384206811
 31
0.0
  0
LINE
  5
A15
  8
0
 10
0.2613211581691348
 20
-2.4863047384206811
 30
0.0
 11
0.1743911843603141
 21
-2.4939101256495588
 31
0.0
  0
LINE
  5
A16
  8
0
 10
0.1743911843603141
 20
-2.4939101256495588
 30
0.0
 11
0.0872487417562535
 21
-2.4984770675477388
 31
0.0
  0
LINE
  5
A17
  8
0
 10
0.0872487417562535
 20
-2.4984770675477388
 30
0.0
 11
0.0000000000000009
 21
-2.5000000000000009
 31
0.0
  0
LINE
  5
A18
  8
0
 10
-2.5
 20
-0.0000000000000009
 30
0.0
 11
-2.4984770675477388
 21
-0.0872487417562518
 31
0.0
  0
LINE
  5
A19
  8
0
 10
-2.4984770675477388
 20
-0.0872487417562518
 30
0.0
 11
-2.4939101256495588
 21
-0.1743911843603136
 31
0.0
  0
LINE
  5
A1A
  8
0
 10
-2.4939101256495588
 20
-0.1743911843603136
 30
0.0
 11
-2.486304738420682
 21
-0.2613211581691353
 31
0.0
  0
LINE
  5
A1B
  8
0
 10
-2.486304738420682
 20
-0.2613211581691353
 30
0.0
 11
-2.475670171853924
 21
-0.3479327524001654
 31
0.0
  0
LINE
  5
A1C
  8
0
 10
-2.475670171853924
 20
-0.3479327524001654
 30
0.0
 11
-2.4620193825305181
 21
-0.434120444167327
 31
0.0
  0
LINE
  5
A1D
  8
0
 10
-2.4620193825305181
 20
-0.434120444167327
 30
0.0
 11
-2.445369001834512
 21
-0.5197792270443991
 31
0.0
  0
LINE
  5
A1E
  8
0
 10
-2.445369001834512
 20
-0.5197792270443991
 30
0.0
 11
-2.4257393156899889
 21
-0.6048047389991709
 31
0.0
  0
LINE
  5
A1F
  8
0
 10
-2.4257393156899889
 20
-0.6048047389991709
 30
0.0
 11
-2.403154239845795
 21
-0.6890933895424994
 31
0.0
  0
LINE
  5
A20
  8
0
 10
-2.403154239845795
 20
-0.6890933895424994
 30
0.0
 11
-2.3776412907378819
 21
-0.7725424859373682
 31
0.0
  0
LINE
  5
A21
  8
0
 10
-2.3776412907378819
 20
-0.7725424859373682
 30
0.0
 11
-2.34923155196477
 21
-0.8550503583141733
 31
0.0
  0
LINE
  5
A22
  8
0
 10
-2.34923155196477
 20
-0.8550503583141733
 30
0.0
 11
-2.3179596364169681
 21
-0.9365164835397798
 31
0.0
  0
LINE
  5
A23
  8
0
 10
-2.3179596364169681
 20
-0.9365164835397798
 30
0.0
 11
-2.2838636441065008
 21
-1.016841607689499
 31
0.0
  0
LINE
  5
A24
  8
0
 10
-2.2838636441065008
 20
-1.016841607689499
 30
0.0
 11
-2.2469851157479162
 21
-1.095927866972694
 31
0.0
  0
LINE
  5
A25
  8
0
 10
-2.2469851157479162
 20
-1.095927866972694
 30
0.0
 11
-2.207368982147317
 21
-1.1736789069647271
 31
0.0
  0
LINE
  5
A26
  8
0
 10
-2.207368982147317
 20
-1.1736789069647271
 30
0.0
 11
-2.165063509461095
 21
-1.25
 31
0.0
  0
LINE
  5
A27
  8
0
 10
-2.165063509461095
 20
-1.25
 30
0.0
 11
-2.1201202403910639
 21
-1.324798160583011
 31
0.0
  0
LINE
  5
A28
  8
0
 10
-2.1201202403910639
 20
-1.324798160583011
 30
0.0
 11
-2.0725939313876021
 21
-1.3979822586768691
 31
0.0
  0
LINE
  5
A29
  8
0
 10
-2.0725939313876021
 20
-1.3979822586768691
 30
0.0
 11
-2.0225424859373669
 21
-1.469463130731181
 31
0.0
  0
LINE
  5
A2A
  8
0
 10
-2.0225424859373669
 20
-1.469463130731181
 30
0.0
 11
-1.9700268840168029
 21
-1.539153688314147
 31
0.0
  0
LINE
  5
A2B
  8
0
 10
-1.9700268840168029
 20
-1.539153688314147
 30
0.0
 11
-1.9151111077974441
 21
-1.606969024216347
 31
0.0
  0
LINE
  5
A2C
  8
0
 10
-1.9151111077974441
 20
-1.606969024216347
 30
0.0
 11
-1.8578620636934839
 21
-1.672826515897146
 31
0.0
  0
LINE
  5
A2D
  8
0
 10
-1.8578620636934839
 20
-1.672826515897146
 30
0.0
 11
-1.7983495008466279
 21
-1.736645926147492
 31
0.0
  0
LINE
  5
A2E
  8
0
 10
-1.7983495008466279
 20
-1.736645926147492
 30
0.0
 11
-1.736645926147492
 21
-1.798349500846629
 31
0.0
  0
LINE
  5
A2F
  8
0
 10
-1.736645926147492
 20
-1.798349500846629
 30
0.0
 11
-1.672826515897144
 21
-1.8578620636934851
 31
0.0
  0
LINE
  5
A30
  8
0
 10
-1.672826515897144
 20
-1.8578620636934851
 30
0.0
 11
-1.606969024216347
 21
-1.915111107797445
 31
0.0
  0
LINE
  5
A31
  8
0
 10
-1.606969024216347
 20
-1.915111107797445
 30
0.0
 11
-1.5391536883141439
 21
-1.9700268840168049
 31
0.0
  0
LINE
  5
A32
  8
0
 10
-1.5391536883141439
 20
-1.9700268840168049
 30
0.0
 11
-1.469463130731181
 21
-2.0225424859373691
 31
0.0
  0
LINE
  5
A33
  8
0
 10
-1.469463130731181
 20
-2.0225424859373691
 30
0.0
 11
-1.3979822586768651
 21
-2.0725939313876061
 31
0.0
  0
LINE
  5
A34
  8
0
 10
-1.3979822586768651
 20
-2.0725939313876061
 30
0.0
 11
-1.324798160583011
 21
-2.1201202403910648
 31
0.0
  0
LINE
  5
A35
  8
0
 10
-1.324798160583011
 20
-2.1201202403910648
 30
0.0
 11
-1.2499999999999989
 21
-2.1650635094610968
 31
0.0
  0
LINE
  5
A36
  8
0
 10
-1.2499999999999989
 20
-2.1650635094610968
 30
0.0
 11
-1.1736789069647251
 21
-2.207368982147317
 31
0.0
  0
LINE
  5
A37
  8
0
 10
-1.1736789069647251
 20
-2.207368982147317
 30
0.0
 11
-1.095927866972692
 21
-2.2469851157479162
 31
0.0
  0
LINE
  5
A38
  8
0
 10
-1.095927866972692
 20
-2.2469851157479162
 30
0.0
 11
-1.0168416076894999
 21
-2.2838636441065008
 31
0.0
  0
LINE
  5
A39
  8
0
 10
-1.0168416076894999
 20
-2.2838636441065008
 30
0.0
 11
-0.9365164835397785
 21
-2.3179596364169699
 31
0.0
  0
LINE
  5
A3A
  8
0
 10
-0.9365164835397785
 20
-2.3179596364169699
 30
0.0
 11
-0.8550503583141706
 21
-2.3492315519647722
 31
0.0
  0
LINE
  5
A3B
  8
0
 10
-0.8550503583141706
 20
-2.3492315519647722
 30
0.0
 11
-0.7725424859373682
 21
-2.3776412907378819
 31
0.0
  0
LINE
  5
A3C
  8
0
 10
-0.7725424859373682
 20
-2.3776412907378819
 30
0.0
 11
-0.6890933895424967
 21
-2.403154239845799
 31
0.0
  0
LINE
  5
A3D
  8
0
 10
-0.6890933895424967
 20
-2.403154239845799
 30
0.0
 11
-0.6048047389991682
 21
-2.4257393156899889
 31
0.0
  0
LINE
  5
A3E
  8
0
 10
-0.6048047389991682
 20
-2.4257393156899889
 30
0.0
 11
-0.5197792270443982
 21
-2.4453690018345151
 31
0.0
  0
LINE
  5
A3F
  8
0
 10
-0.5197792270443982
 20
-2.4453690018345151
 30
0.0
 11
-0.4341204441673248
 21
-2.4620193825305221
 31
0.0
  0
LINE
  5
A40
  8
0
 10
-0.4341204441673248
 20
-2.4620193825305221
 30
0.0
 11
-0.3479327524001627
 21
-2.4756701718539249
 31
0.0
  0
LINE
  5
A41
  8
0
 10
-0.3479327524001627
 20
-2.4756701718539249
 30
0.0
 11
-0.2613211581691326
 21
-2.4863047384206829
 31
0.0
  0
LINE
  5
A42
  8
0
 10
-0.2613211581691326
 20
-2.4863047384206829
 30
0.0
 11
-0.1743911843603119
 21
-2.493910125649561
 31
0.0
  0
LINE
  5
A43
  8
0
 10
-0.1743911843603119
 20
-2.493910125649561
 30
0.0
 11
-0.0872487417562513
 21
-2.498477067547741
 31
0.0
  0
LINE
  5
A44
  8
0
 10
-0.0872487417562513
 20
-2.498477067547741
 30
0.0
 11
0.0000000000000013
 21
-2.5000000000000009
 31
0.0
  0
LINE
  5
A98
  8
0
 10
0.0
 20
0.0
 30
0.0
 11
10.0
 21
0.0
 31
0.0
  0
LINE
  5
A99
  8
0
 10
10.0
 20
0.0
 30
0.0
 11
5.0000000000000009
 21
8.6602540378443873
 31
0.0
  0
LINE
  5
A9A
  8
0
 10
5.0000000000000009
 20
8.6602540378443873
 30
0.0
 11
0.0
 21
0.0
 31
0.0
  0
LINE
  5
A9B
  8
0
 10
0.0
 20
0.0
 30
0.0
 11
-1.25
 21
2.1650635094610982
 31
0.0
  0
LINE
  5
A9C
  8
0
 10
0.0
 20
0.0
 30
0.0
 11
1.25
 21
-2.1650635094610959
 31
0.0
  0
LINE
  5
A9D
  8
0
 10
12.5
 20
0.0000000000000018
 30
0.0
 11
12.4984770675477392
 21
0.0872487417562535
 31
0.0
  0
LINE
  5
A9E
  8
0
 10
12.4984770675477392
 20
0.0872487417562535
 30
0.0
 11
12.4939101256495597
 21
0.1743911843603154
 31
0.0
  0
LINE
  5
A9F
  8
0
 10
12.4939101256495597
 20
0.1743911843603154
 30
0.0
 11
12.4863047384206798
 21
0.2613211581691353
 31
0.0
  0
LINE
  5
AA0
  8
0
 10
12.4863047384206798
 20
0.2613211581691353
 30
0.0
 11
12.4756701718539205
 21
0.3479327524001654
 31
0.0
  0
LINE
  5
AA1
  8
0
 10
12.4756701718539205
 20
0.3479327524001654
 30
0.0
 11
12.4620193825305208
 21
0.434120444167327
 31
0.0
  0
LINE
  5
AA2
  8
0
 10
12.4620193825305208
 20
0.434120444167327
 30
0.0
 11
12.4453690018345107
 21
0.5197792270444009
 31
0.0
  0
LINE
  5
AA3
  8
0
 10
12.4453690018345107
 20
0.5197792270444009
 30
0.0
 11
12.4257393156899898
 21
0.6048047389991709
 31
0.0
  0
LINE
  5
AA4
  8
0
 10
12.4257393156899898
 20
0.6048047389991709
 30
0.0
 11
12.4031542398457901
 21
0.6890933895424994
 31
0.0
  0
LINE
  5
AA5
  8
0
 10
12.4031542398457901
 20
0.6890933895424994
 30
0.0
 11
12.3776412907378806
 21
0.77254248593737
 31
0.0
  0
LINE
  5
AA6
  8
0
 10
12.3776412907378806
 20
0.77254248593737
 30
0.0
 11
12.3492315519647704
 21
0.8550503583141733
 31
0.0
  0
LINE
  5
AA7
  8
0
 10
12.3492315519647704
 20
0.8550503583141733
 30
0.0
 11
12.3179596364169708
 21
0.9365164835397816
 31
0.0
  0
LINE
  5
AA8
  8
0
 10
12.3179596364169708
 20
0.9365164835397816
 30
0.0
 11
12.2838636441064999
 21
1.016841607689501
 31
0.0
  0
LINE
  5
AA9
  8
0
 10
12.2838636441064999
 20
1.016841607689501
 30
0.0
 11
12.2469851157479095
 21
1.0959278669726951
 31
0.0
  0
LINE
  5
AAA
  8
0
 10
12.2469851157479095
 20
1.0959278669726951
 30
0.0
 11
12.2073689821473099
 21
1.1736789069647271
 31
0.0
  0
LINE
  5
AAB
  8
0
 10
12.2073689821473099
 20
1.1736789069647271
 30
0.0
 11
12.1650635094610902
 21
1.2500000000000011
 31
0.0
  0
LINE
  5
AAC
  8
0
 10
12.1650635094610902
 20
1.2500000000000011
 30
0.0
 11
12.12012024039106
 21
1.324798160583013
 31
0.0
  0
LINE
  5
AAD
  8
0
 10
12.12012024039106
 20
1.324798160583013
 30
0.0
 11
12.0725939313875994
 21
1.3979822586768691
 31
0.0
  0
LINE
  5
AAE
  8
0
 10
12.0725939313875994
 20
1.3979822586768691
 30
0.0
 11
12.02254248593737
 21
1.469463130731183
 31
0.0
  0
LINE
  5
AAF
  8
0
 10
12.02254248593737
 20
1.469463130731183
 30
0.0
 11
11.9700268840168
 21
1.539153688314147
 31
0.0
  0
LINE
  5
AB0
  8
0
 10
11.9700268840168
 20
1.539153688314147
 30
0.0
 11
11.9151111077974399
 21
1.606969024216349
 31
0.0
  0
LINE
  5
AB1
  8
0
 10
11.9151111077974399
 20
1.606969024216349
 30
0.0
 11
11.8578620636934797
 21
1.6728265158971469
 31
0.0
  0
LINE
  5
AB2
  8
0
 10
11.8578620636934797
 20
1.6728265158971469
 30
0.0
 11
11.7983495008466193
 21
1.736645926147494
 31
0.0
  0
LINE
  5
AB3
  8
0
 10
11.7983495008466193
 20
1.736645926147494
 30
0.0
 11
11.7366459261474905
 21
1.798349500846629
 31
0.0
  0
LINE
  5
AB4
  8
0
 10
11.7366459261474905
 20
1.798349500846629
 30
0.0
 11
11.6728265158971407
 21
1.8578620636934859
 31
0.0
  0
LINE
  5
AB5
  8
0
 10
11.6728265158971407
 20
1.8578620636934859
 30
0.0
 11
11.6069690242163404
 21
1.915111107797445
 31
0.0
  0
LINE
  5
AB6
  8
0
 10
11.6069690242163404
 20
1.915111107797445
 30
0.0
 11
11.5391536883141406
 21
1.9700268840168069
 31
0.0
  0
LINE
  5
AB7
  8
0
 10
11.5391536883141406
 20
1.9700268840168069
 30
0.0
 11
11.4694631307311798
 21
2.0225424859373691
 31
0.0
  0
LINE
  5
AB8
  8
0
 10
11.4694631307311798
 20
2.0225424859373691
 30
0.0
 11
11.3979822586768602
 21
2.0725939313876061
 31
0.0
  0
LINE
  5
AB9
  8
0
 10
11.3979822586768602
 20
2.0725939313876061
 30
0.0
 11
11.3247981605830095
 21
2.1201202403910648
 31
0.0
  0
LINE
  5
ABA
  8
0
 10
11.3247981605830095
 20
2.1201202403910648
 30
0.0
 11
11.25
 21
2.1650635094610968
 31
0.0
  0
LINE
  5
ABB
  8
0
 10
11.25
 20
2.1650635094610968
 30
0.0
 11
11.1736789069647209
 21
2.2073689821473179
 31
0.0
  0
LINE
  5
ABC
  8
0
 10
11.1736789069647209
 20
2.2073689821473179
 30
0.0
 11
11.0959278669726906
 21
2.2469851157479179
 31
0.0
  0
LINE
  5
ABD
  8
0
 10
11.0959278669726906
 20
2.2469851157479179
 30
0.0
 11
11.0168416076894999
 21
2.283863644106503
 31
0.0
  0
LINE
  5
ABE
  8
0
 10
11.0168416076894999
 20
2.283863644106503
 30
0.0
 11
10.9365164835397692
 21
2.3179596364169699
 31
0.0
  0
LINE
  5
ABF
  8
0
 10
10.9365164835397692
 20
2.3179596364169699
 30
0.0
 11
10.8550503583141698
 21
2.3492315519647722
 31
0.0
  0
LINE
  5
AC0
  8
0
 10
10.8550503583141698
 20
2.3492315519647722
 30
0.0
 11
10.77254248593737
 21
2.3776412907378841
 31
0.0
  0
LINE
  5
AC1
  8
0
 10
10.77254248593737
 20
2.3776412907378841
 30
0.0
 11
10.6890933895424904
 21
2.403154239845799
 31
0.0
  0
LINE
  5
AC2
  8
0
 10
10.6890933895424904
 20
2.403154239845799
 30
0.0
 11
10.6048047389991602
 21
2.4257393156899911
 31
0.0
  0
LINE
  5
AC3
  8
0
 10
10.6048047389991602
 20
2.4257393156899911
 30
0.0
 11
10.5197792270444008
 21
2.4453690018345151
 31
0.0
  0
LINE
  5
AC4
  8
0
 10
10.5197792270444008
 20
2.4453690018345151
 30
0.0
 11
10.4341204441673199
 21
2.4620193825305221
 31
0.0
  0
LINE
  5
AC5
  8
0
 10
10.4341204441673199
 20
2.4620193825305221
 30
0.0
 11
10.3479327524001601
 21
2.4756701718539249
 31
0.0
  0
LINE
  5
AC6
  8
0
 10
10.3479327524001601
 20
2.4756701718539249
 30
0.0
 11
10.2613211581691299
 21
2.4863047384206829
 31
0.0
  0
LINE
  5
AC7
  8
0
 10
10.2613211581691299
 20
2.4863047384206829
 30
0.0
 11
10.1743911843603101
 21
2.493910125649561
 31
0.0
  0
LINE
  5
AC8
  8
0
 10
10.1743911843603101
 20
2.493910125649561
 30
0.0
 11
10.08724874175625
 21
2.498477067547741
 31
0.0
  0
LINE
  5
AC9
  8
0
 10
10.08724874175625
 20
2.498477067547741
 30
0.0
 11
9.9999999999999982
 21
2.5000000000000009
 31
0.0
  0
LINE
  5
ACA
  8
0
 10
7.5
 20
-0.0000000000000009
 30
0.0
 11
7.5015229324522599
 21
0.08724874175625
 31
0.0
  0
LINE
  5
ACB
  8
0
 10
7.5015229324522599
 20
0.08724874175625
 30
0.0
 11
7.5060898743504403
 21
0.1743911843603119
 31
0.0
  0
LINE
  5
ACC
  8
0
 10
7.5060898743504403
 20
0.1743911843603119
 30
0.0
 11
7.5136952615793167
 21
0.2613211581691335
 31
0.0
  0
LINE
  5
ACD
  8
0
 10
7.5136952615793167
 20
0.2613211581691335
 30
0.0
 11
7.5243298281460751
 21
0.3479327524001636
 31
0.0
  0
LINE
  5
ACE
  8
0
 10
7.5243298281460751
 20
0.3479327524001636
 30
0.0
 11
7.537980617469481
 21
0.4341204441673252
 31
0.0
  0
LINE
  5
ACF
  8
0
 10
7.537980617469481
 20
0.4341204441673252
 30
0.0
 11
7.5546309981654867
 21
0.5197792270443973
 31
0.0
  0
LINE
  5
AD0
  8
0
 10
7.5546309981654867
 20
0.5197792270443973
 30
0.0
 11
7.5742606843100102
 21
0.6048047389991691
 31
0.0
  0
LINE
  5
AD1
  8
0
 10
7.5742606843100102
 20
0.6048047389991691
 30
0.0
 11
7.5968457601542028
 21
0.6890933895424975
 31
0.0
  0
LINE
  5
AD2
  8
0
 10
7.5968457601542028
 20
0.6890933895424975
 30
0.0
 11
7.6223587092621159
 21
0.7725424859373664
 31
0.0
  0
LINE
  5
AD3
  8
0
 10
7.6223587092621159
 20
0.7725424859373664
 30
0.0
 11
7.6507684480352278
 21
0.8550503583141715
 31
0.0
  0
LINE
  5
AD4
  8
0
 10
7.6507684480352278
 20
0.8550503583141715
 30
0.0
 11
7.6820403635830301
 21
0.9365164835397781
 31
0.0
  0
LINE
  5
AD5
  8
0
 10
7.6820403635830301
 20
0.9365164835397781
 30
0.0
 11
7.7161363558934966
 21
1.0168416076894979
 31
0.0
  0
LINE
  5
AD6
  8
0
 10
7.7161363558934966
 20
1.0168416076894979
 30
0.0
 11
7.7530148842520816
 21
1.095927866972692
 31
0.0
  0
LINE
  5
AD7
  8
0
 10
7.7530148842520816
 20
1.095927866972692
 30
0.0
 11
7.7926310178526821
 21
1.173678906964726
 31
0.0
  0
LINE
  5
AD8
  8
0
 10
7.7926310178526821
 20
1.173678906964726
 30
0.0
 11
7.8349364905389027
 21
1.249999999999998
 31
0.0
  0
LINE
  5
AD9
  8
0
 10
7.8349364905389027
 20
1.249999999999998
 30
0.0
 11
7.8798797596089338
 21
1.324798160583009
 31
0.0
  0
LINE
  5
ADA
  8
0
 10
7.8798797596089338
 20
1.324798160583009
 30
0.0
 11
7.9274060686123962
 21
1.3979822586768671
 31
0.0
  0
LINE
  5
ADB
  8
0
 10
7.9274060686123962
 20
1.3979822586768671
 30
0.0
 11
7.97745751406263
 21
1.469463130731179
 31
0.0
  0
LINE
  5
ADC
  8
0
 10
7.97745751406263
 20
1.469463130731179
 30
0.0
 11
8.0299731159831946
 21
1.539153688314145
 31
0.0
  0
LINE
  5
ADD
  8
0
 10
8.0299731159831946
 20
1.539153688314145
 30
0.0
 11
8.084888892202553
 21
1.606969024216345
 31
0.0
  0
LINE
  5
ADE
  8
0
 10
8.084888892202553
 20
1.606969024216345
 30
0.0
 11
8.1421379363065132
 21
1.672826515897144
 31
0.0
  0
LINE
  5
ADF
  8
0
 10
8.1421379363065132
 20
1.672826515897144
 30
0.0
 11
8.2016504991533701
 21
1.73664592614749
 31
0.0
  0
LINE
  5
AE0
  8
0
 10
8.2016504991533701
 20
1.73664592614749
 30
0.0
 11
8.2633540738525042
 21
1.7983495008466279
 31
0.0
  0
LINE
  5
AE1
  8
0
 10
8.2633540738525042
 20
1.7983495008466279
 30
0.0
 11
8.3271734841028522
 21
1.8578620636934831
 31
0.0
  0
LINE
  5
AE2
  8
0
 10
8.3271734841028522
 20
1.8578620636934831
 30
0.0
 11
8.3930309757836508
 21
1.915111107797445
 31
0.0
  0
LINE
  5
AE3
  8
0
 10
8.3930309757836508
 20
1.915111107797445
 30
0.0
 11
8.4608463116858541
 21
1.9700268840168049
 31
0.0
  0
LINE
  5
AE4
  8
0
 10
8.4608463116858541
 20
1.9700268840168049
 30
0.0
 11
8.5305368692688166
 21
2.0225424859373691
 31
0.0
  0
LINE
  5
AE5
  8
0
 10
8.5305368692688166
 20
2.0225424859373691
 30
0.0
 11
8.6020177413231327
 21
2.0725939313876061
 31
0.0
  0
LINE
  5
AE6
  8
0
 10
8.6020177413231327
 20
2.0725939313876061
 30
0.0
 11
8.6752018394169852
 21
2.1201202403910648
 31
0.0
  0
LINE
  5
AE7
  8
0
 10
8.6752018394169852
 20
2.1201202403910648
 30
0.0
 11
8.7499999999999982
 21
2.1650635094610968
 31
0.0
  0
LINE
  5
AE8
  8
0
 10
8.7499999999999982
 20
2.1650635094610968
 30
0.0
 11
8.826321093035272
 21
2.207368982147317
 31
0.0
  0
LINE
  5
AE9
  8
0
 10
8.826321093035272
 20
2.207368982147317
 30
0.0
 11
8.9040721330273058
 21
2.2469851157479162
 31
0.0
  0
LINE
  5
AEA
  8
0
 10
8.9040721330273058
 20
2.2469851157479162
 30
0.0
 11
8.9831583923104983
 21
2.2838636441065008
 31
0.0
  0
LINE
  5
AEB
  8
0
 10
8.9831583923104983
 20
2.2838636441065008
 30
0.0
 11
9.0634835164602201
 21
2.3179596364169699
 31
0.0
  0
LINE
  5
AEC
  8
0
 10
9.0634835164602201
 20
2.3179596364169699
 30
0.0
 11
9.1449496416858267
 21
2.3492315519647722
 31
0.0
  0
LINE
  5
AED
  8
0
 10
9.1449496416858267
 20
2.3492315519647722
 30
0.0
 11
9.22745751406263
 21
2.3776412907378819
 31
0.0
  0
LINE
  5
AEE
  8
0
 10
9.22745751406263
 20
2.3776412907378819
 30
0.0
 11
9.3109066104575007
 21
2.403154239845799
 31
0.0
  0
LINE
  5
AEF
  8
0
 10
9.3109066104575007
 20
2.403154239845799
 30
0.0
 11
9.3951952610008291
 21
2.4257393156899889
 31
0.0
  0
LINE
  5
AF0
  8
0
 10
9.3951952610008291
 20
2.4257393156899889
 30
0.0
 11
9.4802207729555992
 21
2.4453690018345151
 31
0.0
  0
LINE
  5
AF1
  8
0
 10
9.4802207729555992
 20
2.4453690018345151
 30
0.0
 11
9.565879555832673
 21
2.4620193825305221
 31
0.0
  0
LINE
  5
AF2
  8
0
 10
9.565879555832673
 20
2.4620193825305221
 30
0.0
 11
9.6520672475998346
 21
2.4756701718539249
 31
0.0
  0
LINE
  5
AF3
  8
0
 10
9.6520672475998346
 20
2.4756701718539249
 30
0.0
 11
9.7386788418308647
 21
2.4863047384206829
 31
0.0
  0
LINE
  5
AF4
  8
0
 10
9.7386788418308647
 20
2.4863047384206829
 30
0.0
 11
9.8256088156396864
 21
2.493910125649561
 31
0.0
  0
LINE
  5
AF5
  8
0
 10
9.8256088156396864
 20
2.493910125649561
 30
0.0
 11
9.9127512582437465
 21
2.498477067547741
 31
0.0
  0
LINE
  5
AF6
  8
0
 10
9.9127512582437465
 20
2.498477067547741
 30
0.0
 11
10.0
 21
2.5000000000000009
 31
0.0
  0
LINE
  5
AF7
  8
0
 10
12.5
 20
0.0000000000000018
 30
0.0
 11
12.4984770675477392
 21
-0.08724874175625
 31
0.0
  0
LINE
  5
AF8
  8
0
 10
12.4984770675477392
 20
-0.08724874175625
 30
0.0
 11
12.4939101256495597
 21
-0.1743911843603119
 31
0.0
  0
LINE
  5
AF9
  8
0
 10
12.4939101256495597
 20
-0.1743911843603119
 30
0.0
 11
12.4863047384206798
 21
-0.2613211581691317
 31
0.0
  0
LINE
  5
AFA
  8
0
 10
12.4863047384206798
 20
-0.2613211581691317
 30
0.0
 11
12.4756701718539205
 21
-0.3479327524001619
 31
0.0
  0
LINE
  5
AFB
  8
0
 10
12.4756701718539205
 20
-0.3479327524001619
 30
0.0
 11
12.4620193825305208
 21
-0.4341204441673235
 31
0.0
  0
LINE
  5
AFC
  8
0
 10
12.4620193825305208
 20
-0.4341204441673235
 30
0.0
 11
12.4453690018345107
 21
-0.5197792270443973
 31
0.0
  0
LINE
  5
AFD
  8
0
 10
12.4453690018345107
 20
-0.5197792270443973
 30
0.0
 11
12.4257393156899898
 21
-0.6048047389991674
 31
0.0
  0
LINE
  5
AFE
  8
0
 10
12.4257393156899898
 20
-0.6048047389991674
 30
0.0
 11
12.4031542398457901
 21
-0.6890933895424958
 31
0.0
  0
LINE
  5
AFF
  8
0
 10
12.4031542398457901
 20
-0.6890933895424958
 30
0.0
 11
12.3776412907378806
 21
-0.7725424859373664
 31
0.0
  0
LINE
  5
B00
  8
0
 10
12.3776412907378806
 20
-0.7725424859373664
 30
0.0
 11
12.3492315519647704
 21
-0.8550503583141696
 31
0.0
  0
LINE
  5
B01
  8
0
 10
12.3492315519647704
 20
-0.8550503583141696
 30
0.0
 11
12.3179596364169708
 21
-0.9365164835397781
 31
0.0
  0
LINE
  5
B02
  8
0
 10
12.3179596364169708
 20
-0.9365164835397781
 30
0.0
 11
12.2838636441064999
 21
-1.0168416076894979
 31
0.0
  0
LINE
  5
B03
  8
0
 10
12.2838636441064999
 20
-1.0168416076894979
 30
0.0
 11
12.2469851157479201
 21
-1.095927866972692
 31
0.0
  0
LINE
  5
B04
  8
0
 10
12.2469851157479201
 20
-1.095927866972692
 30
0.0
 11
12.2073689821473206
 21
-1.173678906964724
 31
0.0
  0
LINE
  5
B05
  8
0
 10
12.2073689821473206
 20
-1.173678906964724
 30
0.0
 11
12.1650635094610902
 21
-1.249999999999998
 31
0.0
  0
LINE
  5
B06
  8
0
 10
12.1650635094610902
 20
-1.249999999999998
 30
0.0
 11
12.12012024039106
 21
-1.324798160583009
 31
0.0
  0
LINE
  5
B07
  8
0
 10
12.12012024039106
 20
-1.324798160583009
 30
0.0
 11
12.0725939313875994
 21
-1.3979822586768651
 31
0.0
  0
LINE
  5
B08
  8
0
 10
12.0725939313875994
 20
-1.3979822586768651
 30
0.0
 11
12.02254248593737
 21
-1.469463130731179
 31
0.0
  0
LINE
  5
B09
  8
0
 10
12.02254248593737
 20
-1.469463130731179
 30
0.0
 11
11.9700268840168
 21
-1.5391536883141439
 31
0.0
  0
LINE
  5
B0A
  8
0
 10
11.9700268840168
 20
-1.5391536883141439
 30
0.0
 11
11.9151111077974399
 21
-1.606969024216345
 31
0.0
  0
LINE
  5
B0B
  8
0
 10
11.9151111077974399
 20
-1.606969024216345
 30
0.0
 11
11.8578620636934797
 21
-1.672826515897144
 31
0.0
  0
LINE
  5
B0C
  8
0
 10
11.8578620636934797
 20
-1.672826515897144
 30
0.0
 11
11.7983495008466299
 21
-1.73664592614749
 31
0.0
  0
LINE
  5
B0D
  8
0
 10
11.7983495008466299
 20
-1.73664592614749
 30
0.0
 11
11.7366459261474905
 21
-1.7983495008466259
 31
0.0
  0
LINE
  5
B0E
  8
0
 10
11.7366459261474905
 20
-1.7983495008466259
 30
0.0
 11
11.6728265158971407
 21
-1.8578620636934831
 31
0.0
  0
LINE
  5
B0F
  8
0
 10
11.6728265158971407
 20
-1.8578620636934831
 30
0.0
 11
11.6069690242163492
 21
-1.915111107797443
 31
0.0
  0
LINE
  5
B10
  8
0
 10
11.6069690242163492
 20
-1.915111107797443
 30
0.0
 11
11.5391536883141406
 21
-1.9700268840168049
 31
0.0
  0
LINE
  5
B11
  8
0
 10
11.5391536883141406
 20
-1.9700268840168049
 30
0.0
 11
11.4694631307311798
 21
-2.0225424859373682
 31
0.0
  0
LINE
  5
B12
  8
0
 10
11.4694631307311798
 20
-2.0225424859373682
 30
0.0
 11
11.3979822586768709
 21
-2.0725939313876038
 31
0.0
  0
LINE
  5
B13
  8
0
 10
11.3979822586768709
 20
-2.0725939313876038
 30
0.0
 11
11.3247981605830095
 21
-2.1201202403910631
 31
0.0
  0
LINE
  5
B14
  8
0
 10
11.3247981605830095
 20
-2.1201202403910631
 30
0.0
 11
11.25
 21
-2.165063509461095
 31
0.0
  0
LINE
  5
B15
  8
0
 10
11.25
 20
-2.165063509461095
 30
0.0
 11
11.1736789069647298
 21
-2.207368982147317
 31
0.0
  0
LINE
  5
B16
  8
0
 10
11.1736789069647298
 20
-2.207368982147317
 30
0.0
 11
11.0959278669726906
 21
-2.2469851157479162
 31
0.0
  0
LINE
  5
B17
  8
0
 10
11.0959278669726906
 20
-2.2469851157479162
 30
0.0
 11
11.0168416076894999
 21
-2.2838636441065008
 31
0.0
  0
LINE
  5
B18
  8
0
 10
11.0168416076894999
 20
-2.2838636441065008
 30
0.0
 11
10.9365164835397799
 21
-2.317959636416969
 31
0.0
  0
LINE
  5
B19
  8
0
 10
10.9365164835397799
 20
-2.317959636416969
 30
0.0
 11
10.8550503583141698
 21
-2.34923155196477
 31
0.0
  0
LINE
  5
B1A
  8
0
 10
10.8550503583141698
 20
-2.34923155196477
 30
0.0
 11
10.77254248593737
 21
-2.3776412907378819
 31
0.0
  0
LINE
  5
B1B
  8
0
 10
10.77254248593737
 20
-2.3776412907378819
 30
0.0
 11
10.6890933895424993
 21
-2.4031542398457968
 31
0.0
  0
LINE
  5
B1C
  8
0
 10
10.6890933895424993
 20
-2.4031542398457968
 30
0.0
 11
10.6048047389991709
 21
-2.4257393156899889
 31
0.0
  0
LINE
  5
B1D
  8
0
 10
10.6048047389991709
 20
-2.4257393156899889
 30
0.0
 11
10.5197792270444008
 21
-2.4453690018345138
 31
0.0
  0
LINE
  5
B1E
  8
0
 10
10.5197792270444008
 20
-2.4453690018345138
 30
0.0
 11
10.4341204441673199
 21
-2.4620193825305199
 31
0.0
  0
LINE
  5
B1F
  8
0
 10
10.4341204441673199
 20
-2.4620193825305199
 30
0.0
 11
10.3479327524001601
 21
-2.475670171853924
 31
0.0
  0
LINE
  5
B20
  8
0
 10
10.3479327524001601
 20
-2.475670171853924
 30
0.0
 11
10.2613211581691299
 21
-2.4863047384206811
 31
0.0
  0
LINE
  5
B21
  8
0
 10
10.2613211581691299
 20
-2.4863047384206811
 30
0.0
 11
10.1743911843603101
 21
-2.4939101256495588
 31
0.0
  0
LINE
  5
B22
  8
0
 10
10.1743911843603101
 20
-2.4939101256495588
 30
0.0
 11
10.08724874175625
 21
-2.4984770675477388
 31
0.0
  0
LINE
  5
B23
  8
0
 10
10.08724874175625
 20
-2.4984770675477388
 30
0.0
 11
10.0
 21
-2.5000000000000009
 31
0.0
  0
LINE
  5
B24
  8
0
 10
7.5
 20
-0.0000000000000009
 30
0.0
 11
7.5015229324522599
 21
-0.0872487417562518
 31
0.0
  0
LINE
  5
B25
  8
0
 10
7.5015229324522599
 20
-0.0872487417562518
 30
0.0
 11
7.5060898743504403
 21
-0.1743911843603136
 31
0.0
  0
LINE
  5
B26
  8
0
 10
7.5060898743504403
 20
-0.1743911843603136
 30
0.0
 11
7.5136952615793167
 21
-0.2613211581691353
 31
0.0
  0
LINE
  5
B27
  8
0
 10
7.5136952615793167
 20
-0.2613211581691353
 30
0.0
 11
7.5243298281460751
 21
-0.3479327524001654
 31
0.0
  0
LINE
  5
B28
  8
0
 10
7.5243298281460751
 20
-0.3479327524001654
 30
0.0
 11
7.537980617469481
 21
-0.434120444167327
 31
0.0
  0
LINE
  5
B29
  8
0
 10
7.537980617469481
 20
-0.434120444167327
 30
0.0
 11
7.5546309981654867
 21
-0.5197792270443991
 31
0.0
  0
LINE
  5
B2A
  8
0
 10
7.5546309981654867
 20
-0.5197792270443991
 30
0.0
 11
7.5742606843100102
 21
-0.6048047389991709
 31
0.0
  0
LINE
  5
B2B
  8
0
 10
7.5742606843100102
 20
-0.6048047389991709
 30
0.0
 11
7.5968457601542037
 21
-0.6890933895424994
 31
0.0
  0
LINE
  5
B2C
  8
0
 10
7.5968457601542037
 20
-0.6890933895424994
 30
0.0
 11
7.6223587092621168
 21
-0.7725424859373682
 31
0.0
  0
LINE
  5
B2D
  8
0
 10
7.6223587092621168
 20
-0.7725424859373682
 30
0.0
 11
7.6507684480352287
 21
-0.8550503583141733
 31
0.0
  0
LINE
  5
B2E
  8
0
 10
7.6507684480352287
 20
-0.8550503583141733
 30
0.0
 11
7.6820403635830301
 21
-0.9365164835397798
 31
0.0
  0
LINE
  5
B2F
  8
0
 10
7.6820403635830301
 20
-0.9365164835397798
 30
0.0
 11
7.7161363558934983
 21
-1.016841607689499
 31
0.0
  0
LINE
  5
B30
  8
0
 10
7.7161363558934983
 20
-1.016841607689499
 30
0.0
 11
7.7530148842520834
 21
-1.095927866972694
 31
0.0
  0
LINE
  5
B31
  8
0
 10
7.7530148842520834
 20
-1.095927866972694
 30
0.0
 11
7.7926310178526821
 21
-1.1736789069647271
 31
0.0
  0
LINE
  5
B32
  8
0
 10
7.7926310178526821
 20
-1.1736789069647271
 30
0.0
 11
7.8349364905389036
 21
-1.25
 31
0.0
  0
LINE
  5
B33
  8
0
 10
7.8349364905389036
 20
-1.25
 30
0.0
 11
7.8798797596089347
 21
-1.324798160583011
 31
0.0
  0
LINE
  5
B34
  8
0
 10
7.8798797596089347
 20
-1.324798160583011
 30
0.0
 11
7.927406068612397
 21
-1.3979822586768691
 31
0.0
  0
LINE
  5
B35
  8
0
 10
7.927406068612397
 20
-1.3979822586768691
 30
0.0
 11
7.9774575140626309
 21
-1.469463130731181
 31
0.0
  0
LINE
  5
B36
  8
0
 10
7.9774575140626309
 20
-1.469463130731181
 30
0.0
 11
8.0299731159831964
 21
-1.539153688314147
 31
0.0
  0
LINE
  5
B37
  8
0
 10
8.0299731159831964
 20
-1.539153688314147
 30
0.0
 11
8.0848888922025548
 21
-1.606969024216347
 31
0.0
  0
LINE
  5
B38
  8
0
 10
8.0848888922025548
 20
-1.606969024216347
 30
0.0
 11
8.1421379363065132
 21
-1.672826515897146
 31
0.0
  0
LINE
  5
B39
  8
0
 10
8.1421379363065132
 20
-1.672826515897146
 30
0.0
 11
8.2016504991533719
 21
-1.736645926147492
 31
0.0
  0
LINE
  5
B3A
  8
0
 10
8.2016504991533719
 20
-1.736645926147492
 30
0.0
 11
8.2633540738525078
 21
-1.798349500846629
 31
0.0
  0
LINE
  5
B3B
  8
0
 10
8.2633540738525078
 20
-1.798349500846629
 30
0.0
 11
8.3271734841028557
 21
-1.8578620636934851
 31
0.0
  0
LINE
  5
B3C
  8
0
 10
8.3271734841028557
 20
-1.8578620636934851
 30
0.0
 11
8.3930309757836525
 21
-1.915111107797445
 31
0.0
  0
LINE
  5
B3D
  8
0
 10
8.3930309757836525
 20
-1.915111107797445
 30
0.0
 11
8.4608463116858559
 21
-1.9700268840168049
 31
0.0
  0
LINE
  5
B3E
  8
0
 10
8.4608463116858559
 20
-1.9700268840168049
 30
0.0
 11
8.5305368692688184
 21
-2.0225424859373691
 31
0.0
  0
LINE
  5
B3F
  8
0
 10
8.5305368692688184
 20
-2.0225424859373691
 30
0.0
 11
8.6020177413231345
 21
-2.0725939313876061
 31
0.0
  0
LINE
  5
B40
  8
0
 10
8.6020177413231345
 20
-2.0725939313876061
 30
0.0
 11
8.6752018394169887
 21
-2.1201202403910648
 31
0.0
  0
LINE
  5
B41
  8
0
 10
8.6752018394169887
 20
-2.1201202403910648
 30
0.0
 11
8.75
 21
-2.1650635094610968
 31
0.0
  0
LINE
  5
B42
  8
0
 10
8.75
 20
-2.1650635094610968
 30
0.0
 11
8.8263210930352738
 21
-2.207368982147317
 31
0.0
  0
LINE
  5
B43
  8
0
 10
8.8263210930352738
 20
-2.207368982147317
 30
0.0
 11
8.9040721330273076
 21
-2.2469851157479162
 31
0.0
  0
LINE
  5
B44
  8
0
 10
8.9040721330273076
 20
-2.2469851157479162
 30
0.0
 11
8.9831583923105001
 21
-2.2838636441065008
 31
0.0
  0
LINE
  5
B45
  8
0
 10
8.9831583923105001
 20
-2.2838636441065008
 30
0.0
 11
9.0634835164602219
 21
-2.3179596364169699
 31
0.0
  0
LINE
  5
B46
  8
0
 10
9.0634835164602219
 20
-2.3179596364169699
 30
0.0
 11
9.1449496416858302
 21
-2.3492315519647722
 31
0.0
  0
LINE
  5
B47
  8
0
 10
9.1449496416858302
 20
-2.3492315519647722
 30
0.0
 11
9.2274575140626318
 21
-2.3776412907378819
 31
0.0
  0
LINE
  5
B48
  8
0
 10
9.2274575140626318
 20
-2.3776412907378819
 30
0.0
 11
9.3109066104575042
 21
-2.403154239845799
 31
0.0
  0
LINE
  5
B49
  8
0
 10
9.3109066104575042
 20
-2.403154239845799
 30
0.0
 11
9.3951952610008327
 21
-2.4257393156899889
 31
0.0
  0
LINE
  5
B4A
  8
0
 10
9.3951952610008327
 20
-2.4257393156899889
 30
0.0
 11
9.4802207729555992
 21
-2.4453690018345151
 31
0.0
  0
LINE
  5
B4B
  8
0
 10
9.4802207729555992
 20
-2.4453690018345151
 30
0.0
 11
9.5658795558326748
 21
-2.4620193825305221
 31
0.0
  0
LINE
  5
B4C
  8
0
 10
9.5658795558326748
 20
-2.4620193825305221
 30
0.0
 11
9.6520672475998381
 21
-2.4756701718539249
 31
0.0
  0
LINE
  5
B4D
  8
0
 10
9.6520672475998381
 20
-2.4756701718539249
 30
0.0
 11
9.7386788418308683
 21
-2.4863047384206829
 31
0.0
  0
LINE
  5
B4E
  8
0
 10
9.7386788418308683
 20
-2.4863047384206829
 30
0.0
 11
9.8256088156396881
 21
-2.493910125649561
 31
0.0
  0
LINE
  5
B4F
  8
0
 10
9.8256088156396881
 20
-2.493910125649561
 30
0.0
 11
9.9127512582437483
 21
-2.498477067547741
 31
0.0
  0
LINE
  5
B50
  8
0
 10
9.9127512582437483
 20
-2.498477067547741
 30
0.0
 11
10.0
 21
-2.5000000000000009
 31
0.0
  0
LINE
  5
B51
  8
0
 10
10.0
 20
0.0
 30
0.0
 11
8.7499999999999982
 21
-2.1650635094610968
 31
0.0
  0
LINE
  5
B52
  8
0
 10
10.0
 20
0.0
 30
0.0
 11
11.25
 21
2.165063509461095
 31
0.0
  0
LINE
  5
B53
  8
0
 10
7.5000000000000009
 20
8.6602540378443891
 30
0.0
 11
7.498477067547741
 21
8.7475027796006408
 31
0.0
  0
LINE
  5
B54
  8
0
 10
7.498477067547741
 20
8.7475027796006408
 30
0.0
 11
7.4939101256495606
 21
8.8346452222047027
 31
0.0
  0
LINE
  5
B55
  8
0
 10
7.4939101256495606
 20
8.8346452222047027
 30
0.0
 11
7.4863047384206833
 21
8.9215751960135226
 31
0.0
  0
LINE
  5
B56
  8
0
 10
7.4863047384206833
 20
8.9215751960135226
 30
0.0
 11
7.4756701718539249
 21
9.0081867902445527
 31
0.0
  0
LINE
  5
B57
  8
0
 10
7.4756701718539249
 20
9.0081867902445527
 30
0.0
 11
7.4620193825305199
 21
9.0943744820117143
 31
0.0
  0
LINE
  5
B58
  8
0
 10
7.4620193825305199
 20
9.0943744820117143
 30
0.0
 11
7.4453690018345142
 21
9.1800332648887881
 31
0.0
  0
LINE
  5
B59
  8
0
 10
7.4453690018345142
 20
9.1800332648887881
 30
0.0
 11
7.4257393156899907
 21
9.2650587768435582
 31
0.0
  0
LINE
  5
B5A
  8
0
 10
7.4257393156899907
 20
9.2650587768435582
 30
0.0
 11
7.403154239845799
 21
9.3493474273868866
 31
0.0
  0
LINE
  5
B5B
  8
0
 10
7.403154239845799
 20
9.3493474273868866
 30
0.0
 11
7.3776412907378841
 21
9.4327965237817573
 31
0.0
  0
LINE
  5
B5C
  8
0
 10
7.3776412907378841
 20
9.4327965237817573
 30
0.0
 11
7.3492315519647722
 21
9.5153043961585606
 31
0.0
  0
LINE
  5
B5D
  8
0
 10
7.3492315519647722
 20
9.5153043961585606
 30
0.0
 11
7.3179596364169699
 21
9.5967705213841672
 31
0.0
  0
LINE
  5
B5E
  8
0
 10
7.3179596364169699
 20
9.5967705213841672
 30
0.0
 11
7.2838636441065034
 21
9.677095645533889
 31
0.0
  0
LINE
  5
B5F
  8
0
 10
7.2838636441065034
 20
9.677095645533889
 30
0.0
 11
7.2469851157479184
 21
9.7561819048170833
 31
0.0
  0
LINE
  5
B60
  8
0
 10
7.2469851157479184
 20
9.7561819048170833
 30
0.0
 11
7.2073689821473179
 21
9.8339329448091153
 31
0.0
  0
LINE
  5
B61
  8
0
 10
7.2073689821473179
 20
9.8339329448091153
 30
0.0
 11
7.1650635094610973
 21
9.9102540378443891
 31
0.0
  0
LINE
  5
B62
  8
0
 10
7.1650635094610973
 20
9.9102540378443891
 30
0.0
 11
7.1201202403910653
 21
9.9850521984274003
 31
0.0
  0
LINE
  5
B63
  8
0
 10
7.1201202403910653
 20
9.9850521984274003
 30
0.0
 11
7.0725939313876038
 21
10.0582362965212493
 31
0.0
  0
LINE
  5
B64
  8
0
 10
7.0725939313876038
 20
10.0582362965212493
 30
0.0
 11
7.0225424859373691
 21
10.1297171685755707
 31
0.0
  0
LINE
  5
B65
  8
0
 10
7.0225424859373691
 20
10.1297171685755707
 30
0.0
 11
6.9700268840168054
 21
10.1994077261585296
 31
0.0
  0
LINE
  5
B66
  8
0
 10
6.9700268840168054
 20
10.1994077261585296
 30
0.0
 11
6.9151111077974452
 21
10.2672230620607294
 31
0.0
  0
LINE
  5
B67
  8
0
 10
6.9151111077974452
 20
10.2672230620607294
 30
0.0
 11
6.8578620636934859
 21
10.3330805537415298
 31
0.0
  0
LINE
  5
B68
  8
0
 10
6.8578620636934859
 20
10.3330805537415298
 30
0.0
 11
6.798349500846629
 21
10.3968999639918795
 31
0.0
  0
LINE
  5
B69
  8
0
 10
6.798349500846629
 20
10.3968999639918795
 30
0.0
 11
6.736645926147494
 21
10.4586035386910208
 31
0.0
  0
LINE
  5
B6A
  8
0
 10
6.736645926147494
 20
10.4586035386910208
 30
0.0
 11
6.672826515897146
 21
10.5181161015378706
 31
0.0
  0
LINE
  5
B6B
  8
0
 10
6.672826515897146
 20
10.5181161015378706
 30
0.0
 11
6.6069690242163492
 21
10.5753651456418307
 31
0.0
  0
LINE
  5
B6C
  8
0
 10
6.6069690242163492
 20
10.5753651456418307
 30
0.0
 11
6.539153688314145
 21
10.6302809218611891
 31
0.0
  0
LINE
  5
B6D
  8
0
 10
6.539153688314145
 20
10.6302809218611891
 30
0.0
 11
6.4694631307311834
 21
10.6827965237817502
 31
0.0
  0
LINE
  5
B6E
  8
0
 10
6.4694631307311834
 20
10.6827965237817502
 30
0.0
 11
6.3979822586768673
 21
10.7328479692319902
 31
0.0
  0
LINE
  5
B6F
  8
0
 10
6.3979822586768673
 20
10.7328479692319902
 30
0.0
 11
6.324798160583013
 21
10.7803742782354508
 31
0.0
  0
LINE
  5
B70
  8
0
 10
6.324798160583013
 20
10.7803742782354508
 30
0.0
 11
6.2500000000000009
 21
10.8253175473054792
 31
0.0
  0
LINE
  5
B71
  8
0
 10
6.2500000000000009
 20
10.8253175473054792
 30
0.0
 11
6.1736789069647271
 21
10.8676230199917008
 31
0.0
  0
LINE
  5
B72
  8
0
 10
6.1736789069647271
 20
10.8676230199917008
 30
0.0
 11
6.0959278669726942
 21
10.9072391535923003
 31
0.0
  0
LINE
  5
B73
  8
0
 10
6.0959278669726942
 20
10.9072391535923003
 30
0.0
 11
6.0168416076895008
 21
10.9441176819508907
 31
0.0
  0
LINE
  5
B74
  8
0
 10
6.0168416076895008
 20
10.9441176819508907
 30
0.0
 11
5.936516483539779
 21
10.9782136742613599
 31
0.0
  0
LINE
  5
B75
  8
0
 10
5.936516483539779
 20
10.9782136742613599
 30
0.0
 11
5.8550503583141706
 21
11.0094855898091595
 31
0.0
  0
LINE
  5
B76
  8
0
 10
5.8550503583141706
 20
11.0094855898091595
 30
0.0
 11
5.7725424859373691
 21
11.0378953285822696
 31
0.0
  0
LINE
  5
B77
  8
0
 10
5.7725424859373691
 20
11.0378953285822696
 30
0.0
 11
5.6890933895424967
 21
11.0634082776901792
 31
0.0
  0
LINE
  5
B78
  8
0
 10
5.6890933895424967
 20
11.0634082776901792
 30
0.0
 11
5.6048047389991691
 21
11.0859933535343806
 31
0.0
  0
LINE
  5
B79
  8
0
 10
5.6048047389991691
 20
11.0859933535343806
 30
0.0
 11
5.5197792270443999
 21
11.1056230396788997
 31
0.0
  0
LINE
  5
B7A
  8
0
 10
5.5197792270443999
 20
11.1056230396788997
 30
0.0
 11
5.4341204441673261
 21
11.1222734203749098
 31
0.0
  0
LINE
  5
B7B
  8
0
 10
5.4341204441673261
 20
11.1222734203749098
 30
0.0
 11
5.3479327524001627
 21
11.1359242096983095
 31
0.0
  0
LINE
  5
B7C
  8
0
 10
5.3479327524001627
 20
11.1359242096983095
 30
0.0
 11
5.2613211581691326
 21
11.1465587762650706
 31
0.0
  0
LINE
  5
B7D
  8
0
 10
5.2613211581691326
 20
11.1465587762650706
 30
0.0
 11
5.1743911843603128
 21
11.1541641634939506
 31
0.0
  0
LINE
  5
B7E
  8
0
 10
5.1743911843603128
 20
11.1541641634939506
 30
0.0
 11
5.0872487417562526
 21
11.1587311053921301
 31
0.0
  0
LINE
  5
B7F
  8
0
 10
5.0872487417562526
 20
11.1587311053921301
 30
0.0
 11
5.0
 21
11.1602540378443909
 31
0.0
  0
LINE
  5
B80
  8
0
 10
2.5000000000000009
 20
8.6602540378443855
 30
0.0
 11
2.5015229324522621
 21
8.7475027796006373
 31
0.0
  0
LINE
  5
B81
  8
0
 10
2.5015229324522621
 20
8.7475027796006373
 30
0.0
 11
2.5060898743504421
 21
8.8346452222046992
 31
0.0
  0
LINE
  5
B82
  8
0
 10
2.5060898743504421
 20
8.8346452222046992
 30
0.0
 11
2.5136952615793189
 21
8.9215751960135208
 31
0.0
  0
LINE
  5
B83
  8
0
 10
2.5136952615793189
 20
8.9215751960135208
 30
0.0
 11
2.524329828146076
 21
9.0081867902445492
 31
0.0
  0
LINE
  5
B84
  8
0
 10
2.524329828146076
 20
9.0081867902445492
 30
0.0
 11
2.5379806174694819
 21
9.0943744820117125
 31
0.0
  0
LINE
  5
B85
  8
0
 10
2.5379806174694819
 20
9.0943744820117125
 30
0.0
 11
2.5546309981654889
 21
9.1800332648887846
 31
0.0
  0
LINE
  5
B86
  8
0
 10
2.5546309981654889
 20
9.1800332648887846
 30
0.0
 11
2.5742606843100111
 21
9.2650587768435564
 31
0.0
  0
LINE
  5
B87
  8
0
 10
2.5742606843100111
 20
9.2650587768435564
 30
0.0
 11
2.596845760154205
 21
9.3493474273868848
 31
0.0
  0
LINE
  5
B88
  8
0
 10
2.596845760154205
 20
9.3493474273868848
 30
0.0
 11
2.6223587092621181
 21
9.4327965237817537
 31
0.0
  0
LINE
  5
B89
  8
0
 10
2.6223587092621181
 20
9.4327965237817537
 30
0.0
 11
2.65076844803523
 21
9.5153043961585588
 31
0.0
  0
LINE
  5
B8A
  8
0
 10
2.65076844803523
 20
9.5153043961585588
 30
0.0
 11
2.6820403635830319
 21
9.5967705213841654
 31
0.0
  0
LINE
  5
B8B
  8
0
 10
2.6820403635830319
 20
9.5967705213841654
 30
0.0
 11
2.7161363558934992
 21
9.6770956455338855
 31
0.0
  0
LINE
  5
B8C
  8
0
 10
2.7161363558934992
 20
9.6770956455338855
 30
0.0
 11
2.7530148842520838
 21
9.7561819048170797
 31
0.0
  0
LINE
  5
B8D
  8
0
 10
2.7530148842520838
 20
9.7561819048170797
 30
0.0
 11
2.792631017852683
 21
9.8339329448091135
 31
0.0
  0
LINE
  5
B8E
  8
0
 10
2.792631017852683
 20
9.8339329448091135
 30
0.0
 11
2.834936490538905
 21
9.9102540378443855
 31
0.0
  0
LINE
  5
B8F
  8
0
 10
2.834936490538905
 20
9.9102540378443855
 30
0.0
 11
2.8798797596089361
 21
9.9850521984273968
 31
0.0
  0
LINE
  5
B90
  8
0
 10
2.8798797596089361
 20
9.9850521984273968
 30
0.0
 11
2.927406068612397
 21
10.0582362965212493
 31
0.0
  0
LINE
  5
B91
  8
0
 10
2.927406068612397
 20
10.0582362965212493
 30
0.0
 11
2.9774575140626318
 21
10.12971716857556
 31
0.0
  0
LINE
  5
B92
  8
0
 10
2.9774575140626318
 20
10.12971716857556
 30
0.0
 11
3.029973115983196
 21
10.1994077261585296
 31
0.0
  0
LINE
  5
B93
  8
0
 10
3.029973115983196
 20
10.1994077261585296
 30
0.0
 11
3.0848888922025539
 21
10.2672230620607294
 31
0.0
  0
LINE
  5
B94
  8
0
 10
3.0848888922025539
 20
10.2672230620607294
 30
0.0
 11
3.1421379363065158
 21
10.3330805537415298
 31
0.0
  0
LINE
  5
B95
  8
0
 10
3.1421379363065158
 20
10.3330805537415298
 30
0.0
 11
3.201650499153371
 21
10.3968999639918795
 31
0.0
  0
LINE
  5
B96
  8
0
 10
3.201650499153371
 20
10.3968999639918795
 30
0.0
 11
3.2633540738525069
 21
10.4586035386910101
 31
0.0
  0
LINE
  5
B97
  8
0
 10
3.2633540738525069
 20
10.4586035386910101
 30
0.0
 11
3.3271734841028549
 21
10.5181161015378706
 31
0.0
  0
LINE
  5
B98
  8
0
 10
3.3271734841028549
 20
10.5181161015378706
 30
0.0
 11
3.3930309757836521
 21
10.5753651456418307
 31
0.0
  0
LINE
  5
B99
  8
0
 10
3.3930309757836521
 20
10.5753651456418307
 30
0.0
 11
3.460846311685855
 21
10.6302809218611891
 31
0.0
  0
LINE
  5
B9A
  8
0
 10
3.460846311685855
 20
10.6302809218611891
 30
0.0
 11
3.5305368692688179
 21
10.6827965237817502
 31
0.0
  0
LINE
  5
B9B
  8
0
 10
3.5305368692688179
 20
10.6827965237817502
 30
0.0
 11
3.602017741323134
 21
10.7328479692319902
 31
0.0
  0
LINE
  5
B9C
  8
0
 10
3.602017741323134
 20
10.7328479692319902
 30
0.0
 11
3.6752018394169879
 21
10.7803742782354508
 31
0.0
  0
LINE
  5
B9D
  8
0
 10
3.6752018394169879
 20
10.7803742782354508
 30
0.0
 11
3.75
 21
10.8253175473054792
 31
0.0
  0
LINE
  5
B9E
  8
0
 10
3.75
 20
10.8253175473054792
 30
0.0
 11
3.8263210930352729
 21
10.8676230199917008
 31
0.0
  0
LINE
  5
B9F
  8
0
 10
3.8263210930352729
 20
10.8676230199917008
 30
0.0
 11
3.9040721330273072
 21
10.9072391535923003
 31
0.0
  0
LINE
  5
BA0
  8
0
 10
3.9040721330273072
 20
10.9072391535923003
 30
0.0
 11
3.9831583923105001
 21
10.9441176819508907
 31
0.0
  0
LINE
  5
BA1
  8
0
 10
3.9831583923105001
 20
10.9441176819508907
 30
0.0
 11
4.063483516460221
 21
10.9782136742613599
 31
0.0
  0
LINE
  5
BA2
  8
0
 10
4.063483516460221
 20
10.9782136742613599
 30
0.0
 11
4.1449496416858276
 21
11.0094855898091595
 31
0.0
  0
LINE
  5
BA3
  8
0
 10
4.1449496416858276
 20
11.0094855898091595
 30
0.0
 11
4.2274575140626309
 21
11.0378953285822696
 31
0.0
  0
LINE
  5
BA4
  8
0
 10
4.2274575140626309
 20
11.0378953285822696
 30
0.0
 11
4.3109066104575016
 21
11.0634082776901792
 31
0.0
  0
LINE
  5
BA5
  8
0
 10
4.3109066104575016
 20
11.0634082776901792
 30
0.0
 11
4.39519526100083
 21
11.0859933535343806
 31
0.0
  0
LINE
  5
BA6
  8
0
 10
4.39519526100083
 20
11.0859933535343806
 30
0.0
 11
4.4802207729556001
 21
11.1056230396788997
 31
0.0
  0
LINE
  5
BA7
  8
0
 10
4.4802207729556001
 20
11.1056230396788997
 30
0.0
 11
4.5658795558326739
 21
11.1222734203749098
 31
0.0
  0
LINE
  5
BA8
  8
0
 10
4.5658795558326739
 20
11.1222734203749098
 30
0.0
 11
4.6520672475998364
 21
11.1359242096983095
 31
0.0
  0
LINE
  5
BA9
  8
0
 10
4.6520672475998364
 20
11.1359242096983095
 30
0.0
 11
4.7386788418308656
 21
11.1465587762650706
 31
0.0
  0
LINE
  5
BAA
  8
0
 10
4.7386788418308656
 20
11.1465587762650706
 30
0.0
 11
4.8256088156396881
 21
11.1541641634939506
 31
0.0
  0
LINE
  5
BAB
  8
0
 10
4.8256088156396881
 20
11.1541641634939506
 30
0.0
 11
4.9127512582437483
 21
11.1587311053921301
 31
0.0
  0
LINE
  5
BAC
  8
0
 10
4.9127512582437483
 20
11.1587311053921301
 30
0.0
 11
5.0000000000000009
 21
11.1602540378443909
 31
0.0
  0
LINE
  5
BAD
  8
0
 10
7.5000000000000009
 20
8.6602540378443891
 30
0.0
 11
7.498477067547741
 21
8.5730052960881373
 31
0.0
  0
LINE
  5
BAE
  8
0
 10
7.498477067547741
 20
8.5730052960881373
 30
0.0
 11
7.4939101256495606
 21
8.4858628534840754
 31
0.0
  0
LINE
  5
BAF
  8
0
 10
7.4939101256495606
 20
8.4858628534840754
 30
0.0
 11
7.4863047384206833
 21
8.3989328796752556
 31
0.0
  0
LINE
  5
BB0
  8
0
 10
7.4863047384206833
 20
8.3989328796752556
 30
0.0
 11
7.4756701718539249
 21
8.3123212854442254
 31
0.0
  0
LINE
  5
BB1
  8
0
 10
7.4756701718539249
 20
8.3123212854442254
 30
0.0
 11
7.4620193825305199
 21
8.2261335936770639
 31
0.0
  0
LINE
  5
BB2
  8
0
 10
7.4620193825305199
 20
8.2261335936770639
 30
0.0
 11
7.4453690018345142
 21
8.14047481079999
 31
0.0
  0
LINE
  5
BB3
  8
0
 10
7.4453690018345142
 20
8.14047481079999
 30
0.0
 11
7.4257393156899907
 21
8.0554492988452182
 31
0.0
  0
LINE
  5
BB4
  8
0
 10
7.4257393156899907
 20
8.0554492988452182
 30
0.0
 11
7.403154239845799
 21
7.9711606483018906
 31
0.0
  0
LINE
  5
BB5
  8
0
 10
7.403154239845799
 20
7.9711606483018906
 30
0.0
 11
7.377641290737885
 21
7.88771155190702
 31
0.0
  0
LINE
  5
BB6
  8
0
 10
7.377641290737885
 20
7.88771155190702
 30
0.0
 11
7.3492315519647722
 21
7.8052036795302167
 31
0.0
  0
LINE
  5
BB7
  8
0
 10
7.3492315519647722
 20
7.8052036795302167
 30
0.0
 11
7.3179596364169699
 21
7.7237375543046092
 31
0.0
  0
LINE
  5
BB8
  8
0
 10
7.3179596364169699
 20
7.7237375543046092
 30
0.0
 11
7.2838636441065052
 21
7.6434124301548891
 31
0.0
  0
LINE
  5
BB9
  8
0
 10
7.2838636441065052
 20
7.6434124301548891
 30
0.0
 11
7.2469851157479201
 21
7.564326170871694
 31
0.0
  0
LINE
  5
BBA
  8
0
 10
7.2469851157479201
 20
7.564326170871694
 30
0.0
 11
7.2073689821473197
 21
7.486575130879662
 31
0.0
  0
LINE
  5
BBB
  8
0
 10
7.2073689821473197
 20
7.486575130879662
 30
0.0
 11
7.1650635094610973
 21
7.4102540378443891
 31
0.0
  0
LINE
  5
BBC
  8
0
 10
7.1650635094610973
 20
7.4102540378443891
 30
0.0
 11
7.1201202403910671
 21
7.3354558772613769
 31
0.0
  0
LINE
  5
BBD
  8
0
 10
7.1201202403910671
 20
7.3354558772613769
 30
0.0
 11
7.0725939313876056
 21
7.2622717791675209
 31
0.0
  0
LINE
  5
BBE
  8
0
 10
7.0725939313876056
 20
7.2622717791675209
 30
0.0
 11
7.0225424859373691
 21
7.1907909071132066
 31
0.0
  0
LINE
  5
BBF
  8
0
 10
7.0225424859373691
 20
7.1907909071132066
 30
0.0
 11
6.9700268840168071
 21
7.1211003495302432
 31
0.0
  0
LINE
  5
BC0
  8
0
 10
6.9700268840168071
 20
7.1211003495302432
 30
0.0
 11
6.9151111077974479
 21
7.0532850136280407
 31
0.0
  0
LINE
  5
BC1
  8
0
 10
6.9151111077974479
 20
7.0532850136280407
 30
0.0
 11
6.8578620636934859
 21
6.987427521947243
 31
0.0
  0
LINE
  5
BC2
  8
0
 10
6.8578620636934859
 20
6.987427521947243
 30
0.0
 11
6.7983495008466308
 21
6.9236081116968959
 31
0.0
  0
LINE
  5
BC3
  8
0
 10
6.7983495008466308
 20
6.9236081116968959
 30
0.0
 11
6.7366459261474949
 21
6.86190453699776
 31
0.0
  0
LINE
  5
BC4
  8
0
 10
6.7366459261474949
 20
6.86190453699776
 30
0.0
 11
6.6728265158971469
 21
6.802391974150904
 31
0.0
  0
LINE
  5
BC5
  8
0
 10
6.6728265158971469
 20
6.802391974150904
 30
0.0
 11
6.606969024216351
 21
6.745142930046943
 31
0.0
  0
LINE
  5
BC6
  8
0
 10
6.606969024216351
 20
6.745142930046943
 30
0.0
 11
6.5391536883141468
 21
6.690227153827581
 31
0.0
  0
LINE
  5
BC7
  8
0
 10
6.5391536883141468
 20
6.690227153827581
 30
0.0
 11
6.4694631307311852
 21
6.6377115519070191
 31
0.0
  0
LINE
  5
BC8
  8
0
 10
6.4694631307311852
 20
6.6377115519070191
 30
0.0
 11
6.3979822586768691
 21
6.5876601064567817
 31
0.0
  0
LINE
  5
BC9
  8
0
 10
6.3979822586768691
 20
6.5876601064567817
 30
0.0
 11
6.3247981605830139
 21
6.5401337974533229
 31
0.0
  0
LINE
  5
BCA
  8
0
 10
6.3247981605830139
 20
6.5401337974533229
 30
0.0
 11
6.2500000000000027
 21
6.4951905283832909
 31
0.0
  0
LINE
  5
BCB
  8
0
 10
6.2500000000000027
 20
6.4951905283832909
 30
0.0
 11
6.1736789069647289
 21
6.4528850556970703
 31
0.0
  0
LINE
  5
BCC
  8
0
 10
6.1736789069647289
 20
6.4528850556970703
 30
0.0
 11
6.0959278669726951
 21
6.4132689220964698
 31
0.0
  0
LINE
  5
BCD
  8
0
 10
6.0959278669726951
 20
6.4132689220964698
 30
0.0
 11
6.0168416076895026
 21
6.3763903937378847
 31
0.0
  0
LINE
  5
BCE
  8
0
 10
6.0168416076895026
 20
6.3763903937378847
 30
0.0
 11
5.9365164835397808
 21
6.3422944014274183
 31
0.0
  0
LINE
  5
BCF
  8
0
 10
5.9365164835397808
 20
6.3422944014274183
 30
0.0
 11
5.8550503583141751
 21
6.311022485879616
 31
0.0
  0
LINE
  5
BD0
  8
0
 10
5.8550503583141751
 20
6.311022485879616
 30
0.0
 11
5.7725424859373708
 21
6.2826127471065041
 31
0.0
  0
LINE
  5
BD1
  8
0
 10
5.7725424859373708
 20
6.2826127471065041
 30
0.0
 11
5.6890933895425011
 21
6.2570997979985901
 31
0.0
  0
LINE
  5
BD2
  8
0
 10
5.6890933895425011
 20
6.2570997979985901
 30
0.0
 11
5.6048047389991718
 21
6.2345147221543966
 31
0.0
  0
LINE
  5
BD3
  8
0
 10
5.6048047389991718
 20
6.2345147221543966
 30
0.0
 11
5.5197792270444017
 21
6.2148850360098731
 31
0.0
  0
LINE
  5
BD4
  8
0
 10
5.5197792270444017
 20
6.2148850360098731
 30
0.0
 11
5.4341204441673279
 21
6.1982346553138656
 31
0.0
  0
LINE
  5
BD5
  8
0
 10
5.4341204441673279
 20
6.1982346553138656
 30
0.0
 11
5.3479327524001672
 21
6.1845838659904633
 31
0.0
  0
LINE
  5
BD6
  8
0
 10
5.3479327524001672
 20
6.1845838659904633
 30
0.0
 11
5.261321158169137
 21
6.1739492994237049
 31
0.0
  0
LINE
  5
BD7
  8
0
 10
5.261321158169137
 20
6.1739492994237049
 30
0.0
 11
5.1743911843603154
 21
6.1663439121948267
 31
0.0
  0
LINE
  5
BD8
  8
0
 10
5.1743911843603154
 20
6.1663439121948267
 30
0.0
 11
5.0872487417562553
 21
6.1617769702966481
 31
0.0
  0
LINE
  5
BD9
  8
0
 10
5.0872487417562553
 20
6.1617769702966481
 30
0.0
 11
5.0000000000000009
 21
6.1602540378443846
 31
0.0
  0
LINE
  5
BDA
  8
0
 10
2.5000000000000009
 20
8.6602540378443855
 30
0.0
 11
2.5015229324522621
 21
8.5730052960881356
 31
0.0
  0
LINE
  5
BDB
  8
0
 10
2.5015229324522621
 20
8.5730052960881356
 30
0.0
 11
2.5060898743504421
 21
8.4858628534840737
 31
0.0
  0
LINE
  5
BDC
  8
0
 10
2.5060898743504421
 20
8.4858628534840737
 30
0.0
 11
2.5136952615793189
 21
8.398932879675252
 31
0.0
  0
LINE
  5
BDD
  8
0
 10
2.5136952615793189
 20
8.398932879675252
 30
0.0
 11
2.524329828146076
 21
8.3123212854442219
 31
0.0
  0
LINE
  5
BDE
  8
0
 10
2.524329828146076
 20
8.3123212854442219
 30
0.0
 11
2.5379806174694819
 21
8.2261335936770603
 31
0.0
  0
LINE
  5
BDF
  8
0
 10
2.5379806174694819
 20
8.2261335936770603
 30
0.0
 11
2.5546309981654889
 21
8.1404748107999882
 31
0.0
  0
LINE
  5
BE0
  8
0
 10
2.5546309981654889
 20
8.1404748107999882
 30
0.0
 11
2.5742606843100111
 21
8.0554492988452164
 31
0.0
  0
LINE
  5
BE1
  8
0
 10
2.5742606843100111
 20
8.0554492988452164
 30
0.0
 11
2.5968457601542059
 21
7.9711606483018871
 31
0.0
  0
LINE
  5
BE2
  8
0
 10
2.5968457601542059
 20
7.9711606483018871
 30
0.0
 11
2.622358709262119
 21
7.8877115519070191
 31
0.0
  0
LINE
  5
BE3
  8
0
 10
2.622358709262119
 20
7.8877115519070191
 30
0.0
 11
2.6507684480352309
 21
7.8052036795302131
 31
0.0
  0
LINE
  5
BE4
  8
0
 10
2.6507684480352309
 20
7.8052036795302131
 30
0.0
 11
2.6820403635830319
 21
7.7237375543046074
 31
0.0
  0
LINE
  5
BE5
  8
0
 10
2.6820403635830319
 20
7.7237375543046074
 30
0.0
 11
2.7161363558935001
 21
7.6434124301548874
 31
0.0
  0
LINE
  5
BE6
  8
0
 10
2.7161363558935001
 20
7.6434124301548874
 30
0.0
 11
2.7530148842520852
 21
7.5643261708716931
 31
0.0
  0
LINE
  5
BE7
  8
0
 10
2.7530148842520852
 20
7.5643261708716931
 30
0.0
 11
2.7926310178526839
 21
7.4865751308796593
 31
0.0
  0
LINE
  5
BE8
  8
0
 10
2.7926310178526839
 20
7.4865751308796593
 30
0.0
 11
2.8349364905389058
 21
7.4102540378443873
 31
0.0
  0
LINE
  5
BE9
  8
0
 10
2.8349364905389058
 20
7.4102540378443873
 30
0.0
 11
2.8798797596089369
 21
7.335455877261376
 31
0.0
  0
LINE
  5
BEA
  8
0
 10
2.8798797596089369
 20
7.335455877261376
 30
0.0
 11
2.9274060686123979
 21
7.2622717791675182
 31
0.0
  0
LINE
  5
BEB
  8
0
 10
2.9274060686123979
 20
7.2622717791675182
 30
0.0
 11
2.9774575140626331
 21
7.1907909071132048
 31
0.0
  0
LINE
  5
BEC
  8
0
 10
2.9774575140626331
 20
7.1907909071132048
 30
0.0
 11
3.0299731159831982
 21
7.1211003495302387
 31
0.0
  0
LINE
  5
BED
  8
0
 10
3.0299731159831982
 20
7.1211003495302387
 30
0.0
 11
3.0848888922025561
 21
7.0532850136280389
 31
0.0
  0
LINE
  5
BEE
  8
0
 10
3.0848888922025561
 20
7.0532850136280389
 30
0.0
 11
3.1421379363065158
 21
6.9874275219472413
 31
0.0
  0
LINE
  5
BEF
  8
0
 10
3.1421379363065158
 20
6.9874275219472413
 30
0.0
 11
3.2016504991533732
 21
6.9236081116968951
 31
0.0
  0
LINE
  5
BF0
  8
0
 10
3.2016504991533732
 20
6.9236081116968951
 30
0.0
 11
3.2633540738525091
 21
6.8619045369977574
 31
0.0
  0
LINE
  5
BF1
  8
0
 10
3.2633540738525091
 20
6.8619045369977574
 30
0.0
 11
3.3271734841028571
 21
6.8023919741509022
 31
0.0
  0
LINE
  5
BF2
  8
0
 10
3.3271734841028571
 20
6.8023919741509022
 30
0.0
 11
3.3930309757836539
 21
6.7451429300469421
 31
0.0
  0
LINE
  5
BF3
  8
0
 10
3.3930309757836539
 20
6.7451429300469421
 30
0.0
 11
3.4608463116858572
 21
6.690227153827581
 31
0.0
  0
LINE
  5
BF4
  8
0
 10
3.4608463116858572
 20
6.690227153827581
 30
0.0
 11
3.5305368692688202
 21
6.6377115519070173
 31
0.0
  0
LINE
  5
BF5
  8
0
 10
3.5305368692688202
 20
6.6377115519070173
 30
0.0
 11
3.6020177413231358
 21
6.5876601064567799
 31
0.0
  0
LINE
  5
BF6
  8
0
 10
3.6020177413231358
 20
6.5876601064567799
 30
0.0
 11
3.6752018394169901
 21
6.540133797453322
 31
0.0
  0
LINE
  5
BF7
  8
0
 10
3.6752018394169901
 20
6.540133797453322
 30
0.0
 11
3.7500000000000009
 21
6.49519052838329
 31
0.0
  0
LINE
  5
BF8
  8
0
 10
3.7500000000000009
 20
6.49519052838329
 30
0.0
 11
3.8263210930352751
 21
6.4528850556970703
 31
0.0
  0
LINE
  5
BF9
  8
0
 10
3.8263210930352751
 20
6.4528850556970703
 30
0.0
 11
3.9040721330273089
 21
6.4132689220964698
 31
0.0
  0
LINE
  5
BFA
  8
0
 10
3.9040721330273089
 20
6.4132689220964698
 30
0.0
 11
3.983158392310501
 21
6.3763903937378847
 31
0.0
  0
LINE
  5
BFB
  8
0
 10
3.983158392310501
 20
6.3763903937378847
 30
0.0
 11
4.0634835164602228
 21
6.3422944014274156
 31
0.0
  0
LINE
  5
BFC
  8
0
 10
4.0634835164602228
 20
6.3422944014274156
 30
0.0
 11
4.144949641685832
 21
6.3110224858796151
 31
0.0
  0
LINE
  5
BFD
  8
0
 10
4.144949641685832
 20
6.3110224858796151
 30
0.0
 11
4.2274575140626327
 21
6.2826127471065041
 31
0.0
  0
LINE
  5
BFE
  8
0
 10
4.2274575140626327
 20
6.2826127471065041
 30
0.0
 11
4.310906610457506
 21
6.2570997979985883
 31
0.0
  0
LINE
  5
BFF
  8
0
 10
4.310906610457506
 20
6.2570997979985883
 30
0.0
 11
4.3951952610008336
 21
6.2345147221543966
 31
0.0
  0
LINE
  5
C00
  8
0
 10
4.3951952610008336
 20
6.2345147221543966
 30
0.0
 11
4.4802207729556018
 21
6.2148850360098713
 31
0.0
  0
LINE
  5
C01
  8
0
 10
4.4802207729556018
 20
6.2148850360098713
 30
0.0
 11
4.5658795558326757
 21
6.1982346553138639
 31
0.0
  0
LINE
  5
C02
  8
0
 10
4.5658795558326757
 20
6.1982346553138639
 30
0.0
 11
4.652067247599839
 21
6.1845838659904606
 31
0.0
  0
LINE
  5
C03
  8
0
 10
4.652067247599839
 20
6.1845838659904606
 30
0.0
 11
4.7386788418308701
 21
6.1739492994237031
 31
0.0
  0
LINE
  5
C04
  8
0
 10
4.7386788418308701
 20
6.1739492994237031
 30
0.0
 11
4.825608815639689
 21
6.1663439121948249
 31
0.0
  0
LINE
  5
C05
  8
0
 10
4.825608815639689
 20
6.1663439121948249
 30
0.0
 11
4.91275125824375
 21
6.1617769702966463
 31
0.0
  0
LINE
  5
C06
  8
0
 10
4.91275125824375
 20
6.1617769702966463
 30
0.0
 11
5.0000000000000027
 21
6.1602540378443846
 31
0.0
  0
LINE
  5
C09
  8
0
 10
5.0000000000000009
 20
8.6602540378443873
 30
0.0
 11
7.5
 21
8.6602540378443873
 31
0.0
  0
LINE
  5
C0A
  8
0
 10
5.0000000000000009
 20
8.6602540378443873
 30
0.0
 11
2.5000000000000022
 21
8.6602540378443855
 31
0.0
  0
ENDSEC
  0
EOF
