  0
SECTION
  2
HEADER
  9
$ACADVER
  1
AC1009
  9
$INSBASE
 10
0.0
 20
0.0
 30
0.0
  9
$EXTMIN
 10
2342.0408829889320259
 20
1269.9784798049220171
 30
0.0
  9
$EXTMAX
 10
2344.3060498462727992
 20
1272.2436501059530656
 30
0.0
  9
$LIMMIN
 10
0.0
 20
0.0
  9
$LIMMAX
 10
420.0
 20
297.0
  9
$ORTHOMODE
 70
     0
  9
$REGENMODE
 70
     1
  9
$FILLMODE
 70
     1
  9
$QTEXTMODE
 70
     0
  9
$MIRRTEXT
 70
     0
  9
$DRAGMODE
 70
     2
  9
$LTSCALE
 40
1.0
  9
$OSMODE
 70
    37
  9
$ATTMODE
 70
     1
  9
$TEXTSIZE
 40
2.5
  9
$TRACEWID
 40
1.0
  9
$TEXTSTYLE
  7
STANDARD
  9
$CLAYER
  8
0
  9
$CELTYPE
  6
BYLAYER
  9
$CECOLOR
 62
   256
  9
$DIMSCALE
 40
1.0
  9
$DIMASZ
 40
2.5
  9
$DIMEXO
 40
0.625
  9
$DIMDLI
 40
3.75
  9
$DIMRND
 40
0.0
  9
$DIMDLE
 40
0.0
  9
$DIMEXE
 40
1.25
  9
$DIMTP
 40
0.0
  9
$DIMTM
 40
0.0
  9
$DIMTXT
 40
2.5
  9
$DIMCEN
 40
2.5
  9
$DIMTSZ
 40
0.0
  9
$DIMTOL
 70
     0
  9
$DIMLIM
 70
     0
  9
$DIMTIH
 70
     0
  9
$DIMTOH
 70
     0
  9
$DIMSE1
 70
     0
  9
$DIMSE2
 70
     0
  9
$DIMTAD
 70
     1
  9
$DIMZIN
 70
     8
  9
$DIMBLK
  1

  9
$DIMASO
 70
     1
  9
$DIMSHO
 70
     1
  9
$DIMPOST
  1

  9
$DIMAPOST
  1

  9
$DIMALT
 70
     0
  9
$DIMALTD
 70
     3
  9
$DIMALTF
 40
0.03937007874016
  9
$DIMLFAC
 40
1.0
  9
$DIMTOFL
 70
     1
  9
$DIMTVP
 40
0.0
  9
$DIMTIX
 70
     0
  9
$DIMSOXD
 70
     0
  9
$DIMSAH
 70
     0
  9
$DIMBLK1
  1

  9
$DIMBLK2
  1

  9
$DIMSTYLE
  2
ISO-25
  9
$DIMCLRD
 70
     0
  9
$DIMCLRE
 70
     0
  9
$DIMCLRT
 70
     0
  9
$DIMTFAC
 40
1.0
  9
$DIMGAP
 40
0.625
  9
$LUNITS
 70
     2
  9
$LUPREC
 70
     4
  9
$SKETCHINC
 40
1.0
  9
$FILLETRAD
 40
0.0
  9
$AUNITS
 70
     0
  9
$AUPREC
 70
     0
  9
$MENU
  1
.
  9
$ELEVATION
 40
0.0
  9
$PELEVATION
 40
0.0
  9
$THICKNESS
 40
0.0
  9
$LIMCHECK
 70
     0
  9
$BLIPMODE
 70
     0
  9
$CHAMFERA
 40
0.0
  9
$CHAMFERB
 40
0.0
  9
$SKPOLY
 70
     0
  9
$TDCREATE
 40
2460108.9154282407835126
  9
$TDUPDATE
 40
2460108.9548379629850388
  9
$TDINDWG
 40
0.0313888889
  9
$TDUSRTIMER
 40
0.0313888889
  9
$USRTIMER
 70
     1
  9
$ANGBASE
 50
0.0
  9
$ANGDIR
 70
     0
  9
$PDMODE
 70
     0
  9
$PDSIZE
 40
0.0
  9
$PLINEWID
 40
0.0
  9
$COORDS
 70
     1
  9
$SPLFRAME
 70
     0
  9
$SPLINETYPE
 70
     6
  9
$SPLINESEGS
 70
     8
  9
$ATTDIA
 70
     1
  9
$ATTREQ
 70
     1
  9
$HANDLING
 70
     1
  9
$HANDSEED
  5
5E1
  9
$SURFTAB1
 70
     6
  9
$SURFTAB2
 70
     6
  9
$SURFTYPE
 70
     6
  9
$SURFU
 70
     6
  9
$SURFV
 70
     6
  9
$UCSNAME
  2

  9
$UCSORG
 10
0.0
 20
0.0
 30
0.0
  9
$UCSXDIR
 10
1.0
 20
0.0
 30
0.0
  9
$UCSYDIR
 10
0.0
 20
1.0
 30
0.0
  9
$PUCSNAME
  2

  9
$PUCSORG
 10
0.0
 20
0.0
 30
0.0
  9
$PUCSXDIR
 10
1.0
 20
0.0
 30
0.0
  9
$PUCSYDIR
 10
0.0
 20
1.0
 30
0.0
  9
$USERI1
 70
     0
  9
$USERI2
 70
     0
  9
$USERI3
 70
     0
  9
$USERI4
 70
     0
  9
$USERI5
 70
     0
  9
$USERR1
 40
0.0
  9
$USERR2
 40
0.0
  9
$USERR3
 40
0.0
  9
$USERR4
 40
0.0
  9
$USERR5
 40
0.0
  9
$WORLDVIEW
 70
     1
  9
$SHADEDGE
 70
     3
  9
$SHADEDIF
 70
    70
  9
$TILEMODE
 70
     1
  9
$MAXACTVP
 70
    64
  9
$PLIMCHECK
 70
     0
  9
$PEXTMIN
 10
0.0
 20
0.0
 30
0.0
  9
$PEXTMAX
 10
0.0
 20
0.0
 30
0.0
  9
$PLIMMIN
 10
0.0
 20
0.0
  9
$PLIMMAX
 10
12.0
 20
9.0
  9
$UNITMODE
 70
     0
  9
$VISRETAIN
 70
     1
  9
$PLINEGEN
 70
     0
  9
$PSLTSCALE
 70
     1
  0
ENDSEC
  0
SECTION
  2
TABLES
  0
TABLE
  2
VPORT
 70
     1
  0
VPORT
  2
*ACTIVE
 70
     0
 10
0.0
 20
0.0
 11
1.0
 21
1.0
 12
2343.1734664176028673
 22
1271.1110649554379961
 13
0.0
 23
0.0
 14
10.0
 24
10.0
 15
10.0
 25
10.0
 16
0.0
 26
0.0
 36
1.0
 17
0.0
 27
0.0
 37
0.0
 40
2.2837881391219521
 41
2.6323731138545949
 42
50.0
 43
0.0
 44
0.0
 50
0.0
 51
0.0
 71
     0
 72
  1000
 73
     1
 74
     3
 75
     0
 76
     1
 77
     0
 78
     0
  0
ENDTAB
  0
TABLE
  2
LTYPE
 70
     2
  0
LTYPE
  2
CONTINUOUS
 70
     0
  3
Solid line
 72
    65
 73
     0
 40
0.0
  0
ENDTAB
  0
TABLE
  2
LAYER
 70
     1
  0
LAYER
  2
0
 70
     0
 62
     7
  6
CONTINUOUS
  0
ENDTAB
  0
TABLE
  2
STYLE
 70
     2
  0
STYLE
  2
STANDARD
 70
     0
 40
0.0
 41
1.0
 50
0.0
 71
     0
 42
2.5
  3
txt
  4

  0
STYLE
  2
ANNOTATIVE
 70
     0
 40
0.0
 41
1.0
 50
0.0
 71
     0
 42
2.5
  3
txt
  4

  0
ENDTAB
  0
TABLE
  2
VIEW
 70
     0
  0
ENDTAB
  0
TABLE
  2
UCS
 70
     0
  0
ENDTAB
  0
TABLE
  2
APPID
 70
     9
  0
APPID
  2
ACAD
 70
     0
  0
APPID
  2
ACADANNOTATIVE
 70
     0
  0
APPID
  2
ACAD_PSEXT
 70
     0
  0
APPID
  2
ACADANNOPO
 70
     0
  0
APPID
  2
ACAD_DSTYLE_DIMJAG
 70
     0
  0
APPID
  2
ACAD_DSTYLE_DIMTALN
 70
     0
  0
APPID
  2
ACAD_MLEADERVER
 70
     0
  0
APPID
  2
ACAD_NAV_VCDISPLAY
 70
     0
  0
APPID
  2
ACAD_EXEMPT_FROM_CAD_STANDARDS
 70
     0
  0
ENDTAB
  0
TABLE
  2
DIMSTYLE
 70
     4
  0
DIMSTYLE
  2
STANDARD
 70
     0
  3

  4

  5

  6

  7

 40
1.0
 41
0.18
 42
0.0625
 43
0.38
 44
0.18
 45
0.0
 46
0.0
 47
0.0
 48
0.0
140
0.18
141
0.09
142
0.0
143
25.3999999999999986
144
1.0
145
0.0
146
1.0
147
0.09
 71
     0
 72
     0
 73
     1
 74
     1
 75
     0
 76
     0
 77
     0
 78
     0
170
     0
171
     2
172
     0
173
     0
174
     0
175
     0
176
     0
177
     0
178
     0
  0
DIMSTYLE
  2
ANNOTATIVE
 70
     0
  3

  4

  5

  6

  7

 40
0.0
 41
2.5
 42
0.625
 43
3.75
 44
1.25
 45
0.0
 46
0.0
 47
0.0
 48
0.0
140
2.5
141
2.5
142
0.0
143
0.03937007874016
144
1.0
145
0.0
146
1.0
147
0.625
 71
     0
 72
     0
 73
     0
 74
     0
 75
     0
 76
     0
 77
     1
 78
     8
170
     0
171
     3
172
     1
173
     0
174
     0
175
     0
176
     0
177
     0
178
     0
  0
DIMSTYLE
  2
ISO-25
 70
     0
  3

  4

  5

  6

  7

 40
1.0
 41
2.5
 42
0.625
 43
3.75
 44
1.25
 45
0.0
 46
0.0
 47
0.0
 48
0.0
140
2.5
141
2.5
142
0.0
143
0.03937007874016
144
1.0
145
0.0
146
1.0
147
0.625
 71
     0
 72
     0
 73
     0
 74
     0
 75
     0
 76
     0
 77
     1
 78
     8
170
     0
171
     3
172
     1
173
     0
174
     0
175
     0
176
     0
177
     0
178
     0
  0
ENDTAB
  0
ENDSEC
  0
SECTION
  2
BLOCKS
  0
BLOCK
  8
0
  2
$MODEL_SPACE
 70
     0
 10
0.0
 20
0.0
 30
0.0
  3
$MODEL_SPACE
  1

  0
ENDBLK
  5
4FF
  8
0
  0
BLOCK
 67
     1
  8
0
  2
$PAPER_SPACE
 70
     0
 10
0.0
 20
0.0
 30
0.0
  3
$PAPER_SPACE
  1

  0
ENDBLK
  5
4FB
 67
     1
  8
0
  0
ENDSEC
  0
SECTION
  2
ENTITIES
  0
LINE
  5
29E
  8
0
 10
2343.1734681394609652
 20
1271.1110649553779695
 30
0.0
 11
2343.1734755150528144
 21
1272.1553402693909902
 31
0.0
  0
LINE
  5
2A1
  8
0
 10
2343.1734681394609652
 20
1271.1110649553779695
 30
0.0
 11
2344.2177416557501601
 21
1271.1110564087389321
 31
0.0
  0
LINE
  5
2A2
  8
0
 10
2343.1734681394609652
 20
1271.1110649553779695
 30
0.0
 11
2344.1382543381619143
 21
1271.5106832328519886
 31
0.0
  0
LINE
  5
2A3
  8
0
 10
2343.1734681394609652
 20
1271.1110649553779695
 30
0.0
 11
2343.911889274825171
 21
1271.8494706113219763
 31
0.0
  0
LINE
  5
2A4
  8
0
 10
2343.1734681394609652
 20
1271.1110649553779695
 30
0.0
 11
2343.573101815120026
 21
1272.0758467217849557
 31
0.0
  0
LINE
  5
2D5
  8
0
 10
2343.1734681394609652
 20
1271.1110649553779695
 30
0.0
 11
2342.1291928254931918
 21
1271.1110771288940668
 31
0.0
  0
LINE
  5
2D8
  8
0
 10
2343.1734681394609652
 20
1271.1110649553779695
 30
0.0
 11
2342.4350603842690361
 21
1271.8494865338859654
 31
0.0
  0
LINE
  5
2D9
  8
0
 10
2343.1734681394609652
 20
1271.1110649553779695
 30
0.0
 11
2342.208688209182128
 21
1271.510703063723895
 31
0.0
  0
LINE
  5
2E1
  8
0
 10
2343.1734681394609652
 20
1271.1110649553779695
 30
0.0
 11
2342.2086788919777973
 21
1270.7114493407580085
 31
0.0
  0
LINE
  5
2E4
  8
0
 10
2343.1734681394609652
 20
1271.1110649553779695
 30
0.0
 11
2343.5730822541518137
 21
1270.146276268947986
 31
0.0
  0
LINE
  5
2E6
  8
0
 10
2343.1734681394609652
 20
1271.1110649553779695
 30
0.0
 11
2342.4350453755541821
 21
1270.3726594074219065
 31
0.0
  0
LINE
  5
2E7
  8
0
 10
2343.1734681394609652
 20
1271.1110649553779695
 30
0.0
 11
2342.7738275382680513
 21
1270.1462852756530992
 31
0.0
  0
LINE
  5
2E8
  8
0
 10
2343.1734681394609652
 20
1271.1110649553779695
 30
0.0
 11
2343.1734547948972249
 21
1270.0667907337549423
 31
0.0
  0
LINE
  5
2F2
  8
0
 10
2343.1734681394609652
 20
1271.1110649553779695
 30
0.0
 11
2343.9118709014978776
 21
1270.3726399286210835
 31
0.0
  0
LINE
  5
2F3
  8
0
 10
2343.1734681394609652
 20
1271.1110649553779695
 30
0.0
 11
2344.138246985277874
 21
1270.7114298928649987
 31
0.0
  0
LINE
  5
31D
  8
0
 10
2344.1151682558129323
 20
1270.4818206391501008
 30
0.0
 11
2344.138246985277874
 21
1270.7114298928649987
 31
0.0
  0
LINE
  5
31E
  8
0
 10
2343.8026856224250878
 20
1270.1693485741679979
 30
0.0
 11
2343.5730822541518137
 21
1270.146276268947986
 31
0.0
  0
LINE
  5
31F
  8
0
 10
2343.8026856224250878
 20
1270.1693485741679979
 30
0.0
 11
2343.9118709014987871
 21
1270.3726399286210835
 31
0.0
  0
LINE
  5
320
  8
0
 10
2343.3944100363942198
 20
1270.0002413592619632
 30
0.0
 11
2343.1734547948972249
 21
1270.0667907337549423
 31
0.0
  0
LINE
  5
321
  8
0
 10
2343.3944100363942198
 20
1270.0002413592631001
 30
0.0
 11
2343.5730822541518137
 21
1270.146276268947986
 31
0.0
  0
LINE
  5
322
  8
0
 10
2342.9524937831638454
 20
1270.0002456823979173
 30
0.0
 11
2342.7738275382680513
 21
1270.1462852756530992
 31
0.0
  0
LINE
  5
323
  8
0
 10
2342.9524937831638454
 20
1270.0002456823979173
 30
0.0
 11
2343.1734547948972249
 21
1270.0667907337549423
 31
0.0
  0
LINE
  5
324
  8
0
 10
2342.5442266489958456
 20
1270.1693620988239672
 30
0.0
 11
2342.4350453755528179
 21
1270.3726594074219065
 31
0.0
  0
LINE
  5
325
  8
0
 10
2342.5442266489958456
 20
1270.1693620988239672
 30
0.0
 11
2342.7738275382680513
 21
1270.1462852756530992
 31
0.0
  0
LINE
  5
326
  8
0
 10
2342.2317507240009036
 20
1270.4818452538570455
 30
0.0
 11
2342.2086788919777973
 21
1270.7114493407580085
 31
0.0
  0
LINE
  5
327
  8
0
 10
2342.2317507240009036
 20
1270.4818452538570455
 30
0.0
 11
2342.4350453755528179
 21
1270.3726594074230434
 31
0.0
  0
LINE
  5
328
  8
0
 10
2342.0626427388169759
 20
1270.8901214045579309
 30
0.0
 11
2342.1291928254931918
 21
1271.1110771288940668
 31
0.0
  0
LINE
  5
329
  8
0
 10
2342.0626427388169759
 20
1270.8901214045579309
 30
0.0
 11
2342.2086788919768878
 21
1270.7114493407580085
 31
0.0
  0
LINE
  5
32A
  8
0
 10
2342.0626478512249378
 20
1271.3320342080101
 30
0.0
 11
2342.208688209182128
 21
1271.510703063723895
 31
0.0
  0
LINE
  5
32B
  8
0
 10
2342.0626478512249378
 20
1271.3320342080110095
 30
0.0
 11
2342.1291928254941013
 21
1271.1110771288961132
 31
0.0
  0
LINE
  5
32C
  8
0
 10
2342.2317652829060535
 20
1271.7403064458419522
 30
0.0
 11
2342.4350603842690361
 21
1271.8494865338859654
 31
0.0
  0
LINE
  5
32D
  8
0
 10
2342.2317652829060535
 20
1271.7403064458419522
 30
0.0
 11
2342.208688209182128
 21
1271.510703063723895
 31
0.0
  0
LINE
  5
32E
  8
0
 10
2342.5442441112249981
 20
1272.0527794798779269
 30
0.0
 11
2342.7738480921179871
 21
1272.075852366818026
 31
0.0
  0
LINE
  5
32F
  8
0
 10
2342.5442441112249981
 20
1272.0527794798779269
 30
0.0
 11
2342.4350603842690361
 21
1271.8494865338859654
 31
0.0
  0
LINE
  5
330
  8
0
 10
2342.9525194849520631
 20
1272.2218893408848999
 30
0.0
 11
2343.1734755150528144
 21
1272.1553402693909902
 31
0.0
  0
LINE
  5
331
  8
0
 10
2342.9525194849529726
 20
1272.2218893408848999
 30
0.0
 11
2342.7738480921179871
 21
1272.075852366818026
 31
0.0
  0
LINE
  5
332
  8
0
 10
2343.3944322884249232
 20
1272.2218862588460979
 30
0.0
 11
2343.573101815120026
 21
1272.0758467217849557
 31
0.0
  0
LINE
  5
333
  8
0
 10
2343.3944322884249232
 20
1272.2218862588460979
 30
0.0
 11
2343.1734755150528144
 21
1272.1553402693909902
 31
0.0
  0
LINE
  5
334
  8
0
 10
2343.8027053032628828
 20
1272.0527707029750673
 30
0.0
 11
2343.911889274825171
 21
1271.8494706113219763
 31
0.0
  0
LINE
  5
335
  8
0
 10
2343.8027053032610638
 20
1272.0527707029750673
 30
0.0
 11
2343.573101815120026
 21
1272.0758467217849557
 31
0.0
  0
LINE
  5
336
  8
0
 10
2344.1151805061858795
 20
1271.7402860143440648
 30
0.0
 11
2344.1382543381619143
 21
1271.5106832328519886
 31
0.0
  0
LINE
  5
337
  8
0
 10
2344.1151805061858795
 20
1271.7402860143440648
 30
0.0
 11
2343.911889274825171
 21
1271.8494706113219763
 31
0.0
  0
LINE
  5
338
  8
0
 10
2344.2842893951510632
 20
1271.3320116923819114
 30
0.0
 11
2344.2177416557501601
 21
1271.1110564087389321
 31
0.0
  0
LINE
  5
339
  8
0
 10
2344.2842893951510632
 20
1271.3320116923819114
 30
0.0
 11
2344.1382543381610049
 21
1271.5106832328519886
 31
0.0
  0
LINE
  5
33A
  8
0
 10
2344.2842858175590663
 20
1270.8901002326010712
 30
0.0
 11
2344.138246985277874
 21
1270.7114298928649987
 31
0.0
  0
LINE
  5
33B
  8
0
 10
2344.2842858175590663
 20
1270.8901002326010712
 30
0.0
 11
2344.2177416557501601
 21
1271.1110564087389321
 31
0.0
  0
LINE
  5
33C
  8
0
 10
2344.1151682558129323
 20
1270.4818206391501008
 30
0.0
 11
2343.9118709014978776
 21
1270.3726399286210835
 31
0.0
  0
LINE
  5
39E
  8
0
 10
2343.1734681394609652
 20
1271.1110649553779695
 30
0.0
 11
2342.7738480921179871
 21
1272.075852366818026
 31
0.0
  0
LINE
  5
517
  8
0
 10
2344.2198332667999239
 20
1270.6776280638580374
 30
0.0
 11
2344.1976739813621862
 21
1270.9073278749469864
 31
0.0
  0
LINE
  5
518
  8
0
 10
2343.9743152079117863
 20
1270.3101977026699387
 30
0.0
 11
2343.7536247934058338
 21
1270.2427753107269837
 31
0.0
  0
LINE
  5
519
  8
0
 10
2343.9743152079117863
 20
1270.3101977026699387
 30
0.0
 11
2344.041742327116026
 21
1270.5308838679770815
 31
0.0
  0
LINE
  5
51A
  8
0
 10
2343.6068757255397941
 20
1270.0646891873880122
 30
0.0
 11
2343.3771829361890013
 21
1270.086853584751907
 31
0.0
  0
LINE
  5
51B
  8
0
 10
2343.6068757255397941
 20
1270.0646891873889217
 30
0.0
 11
2343.7536247934058338
 21
1270.2427753107269837
 31
0.0
  0
LINE
  5
51C
  8
0
 10
2343.173449933433858
 20
1269.9784798049220171
 30
0.0
 11
2342.9697257894617906
 21
1270.0868572150488944
 31
0.0
  0
LINE
  5
51D
  8
0
 10
2343.173449933433858
 20
1269.9784798049220171
 30
0.0
 11
2343.3771829361890013
 21
1270.086853584751907
 31
0.0
  0
LINE
  5
51E
  8
0
 10
2342.7400345539958835
 20
1270.0646976917680604
 30
0.0
 11
2342.5932898149349057
 21
1270.2427884767951127
 31
0.0
  0
LINE
  5
51F
  8
0
 10
2342.7400345539958835
 20
1270.0646976917680604
 30
0.0
 11
2342.9697257894617906
 21
1270.0868572150488944
 31
0.0
  0
LINE
  5
520
  8
0
 10
2342.372600305195192
 20
1270.3102155092260546
 30
0.0
 11
2342.3051782371589979
 21
1270.5309067208690976
 31
0.0
  0
LINE
  5
521
  8
0
 10
2342.372600305195192
 20
1270.3102155092260546
 30
0.0
 11
2342.5932898149349057
 21
1270.2427884767960222
 31
0.0
  0
LINE
  5
522
  8
0
 10
2342.127090924273034
 20
1270.6776553951440292
 30
0.0
 11
2342.1492559259399968
 21
1270.9073487969969847
 31
0.0
  0
LINE
  5
523
  8
0
 10
2342.127090924273034
 20
1270.6776553951440292
 30
0.0
 11
2342.3051782371589979
 21
1270.5309067208679608
 31
0.0
  0
LINE
  5
524
  8
0
 10
2342.0408829889329354
 20
1271.1110779577379617
 30
0.0
 11
2342.1492606397227974
 21
1271.3148048115490383
 31
0.0
  0
LINE
  5
525
  8
0
 10
2342.0408829889320259
 20
1271.1110779577390986
 30
0.0
 11
2342.1492559259399968
 21
1270.907348796999031
 31
0.0
  0
LINE
  5
526
  8
0
 10
2342.1271008758499192
 20
1271.5444985408419143
 30
0.0
 11
2342.305189727313973
 21
1271.6912416866700823
 31
0.0
  0
LINE
  5
527
  8
0
 10
2342.1271008758499192
 20
1271.5444985408419143
 30
0.0
 11
2342.1492606397227974
 21
1271.3148048115490383
 31
0.0
  0
LINE
  5
528
  8
0
 10
2342.372615013729046
 20
1271.9119291101319504
 30
0.0
 11
2342.5933059155968294
 21
1271.9793521921330921
 31
0.0
  0
LINE
  5
529
  8
0
 10
2342.372615013729046
 20
1271.9119291101319504
 30
0.0
 11
2342.305189727313973
 21
1271.6912416866700823
 31
0.0
  0
LINE
  5
52A
  8
0
 10
2342.7400537716480358
 20
1272.1574401792529443
 30
0.0
 11
2342.9697472753377951
 21
1272.135276232914066
 31
0.0
  0
LINE
  5
52B
  8
0
 10
2342.7400537716489453
 20
1272.1574401792529443
 30
0.0
 11
2342.5933059155968294
 21
1271.9793521921330921
 31
0.0
  0
LINE
  5
52C
  8
0
 10
2343.1734759381570257
 20
1272.2436501059530656
 30
0.0
 11
2343.3772032899059923
 21
1272.1352733911880932
 31
0.0
  0
LINE
  5
52D
  8
0
 10
2343.1734759381570257
 20
1272.2436501059530656
 30
0.0
 11
2342.9697472753377951
 21
1272.135276232914066
 31
0.0
  0
LINE
  5
52E
  8
0
 10
2343.6068969173838923
 20
1272.1574342103899653
 30
0.0
 11
2343.7536448456671678
 21
1271.9793412221599738
 31
0.0
  0
LINE
  5
52F
  8
0
 10
2343.6068969173820733
 20
1272.1574342103899653
 30
0.0
 11
2343.3772032899059923
 21
1272.1352733911880932
 31
0.0
  0
LINE
  5
530
  8
0
 10
2343.9743307571770856
 20
1271.9119147479320873
 30
0.0
 11
2344.0417545320638055
 21
1271.6912252067870668
 31
0.0
  0
LINE
  5
531
  8
0
 10
2343.9743307571770856
 20
1271.9119147479320873
 30
0.0
 11
2343.7536448456671678
 21
1271.9793412221599738
 31
0.0
  0
LINE
  5
532
  8
0
 10
2344.2198406677448475
 20
1271.5444768319330251
 30
0.0
 11
2344.1976778822759115
 21
1271.3147843202359581
 31
0.0
  0
LINE
  5
533
  8
0
 10
2344.2198406677448475
 20
1271.5444768319330251
 30
0.0
 11
2344.041754532062896
 21
1271.6912252067870668
 31
0.0
  0
LINE
  5
534
  8
0
 10
2344.3060498462727992
 20
1271.111055886620079
 30
0.0
 11
2344.1976739813621862
 21
1270.9073278749469864
 31
0.0
  0
LINE
  5
535
  8
0
 10
2344.3060498462727992
 20
1271.111055886620079
 30
0.0
 11
2344.1976778822759115
 21
1271.3147843202359581
 31
0.0
  0
LINE
  5
536
  8
0
 10
2344.2198332667999239
 20
1270.6776280638580374
 30
0.0
 11
2344.0417423271151165
 21
1270.5308838679759447
 31
0.0
  0
LINE
  5
58A
  8
0
 10
2342.5442441112249981
 20
1272.0527794798779269
 30
0.0
 11
2342.5933059155968294
 21
1271.9793521921330921
 31
0.0
  0
LINE
  5
58B
  8
0
 10
2342.9525194849529726
 20
1272.2218893408848999
 30
0.0
 11
2342.9697472753377951
 21
1272.135276232914066
 31
0.0
  0
LINE
  5
58C
  8
0
 10
2343.3944322884249232
 20
1272.2218862588460979
 30
0.0
 11
2343.3772032899059923
 21
1272.1352733911880932
 31
0.0
  0
LINE
  5
58D
  8
0
 10
2343.8027053032610638
 20
1272.0527707029750673
 30
0.0
 11
2343.7536448456671678
 21
1271.9793412221599738
 31
0.0
  0
LINE
  5
58E
  8
0
 10
2344.1151805061858795
 20
1271.7402860143440648
 30
0.0
 11
2344.0417545320638055
 21
1271.6912252067870668
 31
0.0
  0
LINE
  5
58F
  8
0
 10
2344.2842893951510632
 20
1271.3320116923819114
 30
0.0
 11
2344.1976778822759115
 21
1271.3147843202359581
 31
0.0
  0
LINE
  5
590
  8
0
 10
2344.2842858175590663
 20
1270.8901002326010712
 30
0.0
 11
2344.1976739813621862
 21
1270.9073278749469864
 31
0.0
  0
LINE
  5
591
  8
0
 10
2344.1151682558129323
 20
1270.4818206391501008
 30
0.0
 11
2344.0417423271151165
 21
1270.5308838679759447
 31
0.0
  0
LINE
  5
592
  8
0
 10
2343.8026856224250878
 20
1270.1693485741679979
 30
0.0
 11
2343.7536247934058338
 21
1270.2427753107269837
 31
0.0
  0
LINE
  5
593
  8
0
 10
2343.3944100363942198
 20
1270.0002413592631001
 30
0.0
 11
2343.3771829361890013
 21
1270.086853584751907
 31
0.0
  0
LINE
  5
594
  8
0
 10
2342.9524937831638454
 20
1270.0002456823979173
 30
0.0
 11
2342.9697257894617906
 21
1270.0868572150488944
 31
0.0
  0
LINE
  5
595
  8
0
 10
2342.5442266489958456
 20
1270.1693620988239672
 30
0.0
 11
2342.5932898149349057
 21
1270.2427884767960222
 31
0.0
  0
LINE
  5
596
  8
0
 10
2342.2317507240009036
 20
1270.4818452538570455
 30
0.0
 11
2342.3051782371589979
 21
1270.5309067208679608
 31
0.0
  0
LINE
  5
597
  8
0
 10
2342.0626427388169759
 20
1270.8901214045579309
 30
0.0
 11
2342.1492559259399968
 21
1270.9073487969969847
 31
0.0
  0
LINE
  5
598
  8
0
 10
2342.0626478512249378
 20
1271.3320342080110095
 30
0.0
 11
2342.1492606397227974
 21
1271.3148048115490383
 31
0.0
  0
LINE
  5
599
  8
0
 10
2342.2317652829060535
 20
1271.7403064458419522
 30
0.0
 11
2342.305189727313973
 21
1271.6912416866700823
 31
0.0
  0
ENDSEC
  0
EOF
