  0
SECTION
  2
HEADER
  9
$ACADVER
  1
AC1009
  9
$INSBASE
 10
0.0
 20
0.0
 30
0.0
  9
$EXTMIN
 10
2341.0601525824940836
 20
1268.9977584379269047
 30
0.0
  9
$EXTMAX
 10
2345.2867836963678201
 20
1273.2243805124339815
 30
0.0
  9
$LIMMIN
 10
0.0
 20
0.0
  9
$LIMMAX
 10
420.0
 20
297.0
  9
$ORTHOMODE
 70
     0
  9
$REGENMODE
 70
     1
  9
$FILLMODE
 70
     1
  9
$QTEXTMODE
 70
     0
  9
$MIRRTEXT
 70
     0
  9
$DRAGMODE
 70
     2
  9
$LTSCALE
 40
1.0
  9
$OSMODE
 70
    37
  9
$ATTMODE
 70
     1
  9
$TEXTSIZE
 40
2.5
  9
$TRACEWID
 40
1.0
  9
$TEXTSTYLE
  7
STANDARD
  9
$CLAYER
  8
0
  9
$CELTYPE
  6
BYLAYER
  9
$CECOLOR
 62
   256
  9
$DIMSCALE
 40
1.0
  9
$DIMASZ
 40
2.5
  9
$DIMEXO
 40
0.625
  9
$DIMDLI
 40
3.75
  9
$DIMRND
 40
0.0
  9
$DIMDLE
 40
0.0
  9
$DIMEXE
 40
1.25
  9
$DIMTP
 40
0.0
  9
$DIMTM
 40
0.0
  9
$DIMTXT
 40
2.5
  9
$DIMCEN
 40
2.5
  9
$DIMTSZ
 40
0.0
  9
$DIMTOL
 70
     0
  9
$DIMLIM
 70
     0
  9
$DIMTIH
 70
     0
  9
$DIMTOH
 70
     0
  9
$DIMSE1
 70
     0
  9
$DIMSE2
 70
     0
  9
$DIMTAD
 70
     1
  9
$DIMZIN
 70
     8
  9
$DIMBLK
  1

  9
$DIMASO
 70
     1
  9
$DIMSHO
 70
     1
  9
$DIMPOST
  1

  9
$DIMAPOST
  1

  9
$DIMALT
 70
     0
  9
$DIMALTD
 70
     3
  9
$DIMALTF
 40
0.03937007874016
  9
$DIMLFAC
 40
1.0
  9
$DIMTOFL
 70
     1
  9
$DIMTVP
 40
0.0
  9
$DIMTIX
 70
     0
  9
$DIMSOXD
 70
     0
  9
$DIMSAH
 70
     0
  9
$DIMBLK1
  1

  9
$DIMBLK2
  1

  9
$DIMSTYLE
  2
ISO-25
  9
$DIMCLRD
 70
     0
  9
$DIMCLRE
 70
     0
  9
$DIMCLRT
 70
     0
  9
$DIMTFAC
 40
1.0
  9
$DIMGAP
 40
0.625
  9
$LUNITS
 70
     2
  9
$LUPREC
 70
     4
  9
$SKETCHINC
 40
1.0
  9
$FILLETRAD
 40
0.0
  9
$AUNITS
 70
     0
  9
$AUPREC
 70
     0
  9
$MENU
  1
.
  9
$ELEVATION
 40
0.0
  9
$PELEVATION
 40
0.0
  9
$THICKNESS
 40
0.0
  9
$LIMCHECK
 70
     0
  9
$BLIPMODE
 70
     0
  9
$CHAMFERA
 40
0.0
  9
$CHAMFERB
 40
0.0
  9
$SKPOLY
 70
     0
  9
$TDCREATE
 40
2460108.9154282407835126
  9
$TDUPDATE
 40
2460108.9501851862296462
  9
$TDINDWG
 40
0.0347569444
  9
$TDUSRTIMER
 40
0.0347569444
  9
$USRTIMER
 70
     1
  9
$ANGBASE
 50
0.0
  9
$ANGDIR
 70
     0
  9
$PDMODE
 70
     0
  9
$PDSIZE
 40
0.0
  9
$PLINEWID
 40
0.0
  9
$COORDS
 70
     1
  9
$SPLFRAME
 70
     0
  9
$SPLINETYPE
 70
     6
  9
$SPLINESEGS
 70
     8
  9
$ATTDIA
 70
     1
  9
$ATTREQ
 70
     1
  9
$HANDLING
 70
     1
  9
$HANDSEED
  5
434
  9
$SURFTAB1
 70
     6
  9
$SURFTAB2
 70
     6
  9
$SURFTYPE
 70
     6
  9
$SURFU
 70
     6
  9
$SURFV
 70
     6
  9
$UCSNAME
  2

  9
$UCSORG
 10
0.0
 20
0.0
 30
0.0
  9
$UCSXDIR
 10
1.0
 20
0.0
 30
0.0
  9
$UCSYDIR
 10
0.0
 20
1.0
 30
0.0
  9
$PUCSNAME
  2

  9
$PUCSORG
 10
0.0
 20
0.0
 30
0.0
  9
$PUCSXDIR
 10
1.0
 20
0.0
 30
0.0
  9
$PUCSYDIR
 10
0.0
 20
1.0
 30
0.0
  9
$USERI1
 70
     0
  9
$USERI2
 70
     0
  9
$USERI3
 70
     0
  9
$USERI4
 70
     0
  9
$USERI5
 70
     0
  9
$USERR1
 40
0.0
  9
$USERR2
 40
0.0
  9
$USERR3
 40
0.0
  9
$USERR4
 40
0.0
  9
$USERR5
 40
0.0
  9
$WORLDVIEW
 70
     1
  9
$SHADEDGE
 70
     3
  9
$SHADEDIF
 70
    70
  9
$TILEMODE
 70
     1
  9
$MAXACTVP
 70
    64
  9
$PLIMCHECK
 70
     0
  9
$PEXTMIN
 10
0.0
 20
0.0
 30
0.0
  9
$PEXTMAX
 10
0.0
 20
0.0
 30
0.0
  9
$PLIMMIN
 10
0.0
 20
0.0
  9
$PLIMMAX
 10
12.0
 20
9.0
  9
$UNITMODE
 70
     0
  9
$VISRETAIN
 70
     1
  9
$PLINEGEN
 70
     0
  9
$PSLTSCALE
 70
     1
  0
ENDSEC
  0
SECTION
  2
TABLES
  0
TABLE
  2
VPORT
 70
     1
  0
VPORT
  2
*ACTIVE
 70
     0
 10
0.0
 20
0.0
 11
1.0
 21
1.0
 12
2343.1734681394309519
 22
1271.1110694751810115
 13
0.0
 23
0.0
 14
10.0
 24
10.0
 15
10.0
 25
10.0
 16
0.0
 26
0.0
 36
1.0
 17
0.0
 27
0.0
 37
0.0
 40
4.2613614340239101
 41
2.6323731138545949
 42
50.0
 43
0.0
 44
0.0
 50
0.0
 51
0.0
 71
     0
 72
  1000
 73
     1
 74
     3
 75
     0
 76
     1
 77
     0
 78
     0
  0
ENDTAB
  0
TABLE
  2
LTYPE
 70
     2
  0
LTYPE
  2
CONTINUOUS
 70
     0
  3
Solid line
 72
    65
 73
     0
 40
0.0
  0
ENDTAB
  0
TABLE
  2
LAYER
 70
     1
  0
LAYER
  2
0
 70
     0
 62
     7
  6
CONTINUOUS
  0
ENDTAB
  0
TABLE
  2
STYLE
 70
     2
  0
STYLE
  2
STANDARD
 70
     0
 40
0.0
 41
1.0
 50
0.0
 71
     0
 42
2.5
  3
txt
  4

  0
STYLE
  2
ANNOTATIVE
 70
     0
 40
0.0
 41
1.0
 50
0.0
 71
     0
 42
2.5
  3
txt
  4

  0
ENDTAB
  0
TABLE
  2
VIEW
 70
     0
  0
ENDTAB
  0
TABLE
  2
UCS
 70
     0
  0
ENDTAB
  0
TABLE
  2
APPID
 70
     9
  0
APPID
  2
ACAD
 70
     0
  0
APPID
  2
ACAD_PSEXT
 70
     0
  0
APPID
  2
ACADANNOPO
 70
     0
  0
APPID
  2
ACADANNOTATIVE
 70
     0
  0
APPID
  2
ACAD_DSTYLE_DIMJAG
 70
     0
  0
APPID
  2
ACAD_DSTYLE_DIMTALN
 70
     0
  0
APPID
  2
ACAD_MLEADERVER
 70
     0
  0
APPID
  2
ACAD_NAV_VCDISPLAY
 70
     0
  0
APPID
  2
ACAD_EXEMPT_FROM_CAD_STANDARDS
 70
     0
  0
ENDTAB
  0
TABLE
  2
DIMSTYLE
 70
     4
  0
DIMSTYLE
  2
STANDARD
 70
     0
  3

  4

  5

  6

  7

 40
1.0
 41
0.18
 42
0.0625
 43
0.38
 44
0.18
 45
0.0
 46
0.0
 47
0.0
 48
0.0
140
0.18
141
0.09
142
0.0
143
25.3999999999999986
144
1.0
145
0.0
146
1.0
147
0.09
 71
     0
 72
     0
 73
     1
 74
     1
 75
     0
 76
     0
 77
     0
 78
     0
170
     0
171
     2
172
     0
173
     0
174
     0
175
     0
176
     0
177
     0
178
     0
  0
DIMSTYLE
  2
ANNOTATIVE
 70
     0
  3

  4

  5

  6

  7

 40
0.0
 41
2.5
 42
0.625
 43
3.75
 44
1.25
 45
0.0
 46
0.0
 47
0.0
 48
0.0
140
2.5
141
2.5
142
0.0
143
0.03937007874016
144
1.0
145
0.0
146
1.0
147
0.625
 71
     0
 72
     0
 73
     0
 74
     0
 75
     0
 76
     0
 77
     1
 78
     8
170
     0
171
     3
172
     1
173
     0
174
     0
175
     0
176
     0
177
     0
178
     0
  0
DIMSTYLE
  2
ISO-25
 70
     0
  3

  4

  5

  6

  7

 40
1.0
 41
2.5
 42
0.625
 43
3.75
 44
1.25
 45
0.0
 46
0.0
 47
0.0
 48
0.0
140
2.5
141
2.5
142
0.0
143
0.03937007874016
144
1.0
145
0.0
146
1.0
147
0.625
 71
     0
 72
     0
 73
     0
 74
     0
 75
     0
 76
     0
 77
     1
 78
     8
170
     0
171
     3
172
     1
173
     0
174
     0
175
     0
176
     0
177
     0
178
     0
  0
ENDTAB
  0
ENDSEC
  0
SECTION
  2
BLOCKS
  0
BLOCK
  8
0
  2
$MODEL_SPACE
 70
     0
 10
0.0
 20
0.0
 30
0.0
  3
$MODEL_SPACE
  1

  0
ENDBLK
  5
21
  8
0
  0
BLOCK
 67
     1
  8
0
  2
$PAPER_SPACE
 70
     0
 10
0.0
 20
0.0
 30
0.0
  3
$PAPER_SPACE
  1

  0
ENDBLK
  5
D5
 67
     1
  8
0
  0
ENDSEC
  0
SECTION
  2
ENTITIES
  0
LINE
  5
2AF
  8
0
 10
2345.1259124927219091
 20
1271.9197833766920667
 30
0.0
 11
2344.0866453108001224
 21
1272.0242336584910845
 31
0.0
  0
LINE
  5
2B1
  8
0
 10
2345.1259124927219091
 20
1271.9197833766920667
 30
0.0
 11
2344.4648860834931838
 21
1271.1110545525370981
 31
0.0
  0
LINE
  5
2B2
  8
0
 10
2343.9822045017599521
 20
1273.0635018772400144
 30
0.0
 11
2343.1734770941370698
 21
1272.4024889328559311
 31
0.0
  0
LINE
  5
2B4
  8
0
 10
2343.9822045017590426
 20
1273.0635018772391049
 30
0.0
 11
2344.0866453108001224
 21
1272.0242336584910845
 31
0.0
  0
LINE
  5
2B5
  8
0
 10
2343.17348270390994
 20
1273.2243805124339815
 30
0.0
 11
2342.6792698521649072
 21
1272.304188562769923
 31
0.0
  0
LINE
  5
2B6
  8
0
 10
2344.6678083745200638
 20
1272.6053914590020213
 30
0.0
 11
2343.6676829728421581
 21
1272.304181709157092
 31
0.0
  0
LINE
  5
2B8
  8
0
 10
2344.6678083745200638
 20
1272.6053914590020213
 30
0.0
 11
2344.3665867268659895
 21
1271.6052595958469738
 31
0.0
  0
LINE
  5
2C2
  8
0
 10
2343.17348270390994
 20
1273.2243805124339815
 30
0.0
 11
2343.6676829728421581
 21
1272.304181709157092
 31
0.0
  0
LINE
  5
2D6
  8
0
 10
2341.2210349333608974
 20
1271.9198102881439354
 30
0.0
 11
2342.2603036319528655
 21
1272.0242463222639344
 31
0.0
  0
LINE
  5
2DA
  8
0
 10
2341.0601525824940836
 20
1271.111089229460049
 30
0.0
 11
2341.9803422614859301
 21
1270.6168721498959258
 31
0.0
  0
LINE
  5
2DB
  8
0
 10
2341.6791485016010483
 20
1272.6054120561088894
 30
0.0
 11
2342.6792698521639977
 21
1272.304188562769923
 31
0.0
  0
LINE
  5
2DC
  8
0
 10
2341.2210349333608974
 20
1271.9198102881439354
 30
0.0
 11
2341.8820441620391648
 21
1271.1110798435049674
 31
0.0
  0
LINE
  5
2DD
  8
0
 10
2342.3647586886659155
 20
1273.0635130242769719
 30
0.0
 11
2343.1734770941370698
 21
1272.4024889328559311
 31
0.0
  0
LINE
  5
2DE
  8
0
 10
2341.6791485016019578
 20
1272.6054120561079799
 30
0.0
 11
2341.9803536563649686
 21
1271.605285270532022
 31
0.0
  0
LINE
  5
2DF
  8
0
 10
2342.3647586886659155
 20
1273.0635130242769719
 30
0.0
 11
2342.2603036319528655
 21
1272.0242463222639344
 31
0.0
  0
LINE
  5
2E0
  8
0
 10
2341.0601525824940836
 20
1271.111089229460049
 30
0.0
 11
2341.9803536563658781
 21
1271.605285270532022
 31
0.0
  0
LINE
  5
2E2
  8
0
 10
2341.2210098613531954
 20
1270.3023565306950786
 30
0.0
 11
2342.2602829601451049
 21
1270.1979008310520385
 31
0.0
  0
LINE
  5
2E3
  8
0
 10
2341.2210098613531954
 20
1270.3023565306959881
 30
0.0
 11
2341.8820441620391648
 21
1271.1110798435049674
 31
0.0
  0
LINE
  5
2E5
  8
0
 10
2343.1734390106871615
 20
1268.9977584379269047
 30
0.0
 11
2342.6792460114161258
 21
1269.9179538479158964
 31
0.0
  0
LINE
  5
2E9
  8
0
 10
2343.9821675935618259
 20
1269.1586029616789801
 30
0.0
 11
2344.0866286474852132
 21
1270.1978813443458876
 31
0.0
  0
LINE
  5
2EA
  8
0
 10
2342.3647138362462101
 20
1269.1586354650798967
 30
0.0
 11
2342.2602829601441954
 21
1270.1979008310520385
 31
0.0
  0
LINE
  5
2EB
  8
0
 10
2343.1734390106871615
 20
1268.9977584379269047
 30
0.0
 11
2343.6676582040731773
 21
1269.9179419102110842
 31
0.0
  0
LINE
  5
2EC
  8
0
 10
2341.6791141730918753
 20
1269.6167521833160663
 30
0.0
 11
2341.9803422614868396
 21
1270.6168721498959258
 31
0.0
  0
LINE
  5
2ED
  8
0
 10
2342.3647138362462101
 20
1269.158635465081943
 30
0.0
 11
2343.1734473178839835
 21
1269.8196409780389331
 31
0.0
  0
LINE
  5
2EE
  8
0
 10
2341.6791141730918753
 20
1269.6167521833160663
 30
0.0
 11
2342.6792460114161258
 21
1269.9179538479158964
 31
0.0
  0
LINE
  5
2EF
  8
0
 10
2343.9821675935609164
 20
1269.1586029616789801
 30
0.0
 11
2343.1734473178839835
 21
1269.8196409780380236
 31
0.0
  0
LINE
  5
2F1
  8
0
 10
2345.1258995316889013
 20
1270.3023152436680903
 30
0.0
 11
2344.0866286474852132
 21
1270.1978813443458876
 31
0.0
  0
LINE
  5
2F4
  8
0
 10
2345.2867836963678201
 20
1271.1110359415210951
 30
0.0
 11
2344.3665867268659895
 21
1271.6052595958469738
 31
0.0
  0
LINE
  5
2F5
  8
0
 10
2344.6677844257719698
 20
1269.6167145031699874
 30
0.0
 11
2343.6676582040731773
 21
1269.9179419102099473
 31
0.0
  0
LINE
  5
2F6
  8
0
 10
2345.1258995316898108
 20
1270.3023152436680903
 30
0.0
 11
2344.4648860834940933
 21
1271.1110545525370981
 31
0.0
  0
LINE
  5
2F7
  8
0
 10
2344.6677844257719698
 20
1269.6167145031690779
 30
0.0
 11
2344.3665815141080202
 21
1270.6168419642910976
 31
0.0
  0
LINE
  5
2F8
  8
0
 10
2345.2867836963678201
 20
1271.1110359415210951
 30
0.0
 11
2344.3665815141080202
 21
1270.6168419642899607
 31
0.0
  0
LINE
  5
30C
  8
0
 10
2341.9803422614868396
 20
1270.6168721498959258
 30
0.0
 11
2341.2210098613531954
 21
1270.3023565306950786
 31
0.0
  0
LINE
  5
30D
  8
0
 10
2341.8820441620391648
 20
1271.1110798435049674
 30
0.0
 11
2341.0601525824940836
 21
1271.111089229460049
 31
0.0
  0
LINE
  5
30E
  8
0
 10
2341.9803536563658781
 20
1271.605285270532022
 30
0.0
 11
2341.2210349333608974
 21
1271.9198102881439354
 31
0.0
  0
LINE
  5
30F
  8
0
 10
2342.2603036319528655
 20
1272.0242463222639344
 30
0.0
 11
2341.6791485016019578
 21
1272.6054120561079799
 31
0.0
  0
LINE
  5
310
  8
0
 10
2342.6792698521639977
 20
1272.304188562769923
 30
0.0
 11
2342.3647586886659155
 21
1273.0635130242769719
 31
0.0
  0
LINE
  5
311
  8
0
 10
2343.1734770941370698
 20
1272.4024889328559311
 30
0.0
 11
2343.17348270390994
 21
1273.2243805124339815
 31
0.0
  0
LINE
  5
312
  8
0
 10
2343.6676829728421581
 20
1272.304181709157092
 30
0.0
 11
2343.9822045017599521
 21
1273.0635018772400144
 31
0.0
  0
LINE
  5
313
  8
0
 10
2344.0866453108001224
 20
1272.0242336584910845
 30
0.0
 11
2344.6678083745200638
 21
1272.6053914590020213
 31
0.0
  0
LINE
  5
314
  8
0
 10
2344.3665867268659895
 20
1271.6052595958469738
 30
0.0
 11
2345.1259124927219091
 21
1271.9197833766920667
 31
0.0
  0
LINE
  5
315
  8
0
 10
2344.4648860834931838
 20
1271.1110545525370981
 30
0.0
 11
2345.2867836963678201
 21
1271.1110359415210951
 31
0.0
  0
LINE
  5
317
  8
0
 10
2344.3665815141080202
 20
1270.6168419642910976
 30
0.0
 11
2345.1258995316889013
 21
1270.3023152436680903
 31
0.0
  0
LINE
  5
318
  8
0
 10
2344.0866286474852132
 20
1270.1978813443458876
 30
0.0
 11
2344.6677844257719698
 21
1269.6167145031699874
 31
0.0
  0
LINE
  5
319
  8
0
 10
2343.6676582040731773
 20
1269.9179419102099473
 30
0.0
 11
2343.9821675935618259
 21
1269.1586029616789801
 31
0.0
  0
LINE
  5
31A
  8
0
 10
2343.1734473178839835
 20
1269.8196409780380236
 30
0.0
 11
2343.1734390106871615
 21
1268.9977584379269047
 31
0.0
  0
LINE
  5
31B
  8
0
 10
2342.6792460114161258
 20
1269.9179538479158964
 30
0.0
 11
2342.3647138362462101
 21
1269.158635465081943
 31
0.0
  0
LINE
  5
31C
  8
0
 10
2342.2602829601441954
 20
1270.1979008310520385
 30
0.0
 11
2341.6791141730918753
 21
1269.6167521833160663
 31
0.0
  0
ENDSEC
  0
EOF
